<?xml version="1.0" encoding="UTF-8"?><svg id="a" xmlns="http://www.w3.org/2000/svg" viewBox="0 0 32 32"><defs><style>.b{fill:none;}.c{fill:#f0e8cd;}</style></defs><path class="b" d="M18.3,9c-.72,0-1.41,.29-1.91,.81l-.39,.4-.4-.4c-1.03-1.05-2.71-1.08-3.76-.05-.02,.02-.03,.03-.05,.05-1.05,1.09-1.05,2.81,0,3.9l4.21,4.3,4.21-4.3c1.05-1.09,1.05-2.81,0-3.9-.5-.52-1.19-.81-1.91-.81Z"/><path class="c" d="M16,2c-6.07,0-10.99,4.93-11,11,0,2.38,.77,4.7,2.22,6.6,0,0,.3,.4,.35,.45l8.43,9.95,8.44-9.95c.04-.05,.34-.45,.34-.45h0c1.44-1.9,2.22-4.22,2.22-6.6,0-6.07-4.93-10.99-11-11Zm4.21,11.7l-4.21,4.3-4.21-4.3c-1.05-1.09-1.05-2.81,0-3.9,1.03-1.05,2.71-1.08,3.76-.05,.02,.02,.03,.03,.05,.05l.4,.4,.39-.4c1.03-1.05,2.71-1.08,3.76-.05,.02,.02,.03,.03,.05,.05,1.05,1.09,1.05,2.81,0,3.9h0Z"/></svg>