<?xml version="1.0" encoding="UTF-8"?><svg id="a" xmlns="http://www.w3.org/2000/svg" viewBox="0 0 32 32"><defs><style>.b{fill:#201abd;}</style></defs><path class="b" d="M16,0C7.2,0,0,7.2,0,16S7.2,32,16,32s16-7.2,16-16S24.8,0,16,0Zm-5.8,6.4c.3,0,.6,.2,.9,.5l2.2,4.2c.2,.5,.1,1-.2,1.4l-1,1c-.1,0-.1,.1-.1,.2,.4,1.5,1.6,2.9,2.6,3.8s2.1,2.2,3.6,2.5c.2,0,.4,.1,.5,0l1.2-1.2c.4-.3,1-.5,1.4-.2h0l4,2.3c.6,.4,.6,1.1,.2,1.5l-2.7,2.7c-.4,.4-.9,.5-1.5,.5-2.3-.1-4.5-1.2-6.2-2.4-2.9-2.1-5.6-4.8-7.3-7.9-.6-1.3-1.4-3-1.3-4.5,0-.6,.2-1.1,.6-1.5l2.7-2.7c0-.1,.3-.2,.4-.2Z"/></svg>