<?xml version="1.0" encoding="UTF-8"?><svg id="a" xmlns="http://www.w3.org/2000/svg" viewBox="0 0 32 32"><defs><style>.b{fill:#fff;stroke:#1d1d1b;stroke-miterlimit:10;stroke-width:.25px;}</style></defs><path d="M9.71,6.44V2.6l2.69-.91,2.12,3.03h1.87l2.36-3.03,2.55,.82,.12,3.65s1.31,.75,1.46,1.04l3.63-1.13,1.73,2.32-2.19,3.12s.62,.93,.6,1.73l3.61,1.15v2.79l-3.45,1.17s-.31,1.37-.58,1.7l2.3,2.97-1.68,2.52-3.7-1.13s-1,1.04-1.39,1.13l-.02,3.74-2.68,.95-2.21-2.99-1.9-.02-2.19,3.12-2.81-.82,.04-3.83s-1.37-.62-1.46-1.06l-3.65,1.28s-1.75-2.15-1.75-2.37l2.26-3.06s-.6-.8-.62-1.84l-3.72-1.02v-2.92l3.59-1.2s.44-1.75,.55-1.77l-2.26-3.01s1.04-1.82,1.75-2.41l3.59,1.15s1.08-1.04,1.47-1.04Z"/><path class="b" d="M10.69,12.49s.53-2.83,2.93-3.1,3.8,.87,4,1.55c0,0,3.26-.95,4.13,2.55,0,0,3.03,.57,2.43,3.76s-3.73,3-3.9,2.93-.34,2.3-3.33,2.53-3.83-1.56-3.83-1.56c0,0-4.1,1.15-5.36-3.13s2.93-5.53,2.93-5.53Z"/><path d="M17.05,12.59s3.07-1.56,3.34,1.92c0,0,2.53,.03,2.44,2.34s-2.92,1.89-3.46,1.68c0,0-.36,2.65-2.53,2.83s-2.83-1.23-3.16-1.77c0,0-3.7,1.77-4.69-2.47,0,0-.48-2.53,2.95-3.55,0,0-.24-2.22,1.98-2.86s3.13,1.86,3.13,1.86Z"/></svg>