<svg id="Lag_1" data-name="Lag 1" xmlns="http://www.w3.org/2000/svg" viewBox="0 0 595.28 841.89"><defs><style>.cls-1{fill:none;stroke:#1d1d1b;stroke-miterlimit:10;stroke-width:5px;}.cls-2{fill:#1d1d1b;}.cls-3{fill:#fff;}</style></defs><path class="cls-1" d="M255.36,192.44c-34.68,18.19-69.63,54.86-79.15,128.35"/><path class="cls-2" d="M258.11,213.14c2.53-.67,6.09-1.53,11.52-2.56,2.52-.48,2.87-1.63,2.72-6.19-.07-2,1.61-1.3,3.53-2.35,1.7-1.15,1-5.69,1-5.69-.21-1,.33-1.15.68-1.08,8,1.43,14.64-5,15-4.23,2.18,3.38,5.79,2.26,6,1.2.28,1.69,3.14,2.49,3.83,1.92,2.48-2.13,2.29-3.22,4.09-4.35,3.22-2.36,2.08-3.86,5.47-4.82,2.47-.7,3.2-1.32,3.67-2,2-3.14-1-6-2.82-6.78,0-2.77-4.56-5.12-5.95-7.13a19.83,19.83,0,0,0,5.45-2.53c1.33-.83,1.15,0,3.62-.85,3.34-1.08,4.55-1.73,5.52-2.46.56-.44,3.87-1.11,5.44-2.09A5,5,0,0,0,330,154c-.09-.18-.15-.17-1.16.06-1.35.41-4,.26-5.91,1A35,35,0,0,0,319,156c-2.48.13-4.07,1.14-7.06.79-.45,0-.27.35-1.21.47-.5.06-.53-.35-1.93.15a56.72,56.72,0,0,1-5.76,1.34c-2,.45-3.67.4-8.66,1.09-2,.28-3.82-.27-5.12.8-2,1.62-9,6.77-16.36,12.77-.16.13-.8.71-1.5-.28-1.33-1.52-1.75-.88-5,0-2.37.44-1-1.76-3.6-1.12-3.95,1-5.43,1.67-11.25,2.87-2.36.48-3,.54-2.68,2.21l8,35.23A1,1,0,0,0,258.11,213.14Z"/><path class="cls-3" d="M329.07,155.28c.49,1.53-2.48,1.8-3.68,1.83-.72,0-1.48-1-.85-1.35l4.35-.58C329,155.16,329.07,155.25,329.07,155.28Z"/><path class="cls-3" d="M310.24,178.66c-1.61.63-1.3,1.29-2.23,1.37-1.22.1-.26-.59-4.28.43a4.34,4.34,0,0,0-2.5,1c-.46-.23-1.49-.46-2,.25-1.54,0-1.06-.25-3.41.87-3.17,1.53-4.15.31-5.88-.1a2.1,2.1,0,0,0-1.54.13c-6,2.15-3.34,1.52-12,2.95-3.09.11-4.6-1.23-5.39-5.27-.79-4.61.33-4.2,2.59-5.84,9.11-6.81,15-12.22,17.73-12.62,7.51-1.61,6.45.08,16.28-2.46,3-1.1,3.31.53,4.44.07.78-.69-.06-1,3-1.41,6.28-.83,7.26-2.15,8-1.31,1.05,1.14,1.22,1.95,5.13.72.33-.1.42-.14.61-.21.47-.23.56.06.16.52a12.24,12.24,0,0,1-7.15,3c-2.24.15-.92.72-4.5,1.53-1.59.26-2.56.48-3.07.49a13.78,13.78,0,0,1-5.5,1.67c-1.27,0-1.92-.29-2.86.54a12.09,12.09,0,0,1-6.73,2.55c-4.23.45-4.19-.4-4.53,0-.8.94,1.47,1.85-.21,3.86-.86,1-2.7-1.91-3.72-1.62-.59.22-.58.81-.14,1.41.22.3,1.85,1.83,1,2.82-1.39,1.6-5.21-1.4-7.17.65-.44.53.27,1,.9.77,1.08-.39,3.2.25,4.14.76a24.69,24.69,0,0,0,5.68,1.64c4.17.71,5.18-.76,6.09.06.75.61,1.69-.77,3-1.29,2.46-1,8.83-.23,8.56,1.19-.12.48-.52.54-1.07.56A3.48,3.48,0,0,0,310.24,178.66Z"/><path class="cls-3" d="M309.52,182.15c.3-1.4.33-1.59,1.5-2.13s4.37-.27,4.25,1.14c-.23.49-1.54.81-2.33,1.2S309.43,183.69,309.52,182.15Z"/><path class="cls-3" d="M273.35,201.25c1.24-.34,1.22-1.14,1.23-2,0-1.23-2-5.93-3.47-12.08A86.34,86.34,0,0,1,269,175.81c-.11-.84.32-2-.82-1.82-3.72.63-4.91.6-4.85,3.62.08,3.53,3,16.68,5.41,23.38C269.12,201.46,268.62,202.71,273.35,201.25Z"/></svg>