<?xml version="1.0" encoding="UTF-8"?><svg id="a" xmlns="http://www.w3.org/2000/svg" viewBox="0 0 32 32"><defs><style>.b{fill:#f0e8cd;}</style></defs><path class="b" d="M5.32,28.39l12.05-4.31c1.84-.65,2.37-3.01,.99-4.4l-6.04-6.04c-1.39-1.39-3.73-.85-4.4,.99L3.61,26.68c-.37,1.07,.64,2.08,1.71,1.71Zm14.76-12.39l6.75-6.75c.65-.65,1.71-.65,2.36,0h0l.08,.08c.39,.39,1.03,.39,1.41,0,.39-.39,.39-1.03,0-1.41l-.08-.08c-1.43-1.43-3.75-1.43-5.19,0l-6.75,6.75c-.39,.39-.39,1.03,0,1.41,.39,.39,1.03,.39,1.41,0Zm-6.67-6.83l-.08,.08c-.39,.39-.39,1.03,0,1.41s1.03,.39,1.41,0l.08-.08c1.43-1.43,1.43-3.75,0-5.19l-.07-.07c-.4-.4-1.04-.4-1.43,0-.39,.39-.39,1.03,0,1.41l.08,.08c.64,.64,.64,1.71,0,2.35Zm9.33,6.67l-1.41,1.41c-.39,.39-.39,1.03,0,1.41,.39,.39,1.03,.39,1.41,0l1.41-1.41c.65-.65,1.71-.65,2.36,0h0l1.44,1.44c.39,.39,1.03,.39,1.41,0,.39-.39,.39-1.03,0-1.41l-1.44-1.44c-1.43-1.43-3.75-1.43-5.19,0Zm-2.67-8l-4.08,4.08c-.39,.39-.39,1.03,0,1.41,.39,.39,1.03,.39,1.41,0l4.08-4.08c1.43-1.43,1.43-3.75,0-5.19l-1.41-1.41c-.39-.39-1.02-.39-1.41,0-.39,.39-.39,1.03,0,1.41l1.41,1.41c.64,.65,.64,1.72,0,2.36Z"/></svg>