<?xml version="1.0" encoding="UTF-8"?><svg id="a" xmlns="http://www.w3.org/2000/svg" viewBox="0 0 184.6 184.6"><defs><style>.b{fill:#010101;}.c{fill:none;stroke:#010101;stroke-width:4px;}</style></defs><path class="b" d="M69.16,105.75l-5.5,14.5H16.3v-2.11c3.16-.12,5.15-.35,6.2-.94,1.52-.94,2.22-2.92,2.22-5.96v-40.81c0-2.34-.94-3.74-2.69-4.44-1.05-.47-2.92-.58-5.73-.58v-2.34H62.61l5.5,13.68-2.34,.7c-4.21-4.91-7.72-8.07-10.53-9.59-3.27-1.75-7.84-2.69-13.68-2.69-2.92,0-5.03,.23-6.2,.58-2.11,.82-3.04,2.34-3.04,4.79v19.06h5.61c4.91,0,8.42-1.05,10.53-3.04,1.4-1.4,2.34-3.74,2.92-7.02h2.34v22.1h-2.34c-.58-6.67-5.03-9.94-13.45-9.94h-5.5v21.4c0,3.16,2.69,4.68,7.95,4.68,6.08,0,10.64-.7,13.45-1.99,3.74-1.64,8.07-5.26,13.22-11.11l2.11,1.05Zm21.75,12.62c0,1.44-.47,2.62-1.52,3.54-.94,.92-2.11,1.44-3.51,1.44s-2.46-.52-3.39-1.44-1.4-2.1-1.4-3.41c0-1.44,.47-2.62,1.4-3.54,.94-.92,2.11-1.44,3.39-1.44,1.4,0,2.57,.52,3.63,1.44,.94,.92,1.4,2.1,1.4,3.41Zm67.25-41.51l-2.22,.82c-4.21-4.91-7.72-8.07-10.41-9.71-3.27-1.87-7.48-2.69-12.86-2.69-2.92,0-4.91,.35-5.96,.94-1.52,.82-2.34,2.34-2.34,4.56v19.06h4.79c5.03,0,8.65-1.29,10.76-3.74,1.17-1.4,1.87-3.39,2.34-6.08h2.34v22.22h-2.34c-.94-6.67-5.26-10.06-13.1-10.06h-4.79v19.88c0,2.57,.7,4.21,2.22,5.03,1.05,.58,3.16,.94,6.2,1.05v2.22h-23.74v-2.22c5.03,0,7.6-1.64,7.6-4.79v-42.45c0-2.34-.82-3.86-2.34-4.68-1.05-.58-2.69-.82-5.15-.94v-2.22h43.39l5.61,13.8Zm14.25,40.22c0,1.44-.47,2.62-1.52,3.54-.94,.92-2.11,1.44-3.51,1.44s-2.46-.52-3.39-1.44c-.94-.92-1.4-2.1-1.4-3.41,0-1.44,.47-2.62,1.4-3.54s2.11-1.44,3.39-1.44c1.4,0,2.57,.52,3.63,1.44,.94,.92,1.4,2.1,1.4,3.41Z"/><circle class="c" cx="92.3" cy="92.3" r="90.3"/></svg>