<?xml version="1.0" encoding="UTF-8"?><svg id="a" xmlns="http://www.w3.org/2000/svg" viewBox="0 0 166.85 137.81"><defs><style>.b{fill:#201abd;}</style></defs><g><path class="b" d="M65.72,17.34h56.54v13.65h-38.55v23.79h33.69v13.48h-33.69v34.39h-17.99V17.34Z"/><path class="b" d="M131.79,86.28c1.89-2.01,4.62-3.02,8.17-3.02s6.28,1.01,8.17,3.02c1.89,2.01,2.84,4.44,2.84,7.29s-.95,5.34-2.84,7.35c-1.9,2.01-4.62,3.02-8.17,3.02s-6.28-1.02-8.17-3.05c-1.9-2.03-2.84-4.47-2.84-7.32s.95-5.28,2.84-7.29Z"/></g><path class="b" d="M9.08,17.34h57.48v13.65H26.95v21.04H61.23v13.48H26.95v23.55h40.2v13.59H9.08V17.34Z"/></svg>