<?xml version="1.0" encoding="utf-8"?>
<!-- Generator: Adobe Illustrator 26.2.1, SVG Export Plug-In . SVG Version: 6.00 Build 0)  -->
<svg version="1.1" id="a" xmlns="http://www.w3.org/2000/svg" xmlns:xlink="http://www.w3.org/1999/xlink" x="0px" y="0px"
	 viewBox="0 0 32 32" style="enable-background:new 0 0 32 32;" xml:space="preserve">
<style type="text/css">
	.st0{fill:#F0E8CD;}
	.st1{fill:#FFFFFF;}
</style>
<path class="st0" d="M-31.2,16c0,2.6-2.1,4.8-4.8,4.8s-4.8-2.1-4.8-4.8c0-0.3,0-0.5,0.1-0.8h-1.7v6.4c0,0.4,0.4,0.8,0.8,0.8h11.2
	c0.4,0,0.8-0.4,0.8-0.8v-6.4h-1.7C-31.2,15.5-31.2,15.7-31.2,16L-31.2,16z M-36,19.2c1.8,0,3.2-1.4,3.2-3.2s-1.4-3.2-3.2-3.2
	c-1.8,0-3.2,1.4-3.2,3.2S-37.8,19.2-36,19.2z M-32.2,12.6h1.9c0.3,0,0.5-0.2,0.5-0.5v-1.9c0-0.3-0.2-0.5-0.5-0.5h-1.9
	c-0.3,0-0.5,0.2-0.5,0.5v1.9C-32.6,12.4-32.4,12.6-32.2,12.6z M-36,0.6c-8.5,0-15.4,6.9-15.4,15.4s6.9,15.4,15.4,15.4
	s15.4-6.9,15.4-15.4l0,0C-20.6,7.5-27.5,0.6-36,0.6z M-28,22.2c0,1-0.8,1.8-1.8,1.8h-12.4c-1,0-1.8-0.8-1.8-1.8V9.8
	c0-1,0.8-1.8,1.8-1.8h12.4c1,0,1.8,0.8,1.8,1.8V22.2z"/>
<path class="st1" d="M20.8,16c0,2.6-2.1,4.8-4.8,4.8s-4.8-2.1-4.8-4.8c0-0.3,0-0.5,0.1-0.8H9.6v6.4c0,0.4,0.4,0.8,0.8,0.8h11.2
	c0.4,0,0.8-0.4,0.8-0.8v-6.4h-1.7C20.8,15.5,20.8,15.7,20.8,16L20.8,16z M16,19.2c1.8,0,3.2-1.4,3.2-3.2s-1.4-3.2-3.2-3.2
	s-3.2,1.4-3.2,3.2S14.2,19.2,16,19.2z M19.8,12.6h1.9c0.3,0,0.5-0.2,0.5-0.5v-1.9c0-0.3-0.2-0.5-0.5-0.5h-1.9
	c-0.3,0-0.5,0.2-0.5,0.5v1.9C19.4,12.4,19.6,12.6,19.8,12.6z M16,0.6C7.5,0.6,0.6,7.5,0.6,16S7.5,31.4,16,31.4S31.4,24.5,31.4,16
	l0,0C31.4,7.5,24.5,0.6,16,0.6z M24,22.2c0,1-0.8,1.8-1.8,1.8H9.8c-1,0-1.8-0.8-1.8-1.8V9.8C8,8.8,8.8,8,9.8,8h12.4
	c1,0,1.8,0.8,1.8,1.8V22.2z"/>
</svg>
