<?xml version="1.0" encoding="UTF-8"?><svg id="a" xmlns="http://www.w3.org/2000/svg" viewBox="0 0 32 32"><defs><style>.b{fill:#f0e8cd;}</style></defs><path class="b" d="M16,.64C7.52,.64,.64,7.52,.64,16s6.88,15.36,15.36,15.36,15.36-6.88,15.36-15.36S24.48,.64,16,.64Zm-3.76,21.73h-3.11V12.36h3.11v10.01Zm-1.57-11.24c-.98,0-1.62-.7-1.62-1.56s.65-1.55,1.66-1.55,1.62,.68,1.64,1.55c0,.86-.63,1.56-1.68,1.56Zm12.93,11.24h-3.11v-5.55c0-1.29-.45-2.17-1.58-2.17-.86,0-1.37,.59-1.6,1.16-.08,.2-.1,.49-.1,.78v5.77h-3.11v-6.82c0-1.25-.04-2.29-.08-3.19h2.7l.14,1.39h.06c.41-.65,1.41-1.62,3.09-1.62,2.05,0,3.58,1.37,3.58,4.32v5.92Z"/></svg>