<?xml version="1.0" encoding="utf-8"?>
<!-- Generator: Adobe Illustrator 26.2.1, SVG Export Plug-In . SVG Version: 6.00 Build 0)  -->
<svg version="1.1" id="a" xmlns="http://www.w3.org/2000/svg" xmlns:xlink="http://www.w3.org/1999/xlink" x="0px" y="0px"
	 viewBox="0 0 32 32" style="enable-background:new 0 0 32 32;" xml:space="preserve">
<style type="text/css">
	.st0{fill:#F0E8CD;}
	.st1{fill:#201ABD;}
	.st2{fill:#FFFFFF;}
</style>
<path class="st0" d="M-88,0.6c-8.5,0-15.4,6.9-15.4,15.4s6.9,15.4,15.4,15.4s15.4-6.9,15.4-15.4S-79.5,0.6-88,0.6z M-91.8,22.4h-3.1
	v-10h3.1V22.4z M-93.3,11.1c-1,0-1.6-0.7-1.6-1.6S-94.3,8-93.3,8s1.6,0.7,1.6,1.6C-91.7,10.4-92.3,11.1-93.3,11.1z M-80.4,22.4h-3.1
	v-5.5c0-1.3-0.4-2.2-1.6-2.2c-0.9,0-1.4,0.6-1.6,1.2c-0.1,0.2-0.1,0.5-0.1,0.8v5.8h-3.1v-6.8c0-1.2,0-2.3-0.1-3.2h2.7l0.1,1.4h0.1
	c0.4-0.6,1.4-1.6,3.1-1.6c2.1,0,3.6,1.4,3.6,4.3L-80.4,22.4L-80.4,22.4z"/>
<path class="st1" d="M-36,0.6c-8.5,0-15.4,6.9-15.4,15.4s6.9,15.4,15.4,15.4s15.4-6.9,15.4-15.4S-27.5,0.6-36,0.6z M-39.8,22.4h-3.1
	v-10h3.1V22.4z M-41.3,11.1c-1,0-1.6-0.7-1.6-1.6S-42.3,8-41.3,8c1,0,1.6,0.7,1.6,1.6C-39.7,10.4-40.3,11.1-41.3,11.1z M-28.4,22.4
	h-3.1v-5.5c0-1.3-0.5-2.2-1.6-2.2c-0.9,0-1.4,0.6-1.6,1.2c-0.1,0.2-0.1,0.5-0.1,0.8v5.8h-3.1v-6.8c0-1.2,0-2.3-0.1-3.2h2.7l0.1,1.4
	h0.1c0.4-0.6,1.4-1.6,3.1-1.6c2,0,3.6,1.4,3.6,4.3L-28.4,22.4L-28.4,22.4z"/>
<path class="st2" d="M16,0.6C7.5,0.6,0.6,7.5,0.6,16S7.5,31.4,16,31.4S31.4,24.5,31.4,16S24.5,0.6,16,0.6z M12.2,22.4H9.1v-10h3.1
	V22.4z M10.7,11.1c-1,0-1.6-0.7-1.6-1.6S9.7,8,10.7,8s1.6,0.7,1.6,1.6C12.4,10.4,11.7,11.1,10.7,11.1z M23.6,22.4h-3.1v-5.5
	c0-1.3-0.5-2.2-1.6-2.2c-0.9,0-1.4,0.6-1.6,1.2c-0.1,0.2-0.1,0.5-0.1,0.8v5.8h-3.1v-6.8c0-1.2,0-2.3-0.1-3.2h2.7l0.1,1.4h0.1
	c0.4-0.6,1.4-1.6,3.1-1.6c2,0,3.6,1.4,3.6,4.3L23.6,22.4L23.6,22.4z"/>
</svg>
