<?xml version="1.0" encoding="utf-8"?>
<!-- Generator: Adobe Illustrator 26.2.1, SVG Export Plug-In . SVG Version: 6.00 Build 0)  -->
<svg version="1.1" id="Lag_1" xmlns="http://www.w3.org/2000/svg" xmlns:xlink="http://www.w3.org/1999/xlink" x="0px" y="0px"
	 viewBox="0 0 198.2 171.7" style="enable-background:new 0 0 198.2 171.7;" xml:space="preserve">
<style type="text/css">
	.st0{fill:none;stroke:#000000;stroke-width:2;}
	.st1{fill:#201ABD;}
</style>
<path d="M-536.3,75.6l-3,7.9h-25.8v-1.2c1.7,0,2.8-0.2,3.4-0.5c0.8-0.5,1.2-1.6,1.2-3.3V56.4c0-1.2-0.5-2.1-1.4-2.4
	c-0.6-0.2-1.6-0.3-3.1-0.3v-1.2h25.2l3,7.5l-1.2,0.4c-2.3-2.7-4.2-4.4-5.7-5.2c-1.8-1-4.3-1.4-7.4-1.4c-1.6,0-2.7,0.1-3.4,0.3
	c-1.1,0.4-1.7,1.3-1.7,2.6v10.4h3.1c2.7,0,4.6-0.5,5.8-1.6c0.8-0.8,1.3-2,1.6-3.8h1.3v12h-1.3c-0.3-3.6-2.8-5.4-7.3-5.4h-3.1V80
	c0,1.7,1.4,2.5,4.3,2.5c3.3,0,5.8-0.4,7.3-1.1c2-0.9,4.4-2.9,7.2-6L-536.3,75.6z M-490.6,83.5h-12.9v-1.2c1.5,0,2.5-0.2,3.1-0.5
	c0.9-0.4,1.3-1.3,1.3-2.7V53.6l0,0l-11.8,30.2h-1.2l-11.8-30.3h-0.2v24.6c0,1.8,0.5,3,1.6,3.6c0.6,0.4,1.5,0.6,2.8,0.6v1.2h-10.4
	v-1.2c2.8-0.1,4.2-1.5,4.2-4.1V56.8c0-1.4-0.4-2.3-1.3-2.8c-0.5-0.3-1.5-0.4-2.9-0.4v-1.2h9.8l9.8,25.3h0.1l9.8-25.3h9.8v1.2
	c-1.4,0-2.4,0.2-3,0.4c-0.8,0.4-1.2,1.2-1.2,2.4v22.9c0,1.2,0.5,2.1,1.5,2.5c0.6,0.3,1.5,0.4,2.7,0.4v1.3H-490.6z M-470.9,83.5
	h-13.3v-1.2h1.3c2.1,0,3.2-1.1,3.2-3.3V56.4c0-1.2-0.5-2.1-1.5-2.4c-0.6-0.2-1.6-0.3-3-0.3v-1.2h13.3v1.2c-1.7,0-2.8,0.2-3.4,0.6
	c-0.8,0.4-1.2,1.4-1.2,2.8v22.6c0,1.2,0.5,2.1,1.5,2.5c0.6,0.2,1.6,0.3,3.1,0.3V83.5z M-437.6,75.6l-3,7.9h-23.8v-1.2
	c1.5,0,2.6-0.1,3.2-0.4c1-0.4,1.4-1.3,1.4-2.7V56.4c0-1.9-1.1-2.8-3.4-2.8h-1.2v-1.2h13.6v1.2c-1.8,0-2.9,0.2-3.6,0.5
	c-0.8,0.4-1.2,1.4-1.2,2.7v22.6c0,1.1,0.3,1.8,1,2.3s1.6,0.6,3,0.6c2.9,0,5.4-0.7,7.5-2.1c1.5-1,3.2-2.6,5.2-5L-437.6,75.6z
	 M-417.8,83.5h-13.3v-1.2h1.3c2.1,0,3.2-1.1,3.2-3.3V56.4c0-1.2-0.5-2.1-1.5-2.4c-0.6-0.2-1.6-0.3-3-0.3v-1.2h13.3v1.2
	c-1.7,0-2.8,0.2-3.4,0.6c-0.8,0.4-1.2,1.4-1.2,2.8v22.6c0,1.2,0.5,2.1,1.5,2.5c0.6,0.2,1.6,0.3,3.1,0.3V83.5z M-382.5,75.6l-3,7.9
	h-25.8v-1.2c1.7,0,2.8-0.2,3.4-0.5c0.8-0.5,1.2-1.6,1.2-3.3V56.4c0-1.2-0.5-2.1-1.4-2.4c-0.6-0.2-1.6-0.3-3.1-0.3v-1.2h25.1l3,7.5
	l-1.2,0.4c-2.3-2.7-4.2-4.4-5.7-5.2c-1.8-1-4.3-1.4-7.4-1.4c-1.6,0-2.7,0.1-3.4,0.3c-1.1,0.4-1.7,1.3-1.7,2.6v10.4h3.1
	c2.7,0,4.6-0.5,5.8-1.6c0.8-0.8,1.3-2,1.6-3.8h1.3v12h-1.4c-0.3-3.6-2.8-5.4-7.3-5.4h-3.1V80c0,1.7,1.4,2.5,4.3,2.5
	c3.3,0,5.8-0.4,7.3-1.1c2-0.9,4.4-2.9,7.2-6L-382.5,75.6z M-328.1,59.9l-1.2,0.4c-2.3-2.7-4.2-4.4-5.7-5.3c-1.8-1-4.1-1.5-7-1.5
	c-1.6,0-2.7,0.2-3.3,0.5c-0.8,0.4-1.2,1.2-1.2,2.5v10.4h2.6c2.8,0,4.7-0.7,5.9-2.1c0.6-0.7,1-1.8,1.2-3.3h1.3v12.1h-1.3
	c-0.5-3.6-2.9-5.5-7.1-5.5h-2.6V79c0,1.4,0.4,2.3,1.2,2.7c0.6,0.3,1.7,0.5,3.4,0.6v1.2h-12.9v-1.2c2.8,0,4.1-0.9,4.1-2.6v-23
	c0-1.2-0.4-2.1-1.3-2.5c-0.5-0.3-1.5-0.5-2.8-0.5v-1.2h23.7L-328.1,59.9z M-308.2,83.5h-13.3v-1.2h1.3c2.1,0,3.2-1.1,3.2-3.3V56.4
	c0-1.2-0.5-2.1-1.5-2.4c-0.6-0.2-1.6-0.3-3-0.3v-1.2h13.3v1.2c-1.7,0-2.8,0.2-3.4,0.6c-0.8,0.4-1.2,1.4-1.2,2.8v22.6
	c0,1.2,0.5,2.1,1.5,2.5c0.6,0.2,1.6,0.3,3.1,0.3L-308.2,83.5L-308.2,83.5z M-277.9,74.9c0,2.7-1,5-3,6.8s-4.4,2.7-7.2,2.7
	c-1.3,0-2.8-0.3-4.5-1c-1-0.4-1.7-0.6-2.4-0.6c-0.6,0-1.7,0.4-3.5,1.3l-3.3-8l1.2-0.5c4.7,4.9,8.9,7.3,12.6,7.3
	c1.9,0,3.5-0.6,4.8-1.9c1.4-1.2,2.1-2.7,2.1-4.5c0-2.1-1-3.8-2.9-4.9c-1.1-0.7-3-1.4-5.6-2c-3.7-0.9-6.3-1.8-7.7-2.8
	c-2.4-1.5-3.6-3.8-3.6-6.8c0-2.6,1.1-4.8,3.2-6.4c1.8-1.4,3.7-2.1,5.8-2.1c0.7,0,1.8,0.1,3.2,0.4s2.4,0.4,3.1,0.4
	c0.9,0,1.9-0.2,2.8-0.6l3.1,7.5l-1.2,0.5c-3.3-4.6-6.9-6.9-10.8-6.9c-1.9,0-3.4,0.6-4.6,1.7c-1.2,1.1-1.8,2.4-1.8,3.9
	c0,1.9,0.9,3.4,2.7,4.5c1.2,0.7,3.4,1.5,6.4,2.2s5.3,1.5,6.8,2.4C-279.2,69.4-277.9,71.8-277.9,74.9z M-244.8,75.2
	c-3,6.1-7.2,9.2-12.6,9.2c-3.9,0-7.2-1.5-9.7-4.4c-2.6-2.9-3.8-6.5-3.8-10.9c0-4.7,1.2-8.7,3.7-12.1c2.7-3.6,6.1-5.5,10.3-5.5
	c0.7,0,1.5,0.1,2.3,0.3c2,0.5,3.2,0.7,3.4,0.7c0.6,0,1.5-0.3,2.6-0.8l3.1,7.8l-1.2,0.4c-1.7-2-3.2-3.6-4.4-4.5
	c-2.1-1.7-4.3-2.5-6.4-2.5c-2.9,0-5.2,1.4-6.9,4.3c-1.4,2.5-2.1,5.4-2.1,8.9c0,4,0.8,7.4,2.4,10.1c2,3.4,4.8,5.1,8.5,5.1
	c2.4,0,4.5-0.8,6.3-2.4c1.1-0.9,2.2-2.4,3.4-4.3L-244.8,75.2z M-206.9,83.5h-12.8v-1.2c1.3,0,2.3-0.1,2.8-0.4c1-0.4,1.5-1.2,1.5-2.5
	V68.3h-14.9v11.4c0,1.1,0.5,1.8,1.4,2.2c0.5,0.2,1.5,0.4,2.8,0.4v1.2h-12.7v-1.2c2.8,0,4.2-1,4.2-2.9V56.5c0-2-1.1-2.9-3.2-2.9h-1.1
	v-1.2h12.7v1.2c-1.3,0-2.3,0.2-2.9,0.5c-0.9,0.4-1.3,1.3-1.3,2.4v10.3h14.9V56.7c0-1.3-0.5-2.2-1.4-2.7c-0.6-0.3-1.6-0.4-2.9-0.4
	v-1.2h12.8v1.2c-1.3,0-2.3,0.2-2.9,0.5c-0.9,0.4-1.3,1.3-1.3,2.4v22.9c0,1.2,0.5,2,1.4,2.4c0.5,0.3,1.5,0.4,2.8,0.4v1.3H-206.9z
	 M-172,75.6l-3,7.9h-25.8v-1.2c1.7,0,2.8-0.2,3.4-0.5c0.8-0.5,1.2-1.6,1.2-3.3V56.4c0-1.2-0.5-2.1-1.4-2.4c-0.6-0.2-1.6-0.3-3.1-0.3
	v-1.2h25.2l3,7.5l-1.2,0.4c-2.3-2.7-4.2-4.4-5.7-5.2c-1.8-1-4.3-1.4-7.4-1.4c-1.6,0-2.7,0.1-3.4,0.3c-1.1,0.4-1.7,1.3-1.7,2.6v10.4
	h3.1c2.7,0,4.6-0.5,5.8-1.6c0.8-0.8,1.3-2,1.6-3.8h1.3v12h-1.3c-0.3-3.6-2.8-5.4-7.3-5.4h-3.4V80c0,1.7,1.4,2.5,4.3,2.5
	c3.3,0,5.8-0.4,7.3-1.1c2-0.9,4.4-2.9,7.2-6L-172,75.6z M-136.3,83.5h-8.1l-9.2-15.3h-3.5v11.4c0,1.2,0.5,1.9,1.5,2.3
	c0.5,0.2,1.4,0.4,2.7,0.4v1.2h-12.6v-1.2c2.8-0.1,4.2-1.1,4.2-2.9V56.8c0-1.4-0.4-2.3-1.3-2.8c-0.5-0.3-1.5-0.4-2.9-0.4v-1.2h14.5
	c2.7,0,5,0.5,7,1.4c2.9,1.3,4.3,3.5,4.3,6.5c0,4.1-3.1,6.7-9.3,7.7l6.9,11.4c0.7,1.2,1.6,2,2.7,2.4c0.7,0.3,1.7,0.4,3.2,0.5v1.2
	H-136.3z M-144.7,60.1c0-4.3-2.7-6.5-8.1-6.5c-1.4,0-2.4,0.1-3,0.4c-0.9,0.4-1.3,1.2-1.3,2.4V67h2.5c3.4,0,5.9-0.5,7.3-1.4
	C-145.5,64.6-144.7,62.7-144.7,60.1z"/>
<path d="M-744.7,77.8l-4.7,12.4h-40.5v-1.8c2.7-0.1,4.4-0.3,5.3-0.8c1.3-0.8,1.9-2.5,1.9-5.1V47.6c0-2-0.8-3.2-2.3-3.8
	c-0.9-0.4-2.5-0.5-4.9-0.5v-2h39.6l4.7,11.7l-2,0.6c-3.6-4.2-6.6-6.9-9-8.2c-2.8-1.5-6.7-2.3-11.7-2.3c-2.5,0-4.3,0.2-5.3,0.5
	c-1.8,0.7-2.6,2-2.6,4.1V64h4.8c4.2,0,7.2-0.9,9-2.6c1.2-1.2,2-3.2,2.5-6h2v18.9h-2c-0.5-5.7-4.3-8.5-11.5-8.5h-4.7v18.3
	c0,2.7,2.3,4,6.8,4c5.2,0,9.1-0.6,11.5-1.7c3.2-1.4,6.9-4.5,11.3-9.5L-744.7,77.8z M-723.1,87.5c0,1.1-0.4,2-1.3,2.7
	c-0.8,0.7-1.8,1.1-3,1.1s-2.1-0.4-2.9-1.1c-0.8-0.7-1.2-1.6-1.2-2.6c0-1.1,0.4-2,1.2-2.7s1.8-1.1,2.9-1.1c1.2,0,2.2,0.4,3.1,1.1
	C-723.5,85.6-723.1,86.5-723.1,87.5z M-668.6,53.1l-1.9,0.7c-3.6-4.2-6.6-6.9-8.9-8.3c-2.8-1.6-6.4-2.3-11-2.3
	c-2.5,0-4.2,0.3-5.1,0.8c-1.3,0.7-2,2-2,3.9v16.3h4.1c4.3,0,7.4-1.1,9.2-3.2c1-1.2,1.6-2.9,2-5.2h2v19h-2c-0.8-5.7-4.5-8.6-11.2-8.6
	h-4.1v17c0,2.2,0.6,3.6,1.9,4.3c0.9,0.5,2.7,0.8,5.3,0.9v1.9h-20.3v-1.9c4.3,0,6.5-1.4,6.5-4.1V48c0-2-0.7-3.3-2-4
	c-0.9-0.5-2.3-0.7-4.4-0.8v-1.9h37.1L-668.6,53.1z M-647.7,87.5c0,1.1-0.4,2-1.3,2.7c-0.8,0.7-1.8,1.1-3,1.1c-1.2,0-2.1-0.4-2.9-1.1
	c-0.8-0.7-1.2-1.6-1.2-2.6c0-1.1,0.4-2,1.2-2.7s1.8-1.1,2.9-1.1c1.2,0,2.2,0.4,3.1,1.1C-648.1,85.6-647.7,86.5-647.7,87.5z"/>
<circle class="st0" cx="-722.7" cy="68" r="90.3"/>
<g>
	<g>
		<path class="st1" d="M102.2,51.2h56.5v13.7h-38.6v23.8h33.7v13.5h-33.7v34.4h-18V51.2z"/>
	</g>
</g>
<g>
	<g>
		<path class="st1" d="M9.1,17.3h57.5V31H27v21h34.3v13.5H27v23.6h40.2v13.6H9.1V17.3z"/>
	</g>
</g>
<rect x="65.4" y="89.1" class="st1" width="55.5" height="13.6"/>
</svg>
