<?xml version="1.0" encoding="utf-8"?>
<!-- Generator: Adobe Illustrator 26.2.1, SVG Export Plug-In . SVG Version: 6.00 Build 0)  -->
<svg version="1.1" id="a" xmlns="http://www.w3.org/2000/svg" xmlns:xlink="http://www.w3.org/1999/xlink" x="0px" y="0px"
	 viewBox="0 0 92.2 70.3" style="enable-background:new 0 0 92.2 70.3;" xml:space="preserve">
<style type="text/css">
	.st0{fill:#F0E8CD;}
	.st1{fill:#9B533F;}
	.st2{fill:none;}
	.st3{font-family:'BigCaslon-Medium';}
	.st4{font-size:5px;}
	.st5{fill:none;stroke:#9B533F;stroke-width:0.5;stroke-miterlimit:10;}
	.st6{font-size:3px;}
	.st7{fill:#1D1D1B;}
</style>
<path class="st0" d="M-276.6,25.8c-8.8,0-16,7.2-16,16s7.2,16,16,16c8.8,0,16-7.2,16-16S-267.7,25.8-276.6,25.8z M-284.6,33.8h16
	c0.3,0,0.6,0.1,0.8,0.2l-8.8,10.3l-8.8-10.3C-285.1,33.9-284.8,33.8-284.6,33.8z M-285.7,47V34.9l5.9,6.8l-5.8,5.8
	C-285.6,47.4-285.7,47.2-285.7,47L-285.7,47z M-268.6,48h-16c-0.2,0-0.3,0-0.5-0.1l5.7-5.7l2.8,3.3l2.8-3.3l5.7,5.7
	C-268.2,48-268.4,48-268.6,48L-268.6,48z M-267.5,47c0,0.2,0,0.4-0.1,0.5l-5.8-5.8l5.9-6.8L-267.5,47L-267.5,47z"/>
<path class="st1" d="M-224.6,25.8c-8.8,0-16,7.2-16,16s7.2,16,16,16s16-7.2,16-16S-215.7,25.8-224.6,25.8z M-232.6,33.8h16
	c0.3,0,0.6,0.1,0.8,0.2l-8.8,10.3l-8.8-10.3C-233.1,33.9-232.8,33.8-232.6,33.8z M-233.7,47V34.9l5.9,6.8l-5.8,5.8
	C-233.6,47.4-233.7,47.2-233.7,47L-233.7,47z M-216.6,48h-16c-0.2,0-0.4,0-0.5-0.1l5.7-5.7l2.8,3.3l2.8-3.3l5.7,5.7
	C-216.2,48-216.4,48-216.6,48L-216.6,48z M-215.5,47c0,0.2,0,0.3-0.1,0.5l-5.8-5.8l5.9-6.8L-215.5,47L-215.5,47z"/>
<g id="a6LndS.tif">
	
		<image style="overflow:visible;" width="600" height="896" id="Layer_0" xlink:href="9FDB63332C3D881A.png"  transform="matrix(0.1288 0 0 0.1288 -87.4266 -6.4572)">
	</image>
</g>
<rect x="-80.7" y="-2.9" class="st2" width="22.9" height="16.1"/>
<rect x="14.7" y="44" class="st2" width="9.2" height="4.7"/>
<text transform="matrix(1 0 0 1 15.4445 47.6621)" class="st1 st3 st4">60%</text>
<path class="st5" d="M62.8,5.3H27.9c-0.9,0-1.7-0.7-1.7-1.7v0C26.3,2.8,27,2,27.9,2h34.9c0.9,0,1.7,0.7,1.7,1.7v0
	C64.5,4.6,63.7,5.3,62.8,5.3z"/>
<path class="st1" d="M53.3,5.3H27.9c-0.9,0-1.7-0.7-1.7-1.7v0C26.3,2.8,27,2,27.9,2h25.3c0.9,0,1.7,0.7,1.7,1.7v0
	C54.9,4.6,54.2,5.3,53.3,5.3z"/>
<path class="st5" d="M62.8,20.3H27.9c-0.9,0-1.7-0.7-1.7-1.7v0c0-0.9,0.7-1.7,1.7-1.7h34.9c0.9,0,1.7,0.7,1.7,1.7v0
	C64.5,19.6,63.7,20.3,62.8,20.3z"/>
<path class="st1" d="M51.5,20.3H27.9c-0.9,0-1.7-0.7-1.7-1.7v0c0-0.9,0.7-1.7,1.7-1.7h23.6c0.9,0,1.7,0.7,1.7,1.7v0
	C53.2,19.6,52.4,20.3,51.5,20.3z"/>
<path class="st5" d="M27.9,34.5h34.9c0.9,0,1.7-0.7,1.7-1.7v0c0-0.9-0.7-1.7-1.7-1.7H27.9c-0.9,0-1.7,0.7-1.7,1.7v0
	C26.3,33.7,27,34.5,27.9,34.5z"/>
<path class="st1" d="M35.3,34.5h27.5c0.9,0,1.7-0.7,1.7-1.7v0c0-0.9-0.7-1.7-1.7-1.7H35.3c-0.9,0-1.7,0.7-1.7,1.7v0
	C33.7,33.7,34.4,34.5,35.3,34.5z"/>
<path class="st5" d="M62.8,48.6H27.9c-0.9,0-1.7-0.7-1.7-1.7v0c0-0.9,0.7-1.7,1.7-1.7h34.9c0.9,0,1.7,0.7,1.7,1.7v0
	C64.5,47.9,63.7,48.6,62.8,48.6z"/>
<path class="st1" d="M49.1,48.6H27.9c-0.9,0-1.7-0.7-1.7-1.7v0c0-0.9,0.7-1.7,1.7-1.7h21.2c0.9,0,1.7,0.7,1.7,1.7v0
	C50.8,47.9,50,48.6,49.1,48.6z"/>
<path class="st5" d="M62.8,63.2H27.9c-0.9,0-1.7-0.7-1.7-1.7v0c0-0.9,0.7-1.7,1.7-1.7h34.9c0.9,0,1.7,0.7,1.7,1.7v0
	C64.5,62.5,63.7,63.2,62.8,63.2z"/>
<path class="st1" d="M47.1,63.2H27.9c-0.9,0-1.7-0.7-1.7-1.7v0c0-0.9,0.7-1.7,1.7-1.7h19.2c0.9,0,1.7,0.7,1.7,1.7v0
	C48.7,62.5,48,63.2,47.1,63.2z"/>
<rect x="14.7" y="1.8" class="st2" width="9.2" height="4.7"/>
<text transform="matrix(1 0 0 1 15.6945 5.4125)" class="st1 st3 st4">74%</text>
<rect x="14.7" y="15.6" class="st2" width="9.2" height="4.7"/>
<text transform="matrix(1 0 0 1 15.7843 19.1811)" class="st1 st3 st4">70%</text>
<rect x="14.7" y="30.4" class="st2" width="9.2" height="4.7"/>
<text transform="matrix(1 0 0 1 16.9093 34.0006)" class="st3 st4">21%</text>
<rect x="14.7" y="59.1" class="st2" width="9.2" height="4.7"/>
<text transform="matrix(1 0 0 1 16.2746 62.7589)" class="st1 st3 st4">58%</text>
<rect x="67.1" y="0.7" class="st2" width="9.2" height="4.7"/>
<text transform="matrix(1 0 0 1 67.0522 4.3123)" class="st3 st4">26%</text>
<rect x="67.1" y="15.6" class="st2" width="9.2" height="4.7"/>
<text transform="matrix(1 0 0 1 67.0522 19.1811)" class="st3 st4">30%</text>
<rect x="66.8" y="29.7" class="st2" width="9.2" height="4.7"/>
<text transform="matrix(1 0 0 1 66.8312 33.3002)" class="st1 st3 st4">79%</text>
<rect x="66.8" y="44" class="st2" width="9.2" height="4.7"/>
<text transform="matrix(1 0 0 1 66.8312 47.594)" class="st3 st4">40%</text>
<rect x="67.2" y="58.5" class="st2" width="9.2" height="4.7"/>
<text transform="matrix(1 0 0 1 67.1672 62.1306)" class="st3 st4">42%</text>
<rect y="8.5" class="st2" width="25" height="4.7"/>
<text transform="matrix(1 0 0 1 0.825 10.6415)" class="st1 st3 st6">EXTRAVERTED</text>
<rect x="66.8" y="7.7" class="st2" width="25" height="4.7"/>
<text transform="matrix(1 0 0 1 66.7837 9.8628)" class="st7 st3 st6">INTROVERTED</text>
<rect y="22" class="st2" width="25" height="4.7"/>
<text transform="matrix(1 0 0 1 7.7371 24.19)" class="st1 st3 st6">INTUITIVE</text>
<rect x="66.8" y="22.7" class="st2" width="25" height="4.7"/>
<text transform="matrix(1 0 0 1 66.7837 24.844)" class="st7 st3 st6">OBSERVANT</text>
<rect y="36.3" class="st2" width="25" height="4.7"/>
<text transform="matrix(1 0 0 1 7.6794 38.4688)" class="st7 st3 st6">THINKING</text>
<rect x="66.8" y="36.1" class="st2" width="25" height="4.7"/>
<text transform="matrix(1 0 0 1 66.7837 38.2816)" class="st1 st3 st6">FEELING</text>
<rect y="51.7" class="st2" width="25" height="4.7"/>
<text transform="matrix(1 0 0 1 9.9832 53.844)" class="st1 st3 st6">JUDGING</text>
<rect x="66.8" y="51.2" class="st2" width="25" height="4.7"/>
<text transform="matrix(1 0 0 1 66.7837 53.4053)" class="st7 st3 st6">PROSPECTING</text>
<rect y="65.6" class="st2" width="25" height="4.7"/>
<text transform="matrix(1 0 0 1 7.3074 67.7544)" class="st1 st3 st6">ASSERTIVE</text>
<rect x="67.2" y="64.4" class="st2" width="25" height="4.7"/>
<text transform="matrix(1 0 0 1 67.1672 66.5473)" class="st7 st3 st6">TURBULENT</text>
</svg>
