<?xml version="1.0" encoding="UTF-8"?><svg id="a" xmlns="http://www.w3.org/2000/svg" viewBox="0 0 32 32"><defs><style>.b{fill:#fff;}</style></defs><path class="b" d="M16,0C7.16,0,0,7.16,0,16S7.16,32,16,32s16-7.16,16-16S24.84,0,16,0ZM8,8H24c.29,0,.56,.06,.82,.18l-8.82,10.29L7.18,8.18c.26-.12,.54-.18,.82-.18Zm-1.1,13.2V9.07l5.87,6.84-5.8,5.8c-.05-.17-.07-.34-.07-.52h0Zm17.1,1.02H8c-.18,0-.35-.02-.52-.07l5.69-5.69,2.83,3.3,2.83-3.3,5.69,5.69c-.17,.05-.34,.07-.52,.07h0Zm1.07-1c0,.18-.02,.35-.07,.52l-5.8-5.8,5.86-6.84v12.13h0Z"/></svg>