<?xml version="1.0" encoding="utf-8"?>
<!-- Generator: Adobe Illustrator 26.2.1, SVG Export Plug-In . SVG Version: 6.00 Build 0)  -->
<svg version="1.1" id="a" xmlns="http://www.w3.org/2000/svg" xmlns:xlink="http://www.w3.org/1999/xlink" x="0px" y="0px"
	 viewBox="0 0 92.2 70.3" style="enable-background:new 0 0 92.2 70.3;" xml:space="preserve">
<style type="text/css">
	.st0{fill:#F0E8CD;}
	.st1{fill:#9B533F;}
	.st2{fill:none;}
	.st3{fill:#201ABD;}
	.st4{fill:none;stroke:#000000;stroke-width:0.5;stroke-miterlimit:10;}
	.st5{fill:#201ABD;stroke:#201ABD;stroke-width:0.5;stroke-miterlimit:10;}
</style>
<path class="st0" d="M-276.6,25.8c-8.8,0-16,7.2-16,16s7.2,16,16,16s16-7.2,16-16S-267.7,25.8-276.6,25.8z M-284.6,33.8h16
	c0.3,0,0.6,0.1,0.8,0.2l-8.8,10.3l-8.8-10.3C-285.1,33.9-284.8,33.8-284.6,33.8z M-285.7,47V34.9l5.9,6.8l-5.8,5.8
	C-285.6,47.4-285.7,47.2-285.7,47L-285.7,47z M-268.6,48h-16c-0.2,0-0.3,0-0.5-0.1l5.7-5.7l2.8,3.3l2.8-3.3l5.7,5.7
	C-268.2,48-268.4,48-268.6,48L-268.6,48z M-267.5,47c0,0.2,0,0.4-0.1,0.5l-5.8-5.8l5.9-6.8V47L-267.5,47z"/>
<path class="st1" d="M-224.6,25.8c-8.8,0-16,7.2-16,16s7.2,16,16,16s16-7.2,16-16S-215.7,25.8-224.6,25.8z M-232.6,33.8h16
	c0.3,0,0.6,0.1,0.8,0.2l-8.8,10.3l-8.8-10.3C-233.1,33.9-232.8,33.8-232.6,33.8z M-233.7,47V34.9l5.9,6.8l-5.8,5.8
	C-233.6,47.4-233.7,47.2-233.7,47L-233.7,47z M-216.6,48h-16c-0.2,0-0.4,0-0.5-0.1l5.7-5.7l2.8,3.3l2.8-3.3l5.7,5.7
	C-216.2,48-216.4,48-216.6,48L-216.6,48z M-215.5,47c0,0.2,0,0.3-0.1,0.5l-5.8-5.8l5.9-6.8L-215.5,47L-215.5,47z"/>
<g id="a6LndS.tif">
</g>
<rect x="-80.7" y="-2.9" class="st2" width="22.9" height="16.1"/>
<rect x="14.7" y="44" class="st2" width="9.2" height="4.7"/>
<g>
	<g>
		<path class="st3" d="M14.3,46c0-0.6,0.2-1.1,0.5-1.5c0.4-0.4,0.9-0.5,1.6-0.5h0.1v0.6h-0.1c-0.4,0-0.8,0.1-1,0.3
			C15.2,45.1,15,45.5,15,46l0,0.1c0,0.4,0.1,0.6,0.2,0.8c0.1,0.1,0.2,0.2,0.4,0.2c0.2,0,0.3-0.1,0.4-0.2c0.1-0.1,0.1-0.3,0.1-0.5
			c0-0.2,0-0.4-0.1-0.5s-0.2-0.2-0.4-0.2c-0.2,0-0.3,0.1-0.4,0.2c-0.1,0.1-0.2,0.3-0.2,0.5h-0.2c0-0.3,0.1-0.6,0.3-0.9
			s0.4-0.3,0.7-0.3c0.3,0,0.6,0.1,0.8,0.3s0.3,0.5,0.3,0.9c0,0.4-0.1,0.7-0.3,0.9c-0.2,0.2-0.5,0.3-0.9,0.3c-0.4,0-0.7-0.1-0.9-0.4
			C14.5,47.1,14.3,46.7,14.3,46L14.3,46z"/>
		<path class="st3" d="M17.2,45.3c0-0.4,0.1-0.7,0.3-0.9S18,44,18.4,44c0.4,0,0.7,0.1,0.9,0.4c0.2,0.2,0.3,0.6,0.3,0.9v1.1
			c0,0.4-0.1,0.7-0.3,0.9c-0.2,0.2-0.5,0.4-0.9,0.4c-0.4,0-0.7-0.1-0.9-0.4c-0.2-0.2-0.3-0.6-0.3-0.9V45.3z M18.1,46.9
			c0.1,0.1,0.2,0.2,0.4,0.2c0.2,0,0.3-0.1,0.4-0.2s0.1-0.3,0.1-0.5v-1.2c0-0.2,0-0.4-0.1-0.5c-0.1-0.1-0.2-0.2-0.4-0.2
			c-0.2,0-0.3,0.1-0.4,0.2C18,44.8,18,45,18,45.2v1.2C18,46.6,18,46.8,18.1,46.9z"/>
		<path class="st3" d="M20,44.8c0-0.2,0.1-0.4,0.2-0.6c0.2-0.1,0.4-0.2,0.6-0.2c0.3,0,0.5,0.1,0.6,0.2c0.2,0.1,0.2,0.3,0.2,0.6v0.4
			c0,0.2-0.1,0.4-0.2,0.6S21.1,46,20.9,46c-0.3,0-0.5-0.1-0.6-0.2c-0.2-0.1-0.2-0.3-0.2-0.6V44.8z M20.6,45.4c0,0.1,0.1,0.1,0.2,0.1
			s0.2,0,0.2-0.1c0-0.1,0.1-0.1,0.1-0.2v-0.4c0-0.1,0-0.2-0.1-0.2c0-0.1-0.1-0.1-0.2-0.1s-0.2,0-0.2,0.1c0,0.1-0.1,0.1-0.1,0.2v0.4
			C20.6,45.3,20.6,45.4,20.6,45.4z M21.4,47.7l-0.4-0.3l2.1-3.5l0.4,0.2L21.4,47.7z M22.6,46.5c0-0.2,0.1-0.4,0.2-0.6
			c0.2-0.1,0.4-0.2,0.6-0.2c0.3,0,0.5,0.1,0.6,0.2s0.2,0.3,0.2,0.6v0.4c0,0.2-0.1,0.4-0.2,0.6s-0.4,0.2-0.6,0.2
			c-0.3,0-0.5-0.1-0.6-0.2c-0.2-0.1-0.2-0.3-0.2-0.6V46.5z M23.3,47.1c0,0.1,0.1,0.1,0.2,0.1s0.2,0,0.2-0.1c0-0.1,0.1-0.1,0.1-0.2
			v-0.4c0-0.1,0-0.2-0.1-0.2c0-0.1-0.1-0.1-0.2-0.1s-0.2,0-0.2,0.1c0,0.1-0.1,0.1-0.1,0.2v0.4C23.2,47,23.2,47.1,23.3,47.1z"/>
	</g>
</g>
<path class="st4" d="M62.8,5.3H27.9c-0.9,0-1.7-0.7-1.7-1.7l0,0C26.3,2.8,27,2,27.9,2h34.9c0.9,0,1.7,0.7,1.7,1.7l0,0
	C64.5,4.6,63.7,5.3,62.8,5.3z"/>
<path class="st5" d="M53.3,5.3H27.9c-0.9,0-1.7-0.7-1.7-1.7l0,0C26.3,2.8,27,2,27.9,2h25.3c0.9,0,1.7,0.7,1.7,1.7l0,0
	C54.9,4.6,54.2,5.3,53.3,5.3z"/>
<path class="st4" d="M62.8,20.3H27.9c-0.9,0-1.7-0.7-1.7-1.7l0,0c0-0.9,0.7-1.7,1.7-1.7h34.9c0.9,0,1.7,0.7,1.7,1.7l0,0
	C64.5,19.6,63.7,20.3,62.8,20.3z"/>
<path class="st5" d="M51.5,20.3H27.9c-0.9,0-1.7-0.7-1.7-1.7l0,0c0-0.9,0.7-1.7,1.7-1.7h23.6c0.9,0,1.7,0.7,1.7,1.7l0,0
	C53.2,19.6,52.4,20.3,51.5,20.3z"/>
<path class="st4" d="M27.9,34.5h34.9c0.9,0,1.7-0.7,1.7-1.7l0,0c0-0.9-0.7-1.7-1.7-1.7H27.9c-0.9,0-1.7,0.7-1.7,1.7l0,0
	C26.3,33.7,27,34.5,27.9,34.5z"/>
<path class="st5" d="M35.3,34.5h27.5c0.9,0,1.7-0.7,1.7-1.7l0,0c0-0.9-0.7-1.7-1.7-1.7H35.3c-0.9,0-1.7,0.7-1.7,1.7l0,0
	C33.7,33.7,34.4,34.5,35.3,34.5z"/>
<path class="st4" d="M62.8,48.6H27.9c-0.9,0-1.7-0.7-1.7-1.7l0,0c0-0.9,0.7-1.7,1.7-1.7h34.9c0.9,0,1.7,0.7,1.7,1.7l0,0
	C64.5,47.9,63.7,48.6,62.8,48.6z"/>
<path class="st5" d="M49.1,48.6H27.9c-0.9,0-1.7-0.7-1.7-1.7l0,0c0-0.9,0.7-1.7,1.7-1.7h21.2c0.9,0,1.7,0.7,1.7,1.7l0,0
	C50.8,47.9,50,48.6,49.1,48.6z"/>
<path class="st4" d="M62.8,63.2H27.9c-0.9,0-1.7-0.7-1.7-1.7l0,0c0-0.9,0.7-1.7,1.7-1.7h34.9c0.9,0,1.7,0.7,1.7,1.7l0,0
	C64.5,62.5,63.7,63.2,62.8,63.2z"/>
<path class="st5" d="M47.1,63.2H27.9c-0.9,0-1.7-0.7-1.7-1.7l0,0c0-0.9,0.7-1.7,1.7-1.7h19.2c0.9,0,1.7,0.7,1.7,1.7l0,0
	C48.7,62.5,48,63.2,47.1,63.2z"/>
<rect x="14.7" y="1.8" class="st2" width="9.2" height="4.7"/>
<g>
	<g>
		<path class="st3" d="M15.9,2.6h-1.7V2h2.5v0.5l-1.3,3.1h-0.8L15.9,2.6z"/>
		<path class="st3" d="M18.6,4.6l0-0.1V3h0l-0.8,1.2h1l0.2,0h0.8v0.6H17V4.3L18.6,2h0.7v3.6h-0.7V4.6z"/>
		<path class="st3" d="M19.9,2.7c0-0.2,0.1-0.4,0.2-0.6c0.2-0.1,0.4-0.2,0.6-0.2c0.3,0,0.5,0.1,0.6,0.2c0.2,0.1,0.2,0.3,0.2,0.6v0.4
			c0,0.2-0.1,0.4-0.2,0.6S21,3.9,20.7,3.9c-0.3,0-0.5-0.1-0.6-0.2c-0.2-0.1-0.2-0.3-0.2-0.6V2.7z M20.5,3.3c0,0.1,0.1,0.1,0.2,0.1
			s0.2,0,0.2-0.1C21,3.3,21,3.2,21,3.1V2.7c0-0.1,0-0.2-0.1-0.2c0-0.1-0.1-0.1-0.2-0.1s-0.2,0-0.2,0.1c0,0.1-0.1,0.1-0.1,0.2v0.4
			C20.5,3.2,20.5,3.3,20.5,3.3z M21.2,5.6l-0.4-0.3l2.1-3.5l0.4,0.2L21.2,5.6z M22.5,4.4c0-0.2,0.1-0.4,0.2-0.6
			c0.2-0.1,0.4-0.2,0.6-0.2c0.3,0,0.5,0.1,0.6,0.2s0.2,0.3,0.2,0.6v0.4c0,0.2-0.1,0.4-0.2,0.6s-0.4,0.2-0.6,0.2
			c-0.3,0-0.5-0.1-0.6-0.2c-0.2-0.1-0.2-0.3-0.2-0.6V4.4z M23.2,5c0,0.1,0.1,0.1,0.2,0.1s0.2,0,0.2-0.1c0-0.1,0.1-0.1,0.1-0.2V4.4
			c0-0.1,0-0.2-0.1-0.2c0-0.1-0.1-0.1-0.2-0.1s-0.2,0-0.2,0.1c0,0.1-0.1,0.1-0.1,0.2v0.4C23.1,4.9,23.1,5,23.2,5z"/>
	</g>
</g>
<rect x="14.7" y="15.6" class="st2" width="9.2" height="4.7"/>
<g>
	<g>
		<g>
			<path class="st3" d="M16.1,16.8h-1.7v-0.6h2.5v0.5l-1.3,3.1h-0.8L16.1,16.8z"/>
			<path class="st3" d="M17.2,17.4c0-0.4,0.1-0.7,0.3-0.9s0.5-0.4,0.9-0.4c0.4,0,0.7,0.1,0.9,0.4c0.2,0.2,0.3,0.6,0.3,0.9v1.1
				c0,0.4-0.1,0.7-0.3,0.9c-0.2,0.2-0.5,0.4-0.9,0.4c-0.4,0-0.7-0.1-0.9-0.4c-0.2-0.2-0.3-0.6-0.3-0.9V17.4z M18.1,19.1
				c0.1,0.1,0.2,0.2,0.4,0.2c0.2,0,0.3-0.1,0.4-0.2s0.1-0.3,0.1-0.5v-1.2c0-0.2,0-0.4-0.1-0.5c-0.1-0.1-0.2-0.2-0.4-0.2
				c-0.2,0-0.3,0.1-0.4,0.2C18,17,18,17.2,18,17.4v1.2C18,18.8,18,19,18.1,19.1z"/>
			<path class="st3" d="M20,16.9c0-0.2,0.1-0.4,0.2-0.6c0.2-0.1,0.4-0.2,0.6-0.2c0.3,0,0.5,0.1,0.6,0.2c0.2,0.1,0.2,0.3,0.2,0.6v0.4
				c0,0.2-0.1,0.4-0.2,0.6s-0.4,0.2-0.6,0.2c-0.3,0-0.5-0.1-0.6-0.2c-0.2-0.1-0.2-0.3-0.2-0.6V16.9z M20.6,17.6
				c0,0.1,0.1,0.1,0.2,0.1s0.2,0,0.2-0.1c0-0.1,0.1-0.1,0.1-0.2v-0.4c0-0.1,0-0.2-0.1-0.2c0-0.1-0.1-0.1-0.2-0.1s-0.2,0-0.2,0.1
				c0,0.1-0.1,0.1-0.1,0.2v0.4C20.6,17.5,20.6,17.5,20.6,17.6z M21.4,19.9l-0.4-0.3l2.1-3.5l0.4,0.2L21.4,19.9z M22.6,18.6
				c0-0.2,0.1-0.4,0.2-0.6c0.2-0.1,0.4-0.2,0.6-0.2c0.3,0,0.5,0.1,0.6,0.2s0.2,0.3,0.2,0.6v0.4c0,0.2-0.1,0.4-0.2,0.6
				s-0.4,0.2-0.6,0.2c-0.3,0-0.5-0.1-0.6-0.2c-0.2-0.1-0.2-0.3-0.2-0.6V18.6z M23.3,19.3c0,0.1,0.1,0.1,0.2,0.1s0.2,0,0.2-0.1
				c0-0.1,0.1-0.1,0.1-0.2v-0.4c0-0.1,0-0.2-0.1-0.2c0-0.1-0.1-0.1-0.2-0.1s-0.2,0-0.2,0.1c0,0.1-0.1,0.1-0.1,0.2v0.4
				C23.2,19.2,23.2,19.2,23.3,19.3z"/>
		</g>
	</g>
</g>
<rect x="14.7" y="30.4" class="st2" width="9.2" height="4.7"/>
<g>
	<g>
		<g>
			<path d="M14.4,33.5l1.2-1.4c0.1-0.2,0.2-0.3,0.3-0.4c0.1-0.1,0.1-0.2,0.1-0.4c0-0.1,0-0.2-0.1-0.3s-0.2-0.1-0.3-0.1
				c-0.1,0-0.3,0-0.3,0.1s-0.1,0.2-0.1,0.4v0.1h-0.8v-0.1c0-0.3,0.1-0.6,0.3-0.8s0.5-0.3,0.9-0.3c0.4,0,0.7,0.1,0.9,0.3
				c0.2,0.2,0.3,0.4,0.3,0.7c0,0.2-0.1,0.4-0.2,0.6c-0.1,0.2-0.3,0.4-0.5,0.6l-0.8,0.9h1.5V34h-2.5V33.5z"/>
			<path d="M18.2,31.2l-0.8,0.3v-0.6l1.2-0.5H19V34h-0.8V31.2z"/>
			<path d="M20,31.2c0-0.2,0.1-0.4,0.2-0.6c0.2-0.1,0.4-0.2,0.6-0.2c0.3,0,0.5,0.1,0.6,0.2c0.2,0.1,0.2,0.3,0.2,0.6v0.4
				c0,0.2-0.1,0.4-0.2,0.6s-0.4,0.2-0.6,0.2c-0.3,0-0.5-0.1-0.6-0.2C20.1,32,20,31.8,20,31.6V31.2z M20.6,31.8
				c0,0.1,0.1,0.1,0.2,0.1s0.2,0,0.2-0.1c0-0.1,0.1-0.1,0.1-0.2v-0.4c0-0.1,0-0.2-0.1-0.2c0-0.1-0.1-0.1-0.2-0.1s-0.2,0-0.2,0.1
				c0,0.1-0.1,0.1-0.1,0.2v0.4C20.6,31.7,20.6,31.8,20.6,31.8z M21.4,34.1l-0.4-0.3l2.1-3.5l0.4,0.2L21.4,34.1z M22.6,32.9
				c0-0.2,0.1-0.4,0.2-0.6c0.2-0.1,0.4-0.2,0.6-0.2c0.3,0,0.5,0.1,0.6,0.2s0.2,0.3,0.2,0.6v0.4c0,0.2-0.1,0.4-0.2,0.6
				s-0.4,0.2-0.6,0.2c-0.3,0-0.5-0.1-0.6-0.2c-0.2-0.1-0.2-0.3-0.2-0.6V32.9z M23.3,33.5c0,0.1,0.1,0.1,0.2,0.1s0.2,0,0.2-0.1
				c0-0.1,0.1-0.1,0.1-0.2v-0.4c0-0.1,0-0.2-0.1-0.2c0-0.1-0.1-0.1-0.2-0.1s-0.2,0-0.2,0.1c0,0.1-0.1,0.1-0.1,0.2v0.4
				C23.2,33.4,23.2,33.5,23.3,33.5z"/>
		</g>
	</g>
</g>
<rect x="14.7" y="59.1" class="st2" width="9.2" height="4.7"/>
<g>
	<g>
		<path class="st3" d="M14.3,61.9h0.8v0c0,0.1,0,0.3,0.1,0.3s0.2,0.1,0.4,0.1c0.2,0,0.3-0.1,0.4-0.2s0.1-0.3,0.1-0.5
			c0-0.2,0-0.4-0.1-0.5c-0.1-0.1-0.2-0.2-0.4-0.2c-0.1,0-0.2,0-0.3,0.1c-0.1,0-0.2,0.1-0.2,0.2l-0.6-0.3l0.2-1.8h2v0.6l-1.4,0
			l-0.1,0.8c0.1,0,0.1-0.1,0.2-0.1s0.2,0,0.3,0c0.3,0,0.6,0.1,0.8,0.3s0.3,0.5,0.3,0.9c0,0.4-0.1,0.7-0.3,0.9s-0.5,0.3-0.9,0.3
			c-0.4,0-0.7-0.1-0.9-0.3S14.3,62.2,14.3,61.9L14.3,61.9z"/>
		<path class="st3" d="M17.4,61.3c0.1-0.1,0.3-0.3,0.5-0.3v0c-0.2-0.1-0.3-0.2-0.4-0.3c-0.1-0.1-0.2-0.3-0.2-0.5
			c0-0.3,0.1-0.5,0.3-0.7c0.2-0.2,0.5-0.3,0.8-0.3s0.6,0.1,0.8,0.3c0.2,0.2,0.3,0.4,0.3,0.7c0,0.2,0,0.4-0.1,0.5s-0.2,0.2-0.4,0.3v0
			c0.2,0.1,0.3,0.2,0.5,0.3c0.1,0.2,0.2,0.3,0.2,0.6c0,0.3-0.1,0.6-0.3,0.8c-0.2,0.2-0.5,0.3-0.9,0.3s-0.7-0.1-0.9-0.3
			c-0.2-0.2-0.3-0.4-0.3-0.8C17.2,61.7,17.2,61.5,17.4,61.3z M18,62.2c0.1,0.1,0.2,0.1,0.4,0.1s0.3,0,0.4-0.1
			c0.1-0.1,0.1-0.2,0.1-0.4c0-0.2,0-0.3-0.1-0.4s-0.2-0.2-0.4-0.2s-0.3,0-0.4,0.2s-0.1,0.2-0.1,0.4C17.9,62,18,62.1,18,62.2z
			 M18.1,60.6c0.1,0.1,0.2,0.1,0.3,0.1s0.3,0,0.3-0.1s0.1-0.2,0.1-0.4c0-0.1,0-0.3-0.1-0.4s-0.2-0.1-0.3-0.1s-0.2,0-0.3,0.1
			S18,60.1,18,60.3C18,60.4,18,60.5,18.1,60.6z"/>
		<path class="st3" d="M20,60c0-0.2,0.1-0.4,0.2-0.6c0.2-0.1,0.4-0.2,0.6-0.2c0.3,0,0.5,0.1,0.6,0.2s0.2,0.3,0.2,0.6v0.4
			c0,0.2-0.1,0.4-0.2,0.6s-0.4,0.2-0.6,0.2c-0.3,0-0.5-0.1-0.6-0.2c-0.2-0.1-0.2-0.3-0.2-0.6V60z M20.6,60.7c0,0.1,0.1,0.1,0.2,0.1
			s0.2,0,0.2-0.1c0-0.1,0.1-0.1,0.1-0.2V60c0-0.1,0-0.2-0.1-0.2c0-0.1-0.1-0.1-0.2-0.1s-0.2,0-0.2,0.1c0,0.1-0.1,0.1-0.1,0.2v0.4
			C20.6,60.6,20.6,60.6,20.6,60.7z M21.4,63l-0.4-0.3l2.1-3.5l0.4,0.2L21.4,63z M22.6,61.7c0-0.2,0.1-0.4,0.2-0.6
			c0.2-0.1,0.4-0.2,0.6-0.2c0.3,0,0.5,0.1,0.6,0.2c0.2,0.1,0.2,0.3,0.2,0.6v0.4c0,0.2-0.1,0.4-0.2,0.6s-0.4,0.2-0.6,0.2
			c-0.3,0-0.5-0.1-0.6-0.2c-0.2-0.1-0.2-0.3-0.2-0.6V61.7z M23.3,62.4c0,0.1,0.1,0.1,0.2,0.1s0.2,0,0.2-0.1c0-0.1,0.1-0.1,0.1-0.2
			v-0.4c0-0.1,0-0.2-0.1-0.2c0-0.1-0.1-0.1-0.2-0.1s-0.2,0-0.2,0.1c0,0.1-0.1,0.1-0.1,0.2v0.4C23.2,62.2,23.2,62.3,23.3,62.4z"/>
	</g>
</g>
<rect x="67.1" y="0.7" class="st2" width="9.2" height="4.7"/>
<g>
	<g>
		<g>
			<path d="M67.2,3.9l1.2-1.4c0.1-0.2,0.2-0.3,0.3-0.4c0.1-0.1,0.1-0.3,0.1-0.4c0-0.1,0-0.2-0.1-0.3c-0.1-0.1-0.2-0.1-0.3-0.1
				c-0.1,0-0.3,0-0.3,0.1C68,1.5,68,1.6,68,1.8v0.1h-0.8V1.8c0-0.3,0.1-0.6,0.3-0.8c0.2-0.2,0.5-0.3,0.9-0.3c0.4,0,0.7,0.1,0.9,0.3
				c0.2,0.2,0.3,0.4,0.3,0.7c0,0.2-0.1,0.4-0.2,0.6c-0.1,0.2-0.3,0.4-0.5,0.6l-0.8,0.9h1.5v0.6h-2.5V3.9z"/>
			<path d="M70,2.7c0-0.6,0.2-1.1,0.5-1.5s0.9-0.5,1.6-0.5h0.1v0.6h-0.1c-0.4,0-0.8,0.1-1,0.3s-0.4,0.6-0.4,1.1l0,0.1
				c0,0.4,0.1,0.6,0.2,0.8c0.1,0.1,0.2,0.2,0.4,0.2c0.2,0,0.3-0.1,0.4-0.2c0.1-0.1,0.1-0.3,0.1-0.5c0-0.2,0-0.4-0.1-0.5
				c-0.1-0.1-0.2-0.2-0.4-0.2c-0.2,0-0.3,0.1-0.4,0.2s-0.2,0.3-0.2,0.5h-0.2c0-0.3,0.1-0.6,0.3-0.9c0.2-0.2,0.4-0.3,0.7-0.3
				c0.3,0,0.6,0.1,0.8,0.3c0.2,0.2,0.3,0.5,0.3,0.9c0,0.4-0.1,0.7-0.3,0.9c-0.2,0.2-0.5,0.3-0.9,0.3c-0.4,0-0.7-0.1-0.9-0.4
				C70.1,3.8,70,3.4,70,2.7L70,2.7z"/>
			<path d="M72.8,1.5c0-0.2,0.1-0.4,0.2-0.6c0.2-0.1,0.4-0.2,0.6-0.2c0.3,0,0.5,0.1,0.6,0.2c0.2,0.1,0.2,0.3,0.2,0.6v0.4
				c0,0.2-0.1,0.4-0.2,0.6c-0.2,0.1-0.4,0.2-0.6,0.2c-0.3,0-0.5-0.1-0.6-0.2c-0.2-0.1-0.2-0.3-0.2-0.6V1.5z M73.5,2.1
				c0,0.1,0.1,0.1,0.2,0.1c0.1,0,0.2,0,0.2-0.1C74,2.1,74,2,74,1.9V1.5c0-0.1,0-0.2-0.1-0.2c0-0.1-0.1-0.1-0.2-0.1
				c-0.1,0-0.2,0-0.2,0.1s-0.1,0.1-0.1,0.2v0.4C73.4,2,73.5,2.1,73.5,2.1z M74.2,4.4l-0.4-0.3l2.1-3.5l0.4,0.2L74.2,4.4z M75.5,3.2
				c0-0.2,0.1-0.4,0.2-0.6c0.2-0.1,0.4-0.2,0.6-0.2c0.3,0,0.5,0.1,0.6,0.2c0.2,0.1,0.2,0.3,0.2,0.6v0.4c0,0.2-0.1,0.4-0.2,0.6
				c-0.2,0.1-0.4,0.2-0.6,0.2c-0.3,0-0.5-0.1-0.6-0.2c-0.2-0.1-0.2-0.3-0.2-0.6V3.2z M76.1,3.8c0,0.1,0.1,0.1,0.2,0.1
				c0.1,0,0.2,0,0.2-0.1c0-0.1,0.1-0.1,0.1-0.2V3.2c0-0.1,0-0.2-0.1-0.2c0-0.1-0.1-0.1-0.2-0.1c-0.1,0-0.2,0-0.2,0.1
				c0,0.1-0.1,0.1-0.1,0.2v0.4C76.1,3.7,76.1,3.8,76.1,3.8z"/>
		</g>
	</g>
</g>
<rect x="67.1" y="15.6" class="st2" width="9.2" height="4.7"/>
<g>
	<g>
		<g>
			<path d="M67.2,18.1h0.7v0c0,0.2,0,0.3,0.1,0.4c0.1,0.1,0.2,0.1,0.4,0.1c0.2,0,0.3,0,0.4-0.1c0.1-0.1,0.1-0.2,0.1-0.4
				c0-0.2,0-0.3-0.1-0.4c-0.1-0.1-0.2-0.1-0.4-0.1H68v-0.5h0.3c0.2,0,0.3,0,0.4-0.1c0.1-0.1,0.1-0.2,0.1-0.4c0-0.2,0-0.3-0.1-0.3
				c-0.1-0.1-0.2-0.1-0.3-0.1c-0.1,0-0.2,0-0.3,0.1C68,16.3,68,16.4,68,16.6v0h-0.7v0c0-0.3,0.1-0.5,0.3-0.7
				c0.2-0.2,0.5-0.3,0.9-0.3c0.4,0,0.7,0.1,0.9,0.3c0.2,0.2,0.3,0.4,0.3,0.6c0,0.2,0,0.4-0.1,0.5c-0.1,0.1-0.2,0.3-0.4,0.3v0
				c0.2,0,0.4,0.1,0.5,0.3c0.1,0.2,0.2,0.3,0.2,0.6c0,0.3-0.1,0.6-0.3,0.8c-0.2,0.2-0.5,0.3-1,0.3c-0.4,0-0.7-0.1-0.9-0.3
				S67.2,18.5,67.2,18.1L67.2,18.1z"/>
			<path d="M70,16.9c0-0.4,0.1-0.7,0.3-0.9c0.2-0.2,0.5-0.4,0.9-0.4c0.4,0,0.7,0.1,0.9,0.4c0.2,0.2,0.3,0.6,0.3,0.9v1.1
				c0,0.4-0.1,0.7-0.3,0.9s-0.5,0.4-0.9,0.4c-0.4,0-0.7-0.1-0.9-0.4c-0.2-0.2-0.3-0.6-0.3-0.9V16.9z M70.9,18.5
				c0.1,0.1,0.2,0.2,0.4,0.2c0.2,0,0.3-0.1,0.4-0.2c0.1-0.1,0.1-0.3,0.1-0.5v-1.2c0-0.2,0-0.4-0.1-0.5c-0.1-0.1-0.2-0.2-0.4-0.2
				c-0.2,0-0.3,0.1-0.4,0.2c-0.1,0.1-0.1,0.3-0.1,0.5V18C70.8,18.2,70.9,18.4,70.9,18.5z"/>
			<path d="M72.8,16.3c0-0.2,0.1-0.4,0.2-0.6c0.2-0.1,0.4-0.2,0.6-0.2c0.3,0,0.5,0.1,0.6,0.2c0.2,0.1,0.2,0.3,0.2,0.6v0.4
				c0,0.2-0.1,0.4-0.2,0.6c-0.2,0.1-0.4,0.2-0.6,0.2c-0.3,0-0.5-0.1-0.6-0.2c-0.2-0.1-0.2-0.3-0.2-0.6V16.3z M73.5,17
				c0,0.1,0.1,0.1,0.2,0.1c0.1,0,0.2,0,0.2-0.1c0-0.1,0.1-0.1,0.1-0.2v-0.4c0-0.1,0-0.2-0.1-0.2c0-0.1-0.1-0.1-0.2-0.1
				c-0.1,0-0.2,0-0.2,0.1s-0.1,0.1-0.1,0.2v0.4C73.4,16.9,73.5,17,73.5,17z M74.2,19.3L73.8,19l2.1-3.5l0.4,0.2L74.2,19.3z M75.5,18
				c0-0.2,0.1-0.4,0.2-0.6c0.2-0.1,0.4-0.2,0.6-0.2c0.3,0,0.5,0.1,0.6,0.2c0.2,0.1,0.2,0.3,0.2,0.6v0.4c0,0.2-0.1,0.4-0.2,0.6
				c-0.2,0.1-0.4,0.2-0.6,0.2c-0.3,0-0.5-0.1-0.6-0.2c-0.2-0.1-0.2-0.3-0.2-0.6V18z M76.1,18.7c0,0.1,0.1,0.1,0.2,0.1
				c0.1,0,0.2,0,0.2-0.1c0-0.1,0.1-0.1,0.1-0.2V18c0-0.1,0-0.2-0.1-0.2c0-0.1-0.1-0.1-0.2-0.1c-0.1,0-0.2,0-0.2,0.1
				c0,0.1-0.1,0.1-0.1,0.2v0.4C76.1,18.6,76.1,18.6,76.1,18.7z"/>
		</g>
	</g>
</g>
<rect x="66.8" y="29.7" class="st2" width="9.2" height="4.7"/>
<g>
	<g>
		<g>
			<path class="st3" d="M68.7,30.4h-1.7v-0.6h2.5v0.5l-1.3,3.1h-0.8L68.7,30.4z"/>
			<path class="st3" d="M70.1,30c0.2-0.2,0.5-0.3,0.9-0.3c0.4,0,0.7,0.1,0.9,0.4c0.3,0.2,0.4,0.6,0.4,1.2v0.1c0,0.6-0.2,1.1-0.5,1.4
				c-0.4,0.4-0.9,0.5-1.6,0.6h-0.1v-0.6h0.1c0.4,0,0.8-0.1,1-0.3c0.2-0.2,0.4-0.6,0.4-1.1l0-0.1c0-0.4,0-0.6-0.1-0.8
				c-0.1-0.1-0.2-0.2-0.4-0.2c-0.2,0-0.3,0.1-0.4,0.2c-0.1,0.1-0.1,0.3-0.1,0.5c0,0.2,0,0.4,0.1,0.5c0.1,0.1,0.2,0.2,0.4,0.2
				c0.2,0,0.3-0.1,0.4-0.2s0.2-0.3,0.2-0.5h0.2c0,0.3-0.1,0.6-0.2,0.8s-0.4,0.4-0.7,0.4c-0.3,0-0.6-0.1-0.8-0.3
				c-0.2-0.2-0.3-0.5-0.3-0.9C69.8,30.5,69.9,30.2,70.1,30z"/>
			<path class="st3" d="M72.6,30.5c0-0.2,0.1-0.4,0.2-0.6c0.2-0.1,0.4-0.2,0.6-0.2c0.3,0,0.5,0.1,0.6,0.2c0.2,0.1,0.2,0.3,0.2,0.6
				v0.4c0,0.2-0.1,0.4-0.2,0.6c-0.2,0.1-0.4,0.2-0.6,0.2c-0.3,0-0.5-0.1-0.6-0.2c-0.2-0.1-0.2-0.3-0.2-0.6V30.5z M73.3,31.1
				c0,0.1,0.1,0.1,0.2,0.1c0.1,0,0.2,0,0.2-0.1c0-0.1,0.1-0.1,0.1-0.2v-0.4c0-0.1,0-0.2-0.1-0.2c0-0.1-0.1-0.1-0.2-0.1
				c-0.1,0-0.2,0-0.2,0.1s-0.1,0.1-0.1,0.2v0.4C73.2,31,73.2,31.1,73.3,31.1z M74,33.4l-0.4-0.3l2.1-3.5l0.4,0.2L74,33.4z
				 M75.3,32.2c0-0.2,0.1-0.4,0.2-0.6c0.2-0.1,0.4-0.2,0.6-0.2c0.3,0,0.5,0.1,0.6,0.2c0.2,0.1,0.2,0.3,0.2,0.6v0.4
				c0,0.2-0.1,0.4-0.2,0.6c-0.2,0.1-0.4,0.2-0.6,0.2c-0.3,0-0.5-0.1-0.6-0.2c-0.2-0.1-0.2-0.3-0.2-0.6V32.2z M75.9,32.8
				c0,0.1,0.1,0.1,0.2,0.1c0.1,0,0.2,0,0.2-0.1c0-0.1,0.1-0.1,0.1-0.2v-0.4c0-0.1,0-0.2-0.1-0.2c0-0.1-0.1-0.1-0.2-0.1
				c-0.1,0-0.2,0-0.2,0.1c0,0.1-0.1,0.1-0.1,0.2v0.4C75.9,32.7,75.9,32.8,75.9,32.8z"/>
		</g>
	</g>
</g>
<rect x="66.8" y="44" class="st2" width="9.2" height="4.7"/>
<g>
	<g>
		<g>
			<path d="M68.5,46.6l0-0.1V45h0l-0.8,1.2h1l0.2,0h0.8v0.6h-2.7v-0.5l1.6-2.3h0.7v3.6h-0.7V46.6z"/>
			<path d="M69.8,45.3c0-0.4,0.1-0.7,0.3-0.9c0.2-0.2,0.5-0.4,0.9-0.4c0.4,0,0.7,0.1,0.9,0.4c0.2,0.2,0.3,0.6,0.3,0.9v1.1
				c0,0.4-0.1,0.7-0.3,0.9s-0.5,0.4-0.9,0.4c-0.4,0-0.7-0.1-0.9-0.4c-0.2-0.2-0.3-0.6-0.3-0.9V45.3z M70.7,46.9
				c0.1,0.1,0.2,0.2,0.4,0.2c0.2,0,0.3-0.1,0.4-0.2c0.1-0.1,0.1-0.3,0.1-0.5v-1.2c0-0.2,0-0.4-0.1-0.5c-0.1-0.1-0.2-0.2-0.4-0.2
				c-0.2,0-0.3,0.1-0.4,0.2c-0.1,0.1-0.1,0.3-0.1,0.5v1.2C70.6,46.6,70.6,46.8,70.7,46.9z"/>
			<path d="M72.6,44.8c0-0.2,0.1-0.4,0.2-0.6C73,44,73.2,44,73.5,44c0.3,0,0.5,0.1,0.6,0.2c0.2,0.1,0.2,0.3,0.2,0.6v0.4
				c0,0.2-0.1,0.4-0.2,0.6C74,45.9,73.8,46,73.5,46c-0.3,0-0.5-0.1-0.6-0.2c-0.2-0.1-0.2-0.3-0.2-0.6V44.8z M73.3,45.4
				c0,0.1,0.1,0.1,0.2,0.1c0.1,0,0.2,0,0.2-0.1c0-0.1,0.1-0.1,0.1-0.2v-0.4c0-0.1,0-0.2-0.1-0.2c0-0.1-0.1-0.1-0.2-0.1
				c-0.1,0-0.2,0-0.2,0.1s-0.1,0.1-0.1,0.2v0.4C73.2,45.3,73.2,45.4,73.3,45.4z M74,47.7l-0.4-0.3l2.1-3.5l0.4,0.2L74,47.7z
				 M75.3,46.5c0-0.2,0.1-0.4,0.2-0.6c0.2-0.1,0.4-0.2,0.6-0.2c0.3,0,0.5,0.1,0.6,0.2c0.2,0.1,0.2,0.3,0.2,0.6v0.4
				c0,0.2-0.1,0.4-0.2,0.6c-0.2,0.1-0.4,0.2-0.6,0.2c-0.3,0-0.5-0.1-0.6-0.2c-0.2-0.1-0.2-0.3-0.2-0.6V46.5z M75.9,47.1
				c0,0.1,0.1,0.1,0.2,0.1c0.1,0,0.2,0,0.2-0.1c0-0.1,0.1-0.1,0.1-0.2v-0.4c0-0.1,0-0.2-0.1-0.2c0-0.1-0.1-0.1-0.2-0.1
				c-0.1,0-0.2,0-0.2,0.1c0,0.1-0.1,0.1-0.1,0.2v0.4C75.9,47,75.9,47.1,75.9,47.1z"/>
		</g>
	</g>
</g>
<rect x="67.2" y="58.5" class="st2" width="9.2" height="4.7"/>
<g>
	<g>
		<g>
			<path d="M68.8,61.2l0-0.1v-1.5h0L68,60.8h1l0.2,0h0.8v0.6h-2.7v-0.5l1.6-2.3h0.7v3.6h-0.7V61.2z"/>
			<path d="M70.2,61.7l1.2-1.4c0.1-0.2,0.2-0.3,0.3-0.4c0.1-0.1,0.1-0.2,0.1-0.4c0-0.1,0-0.2-0.1-0.3c-0.1-0.1-0.2-0.1-0.3-0.1
				c-0.1,0-0.3,0-0.3,0.1c-0.1,0.1-0.1,0.2-0.1,0.4v0.1h-0.8v-0.1c0-0.3,0.1-0.6,0.3-0.8c0.2-0.2,0.5-0.3,0.9-0.3
				c0.4,0,0.7,0.1,0.9,0.3c0.2,0.2,0.3,0.4,0.3,0.7c0,0.2-0.1,0.4-0.2,0.6c-0.1,0.2-0.3,0.4-0.5,0.6l-0.8,0.9h1.5v0.6h-2.5V61.7z"/>
			<path d="M73,59.3c0-0.2,0.1-0.4,0.2-0.6c0.2-0.1,0.4-0.2,0.6-0.2c0.3,0,0.5,0.1,0.6,0.2c0.2,0.1,0.2,0.3,0.2,0.6v0.4
				c0,0.2-0.1,0.4-0.2,0.6c-0.2,0.1-0.4,0.2-0.6,0.2c-0.3,0-0.5-0.1-0.6-0.2C73,60.2,73,60,73,59.7V59.3z M73.6,60
				c0,0.1,0.1,0.1,0.2,0.1c0.1,0,0.2,0,0.2-0.1c0-0.1,0.1-0.1,0.1-0.2v-0.4c0-0.1,0-0.2-0.1-0.2c0-0.1-0.1-0.1-0.2-0.1
				c-0.1,0-0.2,0-0.2,0.1s-0.1,0.1-0.1,0.2v0.4C73.5,59.8,73.6,59.9,73.6,60z M74.3,62.2L73.9,62l2.1-3.5l0.4,0.2L74.3,62.2z
				 M75.6,61c0-0.2,0.1-0.4,0.2-0.6c0.2-0.1,0.4-0.2,0.6-0.2c0.3,0,0.5,0.1,0.6,0.2c0.2,0.1,0.2,0.3,0.2,0.6v0.4
				c0,0.2-0.1,0.4-0.2,0.6c-0.2,0.1-0.4,0.2-0.6,0.2c-0.3,0-0.5-0.1-0.6-0.2c-0.2-0.1-0.2-0.3-0.2-0.6V61z M76.3,61.7
				c0,0.1,0.1,0.1,0.2,0.1c0.1,0,0.2,0,0.2-0.1c0-0.1,0.1-0.1,0.1-0.2V61c0-0.1,0-0.2-0.1-0.2c0-0.1-0.1-0.1-0.2-0.1
				c-0.1,0-0.2,0-0.2,0.1c0,0.1-0.1,0.1-0.1,0.2v0.4C76.2,61.5,76.2,61.6,76.3,61.7z"/>
		</g>
	</g>
</g>
<rect y="8.5" class="st2" width="25" height="4.7"/>
<g>
	<g>
		<g>
			<path class="st3" d="M10.7,7.7h1V8H11v0.4h0.6v0.2H11v0.4h0.7v0.2h-1V7.7z"/>
			<path class="st3" d="M12.2,8.4L12.2,8.4l0.4-0.6H13l-0.5,0.8h0L12,9.2h-0.3L12.2,8.4z M12.1,7.7l0.4,0.6h0L13,9.2h-0.4l-0.4-0.6
				h0l-0.5-0.8L12.1,7.7z"/>
			<path class="st3" d="M13,7.7h1.1V8h-0.4v1.2h-0.3V8H13V7.7z"/>
			<path class="st3" d="M14.3,7.7h0.5c0.2,0,0.3,0,0.4,0.1c0.1,0.1,0.1,0.2,0.1,0.3c0,0.1,0,0.3-0.1,0.3S15,8.6,14.8,8.6h-0.2v0.5
				h-0.3V7.7z M14.8,8.4c0.1,0,0.1,0,0.2-0.1c0,0,0.1-0.1,0.1-0.2s0-0.1-0.1-0.2C15,8,14.9,8,14.8,8h-0.2v0.5H14.8z M14.8,8.5l0.3,0
				l0.4,0.7h-0.3L14.8,8.5z"/>
			<path class="st3" d="M16,7.7h0.3l0.5,1.4h-0.3l-0.4-1c0,0,0,0,0-0.1s0,0,0-0.1h0c0,0,0,0,0,0.1c0,0,0,0,0,0.1l-0.4,1h-0.3L16,7.7
				z M15.8,8.6h0.6l0.1,0.2h-0.8L15.8,8.6z"/>
			<path class="st3" d="M17.1,7.7l0.3,1c0,0,0,0,0,0c0,0,0,0,0,0.1h0c0,0,0,0,0-0.1c0,0,0,0,0,0l0.4-1h0.3l-0.5,1.4h-0.3l-0.5-1.4
				H17.1z"/>
			<path class="st3" d="M18.3,7.7h1V8h-0.7v0.4h0.6v0.2h-0.6v0.4h0.7v0.2h-1V7.7z"/>
			<path class="st3" d="M19.5,7.7H20c0.2,0,0.3,0,0.4,0.1c0.1,0.1,0.1,0.2,0.1,0.3c0,0.1,0,0.3-0.1,0.3S20.2,8.6,20,8.6h-0.2v0.5
				h-0.3V7.7z M20,8.4c0.1,0,0.1,0,0.2-0.1c0,0,0.1-0.1,0.1-0.2s0-0.1-0.1-0.2C20.1,8,20.1,8,20,8h-0.2v0.5H20z M19.9,8.5l0.3,0
				l0.4,0.7h-0.3L19.9,8.5z"/>
			<path class="st3" d="M20.6,7.7h1.1V8h-0.4v1.2H21V8h-0.4V7.7z"/>
			<path class="st3" d="M21.9,7.7h1V8h-0.7v0.4h0.6v0.2h-0.6v0.4h0.7v0.2h-1V7.7z"/>
			<path class="st3" d="M23.1,7.7h0.5c0.2,0,0.4,0.1,0.5,0.2c0.1,0.1,0.2,0.3,0.2,0.5v0.1c0,0.2-0.1,0.4-0.2,0.5s-0.3,0.2-0.5,0.2
				h-0.5V7.7z M23.6,8.9c0.1,0,0.2,0,0.3-0.1S24,8.6,24,8.5V8.4c0-0.1,0-0.3-0.1-0.3C23.8,8,23.7,8,23.6,8h-0.2v1H23.6z"/>
		</g>
	</g>
</g>
<rect x="66.8" y="7.7" class="st2" width="25" height="4.7"/>
<g>
	<g>
		<g>
			<path d="M67.2,7.7h0.3v1.4h-0.3V7.7z"/>
			<path d="M67.8,7.7h0.3l0.5,0.9c0,0,0,0,0,0.1c0,0,0,0,0,0.1h0c0,0,0,0,0-0.1c0,0,0,0,0-0.1V7.7h0.3v1.4h-0.3l-0.5-0.9
				c0,0,0,0,0-0.1c0,0,0,0,0-0.1h0c0,0,0,0,0,0.1c0,0,0,0,0,0.1v0.9h-0.3V7.7z"/>
			<path d="M69.1,7.7h1.1V8h-0.4v1.2h-0.3V8h-0.4V7.7z"/>
			<path d="M70.4,7.7H71c0.2,0,0.3,0,0.4,0.1c0.1,0.1,0.1,0.2,0.1,0.3c0,0.1,0,0.3-0.1,0.3c-0.1,0.1-0.2,0.1-0.4,0.1h-0.2v0.5h-0.3
				V7.7z M70.9,8.4c0.1,0,0.1,0,0.2-0.1c0,0,0.1-0.1,0.1-0.2s0-0.1-0.1-0.2C71.1,8,71,8,70.9,8h-0.2v0.5H70.9z M70.9,8.5l0.3,0
				l0.4,0.7h-0.3L70.9,8.5z"/>
			<path d="M71.7,8.4c0-0.2,0.1-0.4,0.2-0.5c0.1-0.1,0.3-0.2,0.5-0.2c0.2,0,0.3,0.1,0.5,0.2c0.1,0.1,0.2,0.3,0.2,0.5v0.1
				c0,0.2-0.1,0.4-0.2,0.5c-0.1,0.1-0.3,0.2-0.5,0.2c-0.2,0-0.3-0.1-0.5-0.2C71.7,8.9,71.7,8.7,71.7,8.4L71.7,8.4z M72.1,8.8
				C72.1,8.9,72.2,9,72.3,9c0.1,0,0.2,0,0.2-0.1s0.1-0.2,0.1-0.3V8.4c0-0.1,0-0.3-0.1-0.3c-0.1-0.1-0.1-0.1-0.2-0.1
				c-0.1,0-0.2,0-0.2,0.1C72,8.1,72,8.2,72,8.4v0.1C72,8.7,72,8.8,72.1,8.8z"/>
			<path d="M73.3,7.7l0.3,1c0,0,0,0,0,0c0,0,0,0,0,0.1h0c0,0,0,0,0-0.1c0,0,0,0,0,0l0.4-1h0.3l-0.5,1.4h-0.3L73,7.7H73.3z"/>
			<path d="M74.5,7.7h1V8h-0.7v0.4h0.6v0.2h-0.6v0.4h0.7v0.2h-1V7.7z"/>
			<path d="M75.7,7.7h0.5c0.2,0,0.3,0,0.4,0.1c0.1,0.1,0.1,0.2,0.1,0.3c0,0.1,0,0.3-0.1,0.3c-0.1,0.1-0.2,0.1-0.4,0.1H76v0.5h-0.3
				V7.7z M76.2,8.4c0.1,0,0.1,0,0.2-0.1c0,0,0.1-0.1,0.1-0.2s0-0.1-0.1-0.2c0,0-0.1-0.1-0.2-0.1H76v0.5H76.2z M76.1,8.5l0.3,0
				l0.4,0.7h-0.3L76.1,8.5z"/>
			<path d="M76.8,7.7H78V8h-0.4v1.2h-0.3V8h-0.4V7.7z"/>
			<path d="M78.2,7.7h1V8h-0.7v0.4H79v0.2h-0.6v0.4h0.7v0.2h-1V7.7z"/>
			<path d="M79.3,7.7h0.5c0.2,0,0.4,0.1,0.5,0.2c0.1,0.1,0.2,0.3,0.2,0.5v0.1c0,0.2-0.1,0.4-0.2,0.5c-0.1,0.1-0.3,0.2-0.5,0.2h-0.5
				V7.7z M79.8,8.9c0.1,0,0.2,0,0.3-0.1c0.1-0.1,0.1-0.2,0.1-0.3V8.4c0-0.1,0-0.3-0.1-0.3C80,8,79.9,8,79.8,8h-0.2v1H79.8z"/>
		</g>
	</g>
</g>
<rect y="22" class="st2" width="25" height="4.7"/>
<g>
	<g>
		<g>
			<path class="st3" d="M14.5,22.5h0.3v1.4h-0.3V22.5z"/>
			<path class="st3" d="M15.1,22.5h0.3l0.5,0.9c0,0,0,0,0,0.1c0,0,0,0,0,0.1h0c0,0,0,0,0-0.1s0,0,0-0.1v-0.9h0.3v1.4H16L15.5,23
				c0,0,0,0,0-0.1c0,0,0,0,0-0.1h0c0,0,0,0,0,0.1c0,0,0,0,0,0.1v0.9h-0.3V22.5z"/>
			<path class="st3" d="M16.5,22.5h1.1v0.2h-0.4v1.2h-0.3v-1.2h-0.4V22.5z"/>
			<path class="st3" d="M17.8,22.5h0.3v0.9c0,0.1,0,0.2,0.1,0.2c0,0,0.1,0.1,0.2,0.1c0.1,0,0.1,0,0.2-0.1c0,0,0.1-0.1,0.1-0.2v-0.9
				h0.3v0.9c0,0.2-0.1,0.3-0.2,0.4c-0.1,0.1-0.2,0.1-0.4,0.1s-0.3,0-0.4-0.1c-0.1-0.1-0.2-0.2-0.2-0.4V22.5z"/>
			<path class="st3" d="M19.2,22.5h0.3v1.4h-0.3V22.5z"/>
			<path class="st3" d="M19.6,22.5h1.1v0.2h-0.4v1.2h-0.3v-1.2h-0.4V22.5z"/>
			<path class="st3" d="M20.9,22.5h0.3v1.4h-0.3V22.5z"/>
			<path class="st3" d="M21.7,22.5l0.3,1c0,0,0,0,0,0c0,0,0,0,0,0.1h0c0,0,0,0,0-0.1c0,0,0,0,0,0l0.4-1h0.3l-0.5,1.4h-0.3l-0.5-1.4
				H21.7z"/>
			<path class="st3" d="M22.9,22.5h1v0.2h-0.7v0.4h0.6v0.2h-0.6v0.4h0.7v0.2h-1V22.5z"/>
		</g>
	</g>
</g>
<rect x="66.8" y="22.7" class="st2" width="25" height="4.7"/>
<g>
	<g>
		<g>
			<path d="M67.2,23.1c0-0.2,0.1-0.4,0.2-0.5c0.1-0.1,0.3-0.2,0.5-0.2c0.2,0,0.3,0.1,0.5,0.2c0.1,0.1,0.2,0.3,0.2,0.5v0.1
				c0,0.2-0.1,0.4-0.2,0.5c-0.1,0.1-0.3,0.2-0.5,0.2c-0.2,0-0.3-0.1-0.5-0.2C67.3,23.6,67.2,23.5,67.2,23.1L67.2,23.1z M67.6,23.6
				c0.1,0.1,0.1,0.1,0.2,0.1c0.1,0,0.2,0,0.2-0.1s0.1-0.2,0.1-0.3v-0.1c0-0.1,0-0.3-0.1-0.3c-0.1-0.1-0.1-0.1-0.2-0.1
				c-0.1,0-0.2,0-0.2,0.1c-0.1,0.1-0.1,0.2-0.1,0.3v0.1C67.5,23.4,67.5,23.5,67.6,23.6z"/>
			<path d="M68.7,22.5h0.5c0.2,0,0.3,0,0.4,0.1s0.1,0.2,0.1,0.3c0,0.1,0,0.1-0.1,0.2c0,0.1-0.1,0.1-0.1,0.1v0c0.1,0,0.1,0.1,0.2,0.1
				c0,0.1,0.1,0.1,0.1,0.2c0,0.1,0,0.2-0.1,0.3s-0.2,0.1-0.4,0.1h-0.6V22.5z M69.2,23.1c0.1,0,0.1,0,0.2,0c0,0,0.1-0.1,0.1-0.1
				c0-0.1,0-0.1-0.1-0.1c0,0-0.1,0-0.2,0H69v0.4H69.2z M69.3,23.7c0.1,0,0.1,0,0.2-0.1c0,0,0.1-0.1,0.1-0.2c0-0.1,0-0.1-0.1-0.2
				c0,0-0.1-0.1-0.2-0.1H69v0.4H69.3z"/>
			<path d="M70,23.5h0.3v0c0,0.1,0,0.1,0.1,0.2c0,0,0.1,0.1,0.2,0.1c0.1,0,0.1,0,0.2,0s0.1-0.1,0.1-0.1c0-0.1,0-0.1-0.1-0.1
				c0,0-0.1-0.1-0.3-0.1c-0.1,0-0.3-0.1-0.3-0.2S70,23,70,22.9c0-0.1,0-0.2,0.1-0.3c0.1-0.1,0.2-0.1,0.4-0.1c0.2,0,0.3,0,0.4,0.1
				s0.1,0.2,0.1,0.3v0h-0.3v0c0-0.1,0-0.1-0.1-0.1s-0.1-0.1-0.2-0.1c-0.1,0-0.1,0-0.2,0c0,0-0.1,0.1-0.1,0.1c0,0,0,0.1,0.1,0.1
				c0,0,0.1,0.1,0.3,0.1c0.1,0,0.3,0.1,0.3,0.2c0.1,0.1,0.1,0.2,0.1,0.3c0,0.1-0.1,0.2-0.2,0.3c-0.1,0.1-0.2,0.1-0.4,0.1
				s-0.3,0-0.4-0.1S70,23.6,70,23.5L70,23.5z"/>
			<path d="M71.3,22.5h1v0.2h-0.7v0.4h0.6v0.2h-0.6v0.4h0.7v0.2h-1V22.5z"/>
			<path d="M72.5,22.5H73c0.2,0,0.3,0,0.4,0.1c0.1,0.1,0.1,0.2,0.1,0.3c0,0.1,0,0.3-0.1,0.3c-0.1,0.1-0.2,0.1-0.4,0.1h-0.2v0.5h-0.3
				V22.5z M73,23.2c0.1,0,0.1,0,0.2-0.1c0,0,0.1-0.1,0.1-0.2s0-0.1-0.1-0.2c0,0-0.1-0.1-0.2-0.1h-0.2v0.5H73z M72.9,23.2l0.3,0
				l0.4,0.7h-0.3L72.9,23.2z"/>
			<path d="M73.9,22.5l0.3,1c0,0,0,0,0,0c0,0,0,0,0,0.1h0c0,0,0,0,0-0.1c0,0,0,0,0,0l0.4-1h0.3l-0.5,1.4h-0.3l-0.5-1.4H73.9z"/>
			<path d="M75.4,22.5h0.3l0.5,1.4H76l-0.4-1c0,0,0,0,0-0.1c0,0,0,0,0-0.1h0c0,0,0,0,0,0.1c0,0,0,0,0,0.1l-0.4,1h-0.3L75.4,22.5z
				 M75.3,23.4h0.6l0.1,0.2h-0.8L75.3,23.4z"/>
			<path d="M76.4,22.5h0.3l0.5,0.9c0,0,0,0,0,0.1c0,0,0,0,0,0.1h0c0,0,0,0,0-0.1c0,0,0,0,0-0.1v-0.9h0.3v1.4h-0.3L76.7,23
				c0,0,0,0,0-0.1c0,0,0,0,0-0.1h0c0,0,0,0,0,0.1c0,0,0,0,0,0.1v0.9h-0.3V22.5z"/>
			<path d="M77.7,22.5h1.1v0.2h-0.4v1.2h-0.3v-1.2h-0.4V22.5z"/>
		</g>
	</g>
</g>
<rect y="36.3" class="st2" width="25" height="4.7"/>
<g>
	<g>
		<g>
			<path d="M14.8,36H16v0.2h-0.4v1.2h-0.3v-1.2h-0.4V36z"/>
			<path d="M16.1,36h0.3v0.6H17V36h0.3v1.4H17v-0.6h-0.6v0.6h-0.3V36z"/>
			<path d="M17.6,36h0.3v1.4h-0.3V36z"/>
			<path d="M18.2,36h0.3l0.5,0.9c0,0,0,0,0,0.1c0,0,0,0,0,0.1h0c0,0,0,0,0-0.1s0,0,0-0.1V36h0.3v1.4H19l-0.5-0.9c0,0,0,0,0-0.1
				c0,0,0,0,0-0.1h0c0,0,0,0,0,0.1c0,0,0,0,0,0.1v0.9h-0.3V36z"/>
			<path d="M19.6,36h0.3v0.6l0.5-0.6h0.3l-0.8,0.9v0.5h-0.3V36z M20,36.7l0.2-0.2l0.7,0.9h-0.4L20,36.7z"/>
			<path d="M21,36h0.3v1.4H21V36z"/>
			<path d="M21.6,36h0.3l0.5,0.9c0,0,0,0,0,0.1c0,0,0,0,0,0.1h0c0,0,0,0,0-0.1s0,0,0-0.1V36h0.3v1.4h-0.3l-0.5-0.9c0,0,0,0,0-0.1
				c0,0,0,0,0-0.1h0c0,0,0,0,0,0.1c0,0,0,0,0,0.1v0.9h-0.3V36z"/>
			<path d="M23,36.7c0-0.2,0.1-0.4,0.2-0.5s0.3-0.2,0.5-0.2c0.2,0,0.3,0,0.4,0.1s0.2,0.2,0.2,0.3v0h-0.3v0c0-0.1,0-0.1-0.1-0.2
				c0,0-0.1-0.1-0.2-0.1c-0.1,0-0.2,0-0.2,0.1s-0.1,0.2-0.1,0.3v0.2c0,0.1,0,0.3,0.1,0.3c0.1,0.1,0.2,0.1,0.3,0.1c0.1,0,0.1,0,0.1,0
				c0,0,0.1,0,0.1-0.1v-0.3h-0.3v-0.2h0.6v0.6c0,0-0.1,0.1-0.2,0.1c-0.1,0-0.2,0.1-0.3,0.1c-0.2,0-0.4-0.1-0.5-0.2S23,37,23,36.7
				L23,36.7z"/>
		</g>
	</g>
</g>
<rect x="66.8" y="36.1" class="st2" width="25" height="4.7"/>
<g>
	<g>
		<g>
			<path class="st3" d="M67.2,36h0.9v0.2h-0.6v0.4H68v0.2h-0.6v0.6h-0.3V36z"/>
			<path class="st3" d="M68.3,36h1v0.2h-0.7v0.4h0.6v0.2h-0.6v0.4h0.7v0.2h-1V36z"/>
			<path class="st3" d="M69.5,36h1v0.2h-0.7v0.4h0.6v0.2h-0.6v0.4h0.7v0.2h-1V36z"/>
			<path class="st3" d="M70.7,36H71v1.2h0.6v0.2h-0.9V36z"/>
			<path class="st3" d="M71.8,36h0.3v1.4h-0.3V36z"/>
			<path class="st3" d="M72.4,36h0.3l0.5,0.9c0,0,0,0,0,0.1c0,0,0,0,0,0.1h0c0,0,0,0,0-0.1c0,0,0,0,0-0.1V36h0.3v1.4h-0.3l-0.5-0.9
				c0,0,0,0,0-0.1c0,0,0,0,0-0.1h0c0,0,0,0,0,0.1c0,0,0,0,0,0.1v0.9h-0.3V36z"/>
			<path class="st3" d="M73.8,36.6c0-0.2,0.1-0.4,0.2-0.5c0.1-0.1,0.3-0.2,0.5-0.2c0.2,0,0.3,0,0.4,0.1c0.1,0.1,0.2,0.2,0.2,0.3v0
				h-0.3v0c0-0.1,0-0.1-0.1-0.2c0,0-0.1-0.1-0.2-0.1c-0.1,0-0.2,0-0.2,0.1c-0.1,0.1-0.1,0.2-0.1,0.3v0.2c0,0.1,0,0.3,0.1,0.3
				c0.1,0.1,0.2,0.1,0.3,0.1c0.1,0,0.1,0,0.1,0c0,0,0.1,0,0.1-0.1v-0.3h-0.3v-0.2H75v0.6c0,0-0.1,0.1-0.2,0.1
				c-0.1,0-0.2,0.1-0.3,0.1c-0.2,0-0.4-0.1-0.5-0.2C73.8,37.1,73.8,37,73.8,36.6L73.8,36.6z"/>
		</g>
	</g>
</g>
<rect y="51.7" class="st2" width="25" height="4.7"/>
<g>
	<g>
		<g>
			<path class="st3" d="M15.5,51.2h0.3v0c0,0.1,0,0.1,0,0.2c0,0,0.1,0.1,0.1,0.1c0.1,0,0.1,0,0.1-0.1s0-0.1,0-0.2v-1h0.3v0.9
				c0,0.2,0,0.3-0.1,0.4s-0.2,0.1-0.4,0.1c-0.1,0-0.3,0-0.4-0.1S15.5,51.4,15.5,51.2L15.5,51.2z"/>
			<path class="st3" d="M16.8,50.3h0.3v0.9c0,0.1,0,0.2,0.1,0.2c0,0,0.1,0.1,0.2,0.1c0.1,0,0.1,0,0.2-0.1c0,0,0.1-0.1,0.1-0.2v-0.9
				h0.3v0.9c0,0.2-0.1,0.3-0.2,0.4c-0.1,0.1-0.2,0.1-0.4,0.1s-0.3,0-0.4-0.1c-0.1-0.1-0.2-0.2-0.2-0.4V50.3z"/>
			<path class="st3" d="M18.2,50.3h0.5c0.2,0,0.4,0.1,0.5,0.2c0.1,0.1,0.2,0.3,0.2,0.5V51c0,0.2-0.1,0.4-0.2,0.5s-0.3,0.2-0.5,0.2
				h-0.5V50.3z M18.6,51.5c0.1,0,0.2,0,0.3-0.1S19,51.2,19,51v-0.1c0-0.1,0-0.3-0.1-0.3c-0.1-0.1-0.2-0.1-0.3-0.1h-0.2v1H18.6z"/>
			<path class="st3" d="M19.5,50.9c0-0.2,0.1-0.4,0.2-0.5s0.3-0.2,0.5-0.2c0.2,0,0.3,0,0.4,0.1s0.2,0.2,0.2,0.3v0h-0.3v0
				c0-0.1,0-0.1-0.1-0.2c0,0-0.1-0.1-0.2-0.1c-0.1,0-0.2,0-0.2,0.1s-0.1,0.2-0.1,0.3v0.2c0,0.1,0,0.3,0.1,0.3
				c0.1,0.1,0.2,0.1,0.3,0.1c0.1,0,0.1,0,0.1,0c0,0,0.1,0,0.1-0.1v-0.3h-0.3V51h0.6v0.6c0,0-0.1,0.1-0.2,0.1c-0.1,0-0.2,0.1-0.3,0.1
				c-0.2,0-0.4-0.1-0.5-0.2S19.5,51.3,19.5,50.9L19.5,50.9z"/>
			<path class="st3" d="M20.9,50.3h0.3v1.4h-0.3V50.3z"/>
			<path class="st3" d="M21.5,50.3h0.3l0.5,0.9c0,0,0,0,0,0.1c0,0,0,0,0,0.1h0c0,0,0,0,0-0.1s0,0,0-0.1v-0.9h0.3v1.4h-0.3l-0.5-0.9
				c0,0,0,0,0-0.1c0,0,0,0,0-0.1h0c0,0,0,0,0,0.1c0,0,0,0,0,0.1v0.9h-0.3V50.3z"/>
			<path class="st3" d="M22.9,50.9c0-0.2,0.1-0.4,0.2-0.5s0.3-0.2,0.5-0.2c0.2,0,0.3,0,0.4,0.1s0.2,0.2,0.2,0.3v0h-0.3v0
				c0-0.1,0-0.1-0.1-0.2c0,0-0.1-0.1-0.2-0.1c-0.1,0-0.2,0-0.2,0.1s-0.1,0.2-0.1,0.3v0.2c0,0.1,0,0.3,0.1,0.3
				c0.1,0.1,0.2,0.1,0.3,0.1c0.1,0,0.1,0,0.1,0c0,0,0.1,0,0.1-0.1v-0.3h-0.3V51h0.6v0.6c0,0-0.1,0.1-0.2,0.1c-0.1,0-0.2,0.1-0.3,0.1
				c-0.2,0-0.4-0.1-0.5-0.2S22.9,51.3,22.9,50.9L22.9,50.9z"/>
		</g>
	</g>
</g>
<rect x="66.8" y="51.2" class="st2" width="25" height="4.7"/>
<g>
	<g>
		<g>
			<path d="M67.3,50.7h0.5c0.2,0,0.3,0,0.4,0.1c0.1,0.1,0.1,0.2,0.1,0.3s0,0.3-0.1,0.3s-0.2,0.1-0.4,0.1h-0.2v0.5h-0.3V50.7z
				 M67.8,51.4c0.1,0,0.2,0,0.2-0.1s0.1-0.1,0.1-0.2c0-0.1,0-0.1-0.1-0.2c0,0-0.1-0.1-0.2-0.1h-0.2v0.5H67.8z"/>
			<path d="M68.6,50.7h0.5c0.2,0,0.3,0,0.4,0.1c0.1,0.1,0.1,0.2,0.1,0.3c0,0.1,0,0.3-0.1,0.3c-0.1,0.1-0.2,0.1-0.4,0.1h-0.2v0.5
				h-0.3V50.7z M69.1,51.4c0.1,0,0.1,0,0.2-0.1c0,0,0.1-0.1,0.1-0.2s0-0.1-0.1-0.2c0,0-0.1-0.1-0.2-0.1h-0.2v0.5H69.1z M69,51.4
				l0.3,0l0.4,0.7h-0.3L69,51.4z"/>
			<path d="M69.8,51.3c0-0.2,0.1-0.4,0.2-0.5c0.1-0.1,0.3-0.2,0.5-0.2c0.2,0,0.3,0.1,0.5,0.2c0.1,0.1,0.2,0.3,0.2,0.5v0.1
				c0,0.2-0.1,0.4-0.2,0.5c-0.1,0.1-0.3,0.2-0.5,0.2c-0.2,0-0.3-0.1-0.5-0.2C69.9,51.8,69.8,51.7,69.8,51.3L69.8,51.3z M70.2,51.8
				c0.1,0.1,0.1,0.1,0.2,0.1c0.1,0,0.2,0,0.2-0.1s0.1-0.2,0.1-0.3v-0.1c0-0.1,0-0.3-0.1-0.3c-0.1-0.1-0.1-0.1-0.2-0.1
				c-0.1,0-0.2,0-0.2,0.1c-0.1,0.1-0.1,0.2-0.1,0.3v0.1C70.1,51.6,70.1,51.7,70.2,51.8z"/>
			<path d="M71.2,51.7h0.3v0c0,0.1,0,0.1,0.1,0.2c0,0,0.1,0.1,0.2,0.1c0.1,0,0.1,0,0.2,0s0.1-0.1,0.1-0.1c0-0.1,0-0.1-0.1-0.1
				c0,0-0.1-0.1-0.3-0.1c-0.1,0-0.3-0.1-0.3-0.2s-0.1-0.2-0.1-0.3c0-0.1,0-0.2,0.1-0.3c0.1-0.1,0.2-0.1,0.4-0.1c0.2,0,0.3,0,0.4,0.1
				s0.1,0.2,0.1,0.3v0H72v0c0-0.1,0-0.1-0.1-0.1s-0.1-0.1-0.2-0.1c-0.1,0-0.1,0-0.2,0c0,0-0.1,0.1-0.1,0.1c0,0,0,0.1,0.1,0.1
				c0,0,0.1,0.1,0.3,0.1c0.1,0,0.3,0.1,0.3,0.2c0.1,0.1,0.1,0.2,0.1,0.3c0,0.1-0.1,0.2-0.2,0.3c-0.1,0.1-0.2,0.1-0.4,0.1
				s-0.3,0-0.4-0.1S71.2,51.8,71.2,51.7L71.2,51.7z"/>
			<path d="M72.6,50.7h0.5c0.2,0,0.3,0,0.4,0.1c0.1,0.1,0.1,0.2,0.1,0.3s0,0.3-0.1,0.3s-0.2,0.1-0.4,0.1h-0.2v0.5h-0.3V50.7z
				 M73.1,51.4c0.1,0,0.2,0,0.2-0.1s0.1-0.1,0.1-0.2c0-0.1,0-0.1-0.1-0.2c0,0-0.1-0.1-0.2-0.1h-0.2v0.5H73.1z"/>
			<path d="M73.8,50.7h1v0.2h-0.7v0.4h0.6v0.2h-0.6v0.4h0.7v0.2h-1V50.7z"/>
			<path d="M75,51.3c0-0.2,0.1-0.4,0.2-0.5c0.1-0.1,0.3-0.2,0.5-0.2c0.2,0,0.3,0,0.4,0.1c0.1,0.1,0.2,0.2,0.2,0.4v0h-0.3v0
				c0-0.1,0-0.2-0.1-0.2s-0.1-0.1-0.2-0.1c-0.1,0-0.2,0-0.2,0.1c-0.1,0.1-0.1,0.2-0.1,0.3v0.2c0,0.1,0,0.2,0.1,0.3
				c0.1,0.1,0.1,0.1,0.2,0.1c0.1,0,0.2,0,0.2-0.1c0,0,0.1-0.1,0.1-0.2v0h0.3v0c0,0.1-0.1,0.3-0.2,0.4s-0.2,0.1-0.4,0.1
				c-0.2,0-0.3-0.1-0.5-0.2C75,51.8,75,51.7,75,51.3L75,51.3z"/>
			<path d="M76.3,50.7h1.1v0.2H77v1.2h-0.3v-1.2h-0.4V50.7z"/>
			<path d="M77.6,50.7h0.3v1.4h-0.3V50.7z"/>
			<path d="M78.2,50.7h0.3l0.5,0.9c0,0,0,0,0,0.1c0,0,0,0,0,0.1h0c0,0,0,0,0-0.1c0,0,0,0,0-0.1v-0.9h0.3v1.4H79l-0.5-0.9
				c0,0,0,0,0-0.1c0,0,0,0,0-0.1h0c0,0,0,0,0,0.1c0,0,0,0,0,0.1v0.9h-0.3V50.7z"/>
			<path d="M79.6,51.3c0-0.2,0.1-0.4,0.2-0.5c0.1-0.1,0.3-0.2,0.5-0.2c0.2,0,0.3,0,0.4,0.1c0.1,0.1,0.2,0.2,0.2,0.3v0h-0.3v0
				c0-0.1,0-0.1-0.1-0.2c0,0-0.1-0.1-0.2-0.1c-0.1,0-0.2,0-0.2,0.1c-0.1,0.1-0.1,0.2-0.1,0.3v0.2c0,0.1,0,0.3,0.1,0.3
				c0.1,0.1,0.2,0.1,0.3,0.1c0.1,0,0.1,0,0.1,0c0,0,0.1,0,0.1-0.1v-0.3h-0.3v-0.2h0.6v0.6c0,0-0.1,0.1-0.2,0.1
				c-0.1,0-0.2,0.1-0.3,0.1c-0.2,0-0.4-0.1-0.5-0.2C79.6,51.8,79.6,51.7,79.6,51.3L79.6,51.3z"/>
		</g>
	</g>
</g>
<rect y="65.6" class="st2" width="25" height="4.7"/>
<g>
	<g>
		<g>
			<path class="st3" d="M14.1,65.1h0.3l0.5,1.4h-0.3l-0.4-1c0,0,0,0,0-0.1s0,0,0-0.1h0c0,0,0,0,0,0.1c0,0,0,0,0,0.1l-0.4,1h-0.3
				L14.1,65.1z M13.9,66h0.6l0.1,0.2h-0.8L13.9,66z"/>
			<path class="st3" d="M15,66.1h0.3v0c0,0.1,0,0.1,0.1,0.2c0,0,0.1,0.1,0.2,0.1c0.1,0,0.1,0,0.2,0s0.1-0.1,0.1-0.1
				c0-0.1,0-0.1-0.1-0.1c0,0-0.1-0.1-0.3-0.1c-0.1,0-0.3-0.1-0.3-0.2S15,65.6,15,65.5c0-0.1,0-0.2,0.1-0.3s0.2-0.1,0.4-0.1
				c0.2,0,0.3,0,0.4,0.1s0.1,0.2,0.1,0.3v0h-0.3v0c0-0.1,0-0.1-0.1-0.1s-0.1-0.1-0.2-0.1s-0.1,0-0.2,0s-0.1,0.1-0.1,0.1
				c0,0,0,0.1,0.1,0.1c0,0,0.1,0.1,0.3,0.1c0.1,0,0.3,0.1,0.3,0.2s0.1,0.2,0.1,0.3c0,0.1-0.1,0.2-0.2,0.3s-0.2,0.1-0.4,0.1
				c-0.2,0-0.3,0-0.4-0.1S15,66.3,15,66.1L15,66.1z"/>
			<path class="st3" d="M16.2,66.1h0.3v0c0,0.1,0,0.1,0.1,0.2c0,0,0.1,0.1,0.2,0.1c0.1,0,0.1,0,0.2,0s0.1-0.1,0.1-0.1
				c0-0.1,0-0.1-0.1-0.1c0,0-0.1-0.1-0.3-0.1c-0.1,0-0.3-0.1-0.3-0.2s-0.1-0.2-0.1-0.3c0-0.1,0-0.2,0.1-0.3s0.2-0.1,0.4-0.1
				c0.2,0,0.3,0,0.4,0.1s0.1,0.2,0.1,0.3v0H17v0c0-0.1,0-0.1-0.1-0.1s-0.1-0.1-0.2-0.1s-0.1,0-0.2,0s-0.1,0.1-0.1,0.1
				c0,0,0,0.1,0.1,0.1c0,0,0.1,0.1,0.3,0.1c0.1,0,0.3,0.1,0.3,0.2s0.1,0.2,0.1,0.3c0,0.1-0.1,0.2-0.2,0.3s-0.2,0.1-0.4,0.1
				c-0.2,0-0.3,0-0.4-0.1S16.2,66.3,16.2,66.1L16.2,66.1z"/>
			<path class="st3" d="M17.6,65.1h1v0.2h-0.7v0.4h0.6v0.2h-0.6v0.4h0.7v0.2h-1V65.1z"/>
			<path class="st3" d="M18.7,65.1h0.5c0.2,0,0.3,0,0.4,0.1c0.1,0.1,0.1,0.2,0.1,0.3c0,0.1,0,0.3-0.1,0.3S19.4,66,19.3,66H19v0.5
				h-0.3V65.1z M19.2,65.8c0.1,0,0.1,0,0.2-0.1c0,0,0.1-0.1,0.1-0.2s0-0.1-0.1-0.2s-0.1-0.1-0.2-0.1H19v0.5H19.2z M19.2,65.9l0.3,0
				l0.4,0.7h-0.3L19.2,65.9z"/>
			<path class="st3" d="M19.9,65.1H21v0.2h-0.4v1.2h-0.3v-1.2h-0.4V65.1z"/>
			<path class="st3" d="M21.2,65.1h0.3v1.4h-0.3V65.1z"/>
			<path class="st3" d="M22,65.1l0.3,1c0,0,0,0,0,0c0,0,0,0,0,0.1h0c0,0,0,0,0-0.1c0,0,0,0,0,0l0.4-1H23l-0.5,1.4h-0.3l-0.5-1.4H22z
				"/>
			<path class="st3" d="M23.1,65.1h1v0.2h-0.7v0.4H24v0.2h-0.6v0.4h0.7v0.2h-1V65.1z"/>
		</g>
	</g>
</g>
<rect x="67.2" y="64.4" class="st2" width="25" height="4.7"/>
<g>
	<g>
		<g>
			<path d="M68.1,65.3h1.1v0.2h-0.4v1.2h-0.3v-1.2h-0.4V65.3z"/>
			<path d="M69.4,65.3h0.3v0.9c0,0.1,0,0.2,0.1,0.2c0,0,0.1,0.1,0.2,0.1c0.1,0,0.1,0,0.2-0.1c0,0,0.1-0.1,0.1-0.2v-0.9h0.3v0.9
				c0,0.2-0.1,0.3-0.2,0.4c-0.1,0.1-0.2,0.1-0.4,0.1c-0.2,0-0.3,0-0.4-0.1c-0.1-0.1-0.2-0.2-0.2-0.4V65.3z"/>
			<path d="M70.8,65.3h0.5c0.2,0,0.3,0,0.4,0.1c0.1,0.1,0.1,0.2,0.1,0.3c0,0.1,0,0.3-0.1,0.3c-0.1,0.1-0.2,0.1-0.4,0.1h-0.2v0.5
				h-0.3V65.3z M71.3,66c0.1,0,0.1,0,0.2-0.1c0,0,0.1-0.1,0.1-0.2s0-0.1-0.1-0.2c0,0-0.1-0.1-0.2-0.1h-0.2V66H71.3z M71.2,66l0.3,0
				l0.4,0.7h-0.3L71.2,66z"/>
			<path d="M72.1,65.3h0.5c0.2,0,0.3,0,0.4,0.1s0.1,0.2,0.1,0.3c0,0.1,0,0.1-0.1,0.2c0,0.1-0.1,0.1-0.1,0.1v0c0.1,0,0.1,0.1,0.2,0.1
				c0,0.1,0.1,0.1,0.1,0.2c0,0.1,0,0.2-0.1,0.3s-0.2,0.1-0.4,0.1h-0.6V65.3z M72.6,65.9c0.1,0,0.1,0,0.2,0c0,0,0.1-0.1,0.1-0.1
				c0-0.1,0-0.1-0.1-0.1c0,0-0.1,0-0.2,0h-0.2v0.4H72.6z M72.6,66.5c0.1,0,0.1,0,0.2-0.1c0,0,0.1-0.1,0.1-0.2c0-0.1,0-0.1-0.1-0.2
				c0,0-0.1-0.1-0.2-0.1h-0.3v0.4H72.6z"/>
			<path d="M73.4,65.3h0.3v0.9c0,0.1,0,0.2,0.1,0.2c0,0,0.1,0.1,0.2,0.1c0.1,0,0.1,0,0.2-0.1c0,0,0.1-0.1,0.1-0.2v-0.9h0.3v0.9
				c0,0.2-0.1,0.3-0.2,0.4c-0.1,0.1-0.2,0.1-0.4,0.1c-0.2,0-0.3,0-0.4-0.1c-0.1-0.1-0.2-0.2-0.2-0.4V65.3z"/>
			<path d="M74.8,65.3h0.3v1.2h0.6v0.2h-0.9V65.3z"/>
			<path d="M75.9,65.3h1v0.2h-0.7v0.4h0.6v0.2h-0.6v0.4h0.7v0.2h-1V65.3z"/>
			<path d="M77.1,65.3h0.3l0.5,0.9c0,0,0,0,0,0.1c0,0,0,0,0,0.1h0c0,0,0,0,0-0.1c0,0,0,0,0-0.1v-0.9h0.3v1.4h-0.3l-0.5-0.9
				c0,0,0,0,0-0.1c0,0,0,0,0-0.1h0c0,0,0,0,0,0.1c0,0,0,0,0,0.1v0.9h-0.3V65.3z"/>
			<path d="M78.4,65.3h1.1v0.2h-0.4v1.2h-0.3v-1.2h-0.4V65.3z"/>
		</g>
	</g>
</g>
</svg>
