<?xml version="1.0" encoding="utf-8"?>
<!-- Generator: Adobe Illustrator 26.2.1, SVG Export Plug-In . SVG Version: 6.00 Build 0)  -->
<svg version="1.1" id="a" xmlns="http://www.w3.org/2000/svg" xmlns:xlink="http://www.w3.org/1999/xlink" x="0px" y="0px"
	 viewBox="0 0 32 32" style="enable-background:new 0 0 32 32;" xml:space="preserve">
<style type="text/css">
	.st0{fill:#201ABD;}
	.st1{fill:#9B533F;}
	.st2{fill:#FFFFFF;}
</style>
<path class="st0" d="M-88,0c-8.8,0-16,7.2-16,16s7.2,16,16,16s16-7.2,16-16S-79.2,0-88,0z M-96,8h16c0.3,0,0.6,0.1,0.8,0.2L-88,18.5
	l-8.8-10.3C-96.6,8.1-96.3,8-96,8z M-97.1,21.2V9.1l5.9,6.8l-5.8,5.8C-97.1,21.5-97.1,21.4-97.1,21.2L-97.1,21.2L-97.1,21.2z
	 M-80,22.2h-16c-0.2,0-0.3,0-0.5-0.1l5.7-5.7l2.8,3.3l2.8-3.3l5.7,5.7C-79.7,22.2-79.8,22.2-80,22.2L-80,22.2z M-78.9,21.2
	c0,0.2,0,0.4-0.1,0.5l-5.8-5.8l5.9-6.8L-78.9,21.2L-78.9,21.2L-78.9,21.2z"/>
<path class="st1" d="M-36,0c-8.8,0-16,7.2-16,16s7.2,16,16,16s16-7.2,16-16S-27.2,0-36,0z M-44,8h16c0.3,0,0.6,0.1,0.8,0.2L-36,18.5
	l-8.8-10.3C-44.6,8.1-44.3,8-44,8z M-45.1,21.2V9.1l5.9,6.8l-5.8,5.8C-45.1,21.5-45.1,21.4-45.1,21.2L-45.1,21.2L-45.1,21.2z
	 M-28,22.2h-16c-0.2,0-0.3,0-0.5-0.1l5.7-5.7l2.8,3.3l2.8-3.3l5.7,5.7C-27.6,22.2-27.8,22.2-28,22.2L-28,22.2z M-26.9,21.2
	c0,0.2,0,0.4-0.1,0.5l-5.8-5.8l5.9-6.8L-26.9,21.2L-26.9,21.2L-26.9,21.2z"/>
<path class="st2" d="M16,0C7.2,0,0,7.2,0,16s7.2,16,16,16s16-7.2,16-16S24.8,0,16,0z M8,8h16c0.3,0,0.6,0.1,0.8,0.2L16,18.5L7.2,8.2
	C7.4,8.1,7.7,8,8,8z M6.9,21.2V9.1l5.9,6.8L7,21.7C6.9,21.5,6.9,21.4,6.9,21.2L6.9,21.2L6.9,21.2z M24,22.2H8c-0.2,0-0.3,0-0.5-0.1
	l5.7-5.7l2.8,3.3l2.8-3.3l5.7,5.7C24.4,22.2,24.2,22.2,24,22.2L24,22.2z M25.1,21.2c0,0.2,0,0.4-0.1,0.5l-5.8-5.8l5.9-6.8L25.1,21.2
	L25.1,21.2L25.1,21.2z"/>
</svg>
