<?xml version="1.0" encoding="UTF-8"?><svg id="a" xmlns="http://www.w3.org/2000/svg" viewBox="0 0 32 32"><defs><style>.b{fill:#9b533f;}</style></defs><path class="b" d="M16,0C7.16,0,0,7.16,0,16S7.16,32,16,32s16-7.16,16-16S24.84,0,16,0Zm-5.75,6.36c.33-.02,.63,.18,.85,.53l2.19,4.15c.23,.49,.1,1.02-.24,1.37l-1,1c-.06,.08-.1,.18-.1,.29,.38,1.49,1.55,2.86,2.58,3.8,1.03,.94,2.13,2.22,3.57,2.52,.18,.05,.39,.07,.52-.05l1.16-1.19c.4-.3,.98-.45,1.41-.2h.02l3.95,2.33c.58,.36,.64,1.07,.22,1.49l-2.72,2.7c-.4,.41-.93,.55-1.45,.55-2.29-.07-4.46-1.19-6.24-2.35-2.92-2.12-5.6-4.76-7.28-7.94-.64-1.33-1.4-3.04-1.33-4.53,0-.56,.16-1.11,.55-1.47l2.72-2.72c.21-.18,.42-.27,.62-.28Z"/></svg>