<svg id="Lag_1" data-name="Lag 1" xmlns="http://www.w3.org/2000/svg" viewBox="0 0 595.28 841.89"><defs><style>.cls-1{fill:none;stroke:#1d1d1b;stroke-miterlimit:10;stroke-width:5px;}.cls-2{fill:#1d1d1b;}.cls-3{fill:#fff;}</style></defs><path class="cls-1" d="M200.38,242.25c21.52-32.72,61.45-63.89,135.52-66.13"/><path class="cls-2" d="M220.61,247c-.92,2.45-2.13,5.91-3.67,11.22-.72,2.46-1.91,2.7-6.43,2.1-2-.26-1.44,1.48-2.67,3.29-1.32,1.58-5.77.47-5.77.47-1-.3-1.18.21-1.14.57.64,8.1-6.4,14.09-5.67,14.52,3.15,2.5,1.69,6,.62,6.13,1.65.44,2.16,3.36,1.53,4-2.36,2.26-3.43,2-4.73,3.64-2.66,3-4,1.7-5.33,5-.94,2.39-1.61,3.06-2.31,3.46-3.32,1.71-5.88-1.57-6.47-3.46-2.76-.29-4.66-5-6.52-6.61a20.43,20.43,0,0,1-3.05,5.18c-.95,1.24-.14,1.14-1.2,3.51-1.4,3.22-2.16,4.37-3,5.26-.48.52-1.47,3.74-2.6,5.21a5,5,0,0,1-7.42,2.36c-.18-.11-.16-.16.17-1.15.54-1.3.64-3.92,1.6-5.78a33.18,33.18,0,0,1,1.26-3.8c.36-2.46,1.54-3.94,1.48-7,0-.44.37-.23.58-1.15.11-.49-.29-.56.34-1.91a59,59,0,0,0,1.88-5.6c.65-2,.76-3.62,1.93-8.52.48-2,.11-3.83,1.29-5,1.81-1.81,7.61-8.26,14.3-15,.14-.14.78-.72-.13-1.52-1.38-1.47-.71-1.83.44-5,.67-2.31-1.65-1.2-.76-3.69,1.37-3.83,2.19-5.24,3.94-10.92.71-2.3.84-3,2.47-2.45l34.29,11.37A1,1,0,0,1,220.61,247Z"/><path class="cls-3" d="M156.13,312c1.47.64,2-2.29,2.17-3.48.1-.71-.79-1.56-1.26-1l-1,4.27C156,311.84,156.1,312,156.13,312Z"/><path class="cls-3" d="M181.23,295.49c.79-1.54,1.4-1.17,1.58-2.08.22-1.2-.56-.32.84-4.22.38-1.14.51-1.79,1.24-2.39-.19-.48-.31-1.53.44-2,.19-1.52-.15-1.07,1.2-3.31,1.83-3,.71-4.1.47-5.85a2.12,2.12,0,0,1,.28-1.53c2.72-5.77,1.84-3.18,4.09-11.67.41-3.06-.77-4.69-4.72-5.87-4.5-1.23-4.2-.08-6.06,2C172.93,267,167,272.39,166.31,275c-2.32,7.32-.54,6.43-4,16-1.4,2.93.2,3.35-.36,4.43-.77.71-1-.16-1.7,2.88-1.44,6.17-2.85,7-2.09,7.88,1,1.15,1.83,1.4.22,5.17a6.24,6.24,0,0,1-.27.59c-.28.44,0,.56.51.21a12.27,12.27,0,0,0,3.64-6.83c.36-2.21.82-.85,2-4.33.4-1.55.72-2.5.78-3a13.69,13.69,0,0,0,2.19-5.31c.09-1.27-.1-1.94.82-2.8a12.11,12.11,0,0,0,3.2-6.45c.85-4.16,0-4.2.43-4.51,1-.69,1.7,1.65,3.86.17,1.12-.75-1.63-2.87-1.25-3.86.28-.57.86-.5,1.43,0,.26.24,1.63,2,2.69,1.27,1.74-1.23-.88-5.32,1.35-7.07.57-.39,1,.36.68,1-.49,1,0,3.21.36,4.19a25.29,25.29,0,0,1,1.08,5.81c.29,4.23-1.26,5.08-.53,6.07.53.8-.93,1.61-1.58,2.86-1.24,2.35-1.09,8.76.36,8.64.49-.07.58-.47.66-1A3.6,3.6,0,0,1,181.23,295.49Z"/><path class="cls-3" d="M184.78,295.12c-1.44.16-1.62.17-2.28,1.28s-.69,4.33.73,4.35c.51-.18,1-1.46,1.41-2.21S186.31,295.18,184.78,295.12Z"/><path class="cls-3" d="M207.3,261c-.47,1.21-1.26,1.1-2.12,1-1.24-.1-5.72-2.53-11.7-4.62a85.09,85.09,0,0,0-11.08-3.25c-.82-.2-2,.11-1.73-1,1-3.64,1.07-4.83,4.07-4.47,3.51.42,16.32,4.57,22.75,7.65C207.92,256.78,209.21,256.41,207.3,261Z"/></svg>