<?xml version="1.0" encoding="UTF-8"?><svg id="a" xmlns="http://www.w3.org/2000/svg" viewBox="0 0 71.26 115.37"><defs><style>.b,.c{font-family:BigCaslon-Medium, Big Caslon;font-size:5px;}.d,.c{fill:#9b533f;}.e{fill:none;stroke:#9b533f;stroke-miterlimit:10;stroke-width:.5px;}</style></defs><rect class="e" x="15.24" y="11.75" width="38.18" height="3.3" rx="1.65" ry="1.65"/><rect class="d" x="15.24" y="11.75" width="28.65" height="3.3" rx="1.65" ry="1.65"/><rect class="e" x="15.24" y="26.73" width="38.18" height="3.3" rx="1.65" ry="1.65"/><rect class="d" x="15.24" y="26.73" width="26.88" height="3.3" rx="1.65" ry="1.65"/><rect class="e" x="15.24" y="40.88" width="38.18" height="3.3" rx="1.65" ry="1.65" transform="translate(68.67 85.06) rotate(-180)"/><rect class="d" x="22.63" y="40.88" width="30.8" height="3.3" rx="1.65" ry="1.65" transform="translate(76.05 85.06) rotate(-180)"/><rect class="e" x="15.24" y="55" width="38.18" height="3.3" rx="1.65" ry="1.65"/><rect class="d" x="15.24" y="55" width="24.51" height="3.3" rx="1.65" ry="1.65"/><rect class="e" x="15.24" y="69.64" width="38.18" height="3.3" rx="1.65" ry="1.65"/><rect class="d" x="15.24" y="69.64" width="22.46" height="3.3" rx="1.65" ry="1.65"/><text class="c" transform="translate(6.06 14.21)"><tspan x="0" y="0">74%</tspan></text><text class="c" transform="translate(6.06 29.19)"><tspan x="0" y="0">70%</tspan></text><text class="b" transform="translate(6.06 43.34)"><tspan x="0" y="0">21%</tspan></text><text class="c" transform="translate(6.06 57.46)"><tspan x="0" y="0">60%</tspan></text><text class="c" transform="translate(6.06 72.55)"><tspan x="0" y="0">58%</tspan></text><text class="b" transform="translate(54.76 14.21)"><tspan x="0" y="0">26%</tspan></text><text class="b" transform="translate(54.76 29.19)"><tspan x="0" y="0">30%</tspan></text><text class="c" transform="translate(54.76 43.34)"><tspan x="0" y="0">79%</tspan></text><text class="b" transform="translate(54.76 57.46)"><tspan x="0" y="0">40%</tspan></text><text class="b" transform="translate(54.76 72.55)"><tspan x="0" y="0">42%</tspan></text></svg>