<?xml version="1.0" encoding="UTF-8"?><svg id="a" xmlns="http://www.w3.org/2000/svg" viewBox="0 0 92.18 70.31"><defs><style>.b,.c{font-size:5px;}.b,.c,.d,.e{font-family:BigCaslon-Medium, Big Caslon;}.f,.c,.e{fill:#9b533f;}.d{fill:#1d1d1b;}.d,.e{font-size:3px;}.g{fill:none;stroke:#9b533f;stroke-miterlimit:10;stroke-width:.5px;}</style></defs><text class="c" transform="translate(15.44 47.66)"><tspan x="0" y="0">60%</tspan></text><rect class="g" x="26.28" y="2.04" width="38.18" height="3.3" rx="1.65" ry="1.65"/><rect class="f" x="26.28" y="2.04" width="28.65" height="3.3" rx="1.65" ry="1.65"/><rect class="g" x="26.28" y="17.02" width="38.18" height="3.3" rx="1.65" ry="1.65"/><rect class="f" x="26.28" y="17.02" width="26.88" height="3.3" rx="1.65" ry="1.65"/><rect class="g" x="26.28" y="31.17" width="38.18" height="3.3" rx="1.65" ry="1.65" transform="translate(90.74 65.64) rotate(-180)"/><rect class="f" x="33.66" y="31.17" width="30.8" height="3.3" rx="1.65" ry="1.65" transform="translate(98.12 65.64) rotate(-180)"/><rect class="g" x="26.28" y="45.29" width="38.18" height="3.3" rx="1.65" ry="1.65"/><rect class="f" x="26.28" y="45.29" width="24.51" height="3.3" rx="1.65" ry="1.65"/><rect class="g" x="26.28" y="59.93" width="38.18" height="3.3" rx="1.65" ry="1.65"/><rect class="f" x="26.28" y="59.93" width="22.46" height="3.3" rx="1.65" ry="1.65"/><text class="c" transform="translate(15.69 5.41)"><tspan x="0" y="0">74%</tspan></text><text class="c" transform="translate(15.78 19.18)"><tspan x="0" y="0">70%</tspan></text><text class="b" transform="translate(16.91 34)"><tspan x="0" y="0">21%</tspan></text><text class="c" transform="translate(16.27 62.76)"><tspan x="0" y="0">58%</tspan></text><text class="b" transform="translate(67.05 4.31)"><tspan x="0" y="0">26%</tspan></text><text class="b" transform="translate(67.05 19.18)"><tspan x="0" y="0">30%</tspan></text><text class="c" transform="translate(66.83 33.3)"><tspan x="0" y="0">79%</tspan></text><text class="b" transform="translate(66.83 47.59)"><tspan x="0" y="0">40%</tspan></text><text class="b" transform="translate(67.17 62.13)"><tspan x="0" y="0">42%</tspan></text><text class="e" transform="translate(.82 10.64)"><tspan x="0" y="0">EXTRAVERTED</tspan></text><text class="d" transform="translate(66.78 9.86)"><tspan x="0" y="0">INTROVERTED</tspan></text><text class="e" transform="translate(7.74 24.19)"><tspan x="0" y="0">INTUITIVE</tspan></text><text class="d" transform="translate(66.78 24.84)"><tspan x="0" y="0">OBSERVANT</tspan></text><text class="d" transform="translate(7.68 38.47)"><tspan x="0" y="0">THINKING</tspan></text><text class="e" transform="translate(66.78 38.28)"><tspan x="0" y="0">FEELING</tspan></text><text class="e" transform="translate(9.98 53.84)"><tspan x="0" y="0">JUDGING</tspan></text><text class="d" transform="translate(66.78 53.41)"><tspan x="0" y="0">PROSPECTING</tspan></text><text class="e" transform="translate(7.31 67.75)"><tspan x="0" y="0">ASSERTIVE</tspan></text><text class="d" transform="translate(67.17 66.55)"><tspan x="0" y="0">TURBULENT</tspan></text></svg>