<?xml version="1.0" encoding="UTF-8"?><svg id="a" xmlns="http://www.w3.org/2000/svg" viewBox="0 0 92.2 70.3"><defs><style>.b,.c{fill:none;}.d,.e{fill:#201abd;}.e{stroke:#201abd;}.e,.c{stroke-miterlimit:10;stroke-width:.5px;}.c{stroke:#000;}</style></defs><rect class="b" x="14.7" y="44" width="9.2" height="4.7"/><g><path class="d" d="M14.33,46.02c0-.62,.18-1.11,.54-1.47,.36-.37,.89-.55,1.59-.55h.07v.58h-.06c-.45,0-.8,.11-1.05,.33-.25,.22-.38,.59-.38,1.1l.05,.12c0,.38,.05,.63,.16,.77,.1,.14,.24,.21,.42,.21s.3-.06,.39-.17c.08-.12,.12-.28,.12-.5,0-.2-.04-.36-.13-.49s-.22-.18-.4-.18c-.16,0-.3,.06-.4,.18-.11,.12-.16,.28-.16,.47h-.24c0-.34,.09-.62,.26-.85s.42-.34,.73-.34c.34,0,.61,.11,.81,.33s.29,.51,.29,.87-.11,.66-.33,.89c-.22,.23-.53,.34-.93,.34-.38,0-.69-.12-.94-.36-.25-.24-.38-.64-.38-1.19v-.09Z"/><path class="d" d="M17.19,45.27c0-.39,.11-.71,.32-.94s.52-.36,.92-.36,.71,.12,.92,.36c.21,.24,.32,.55,.32,.95v1.09c0,.39-.11,.71-.32,.94-.21,.24-.52,.36-.92,.36s-.71-.12-.92-.36c-.21-.24-.32-.55-.32-.94v-1.09Zm.88,1.64c.07,.12,.19,.18,.36,.18s.28-.06,.36-.18,.11-.28,.11-.48v-1.22c0-.2-.04-.36-.11-.48-.07-.12-.19-.18-.35-.18s-.29,.06-.36,.18c-.07,.12-.11,.28-.11,.48v1.22c0,.2,.04,.36,.11,.48Z"/><path class="d" d="M19.99,44.76c0-.24,.08-.43,.23-.57,.15-.14,.37-.21,.63-.21s.48,.07,.63,.21c.15,.14,.23,.33,.23,.57v.42c0,.24-.08,.44-.23,.58s-.36,.21-.63,.21-.48-.07-.63-.21c-.15-.14-.23-.33-.23-.58v-.42Zm.65,.67c.04,.06,.11,.09,.22,.09s.17-.03,.22-.09c.04-.06,.06-.14,.06-.24v-.43c0-.1-.02-.17-.06-.23-.04-.06-.11-.09-.22-.09s-.17,.03-.22,.09c-.04,.06-.06,.14-.06,.23v.43c0,.1,.02,.18,.06,.24Zm.71,2.27l-.41-.25,2.09-3.53,.42,.25-2.09,3.54Zm1.29-1.24c0-.24,.08-.43,.23-.57,.15-.14,.37-.21,.63-.21s.48,.07,.63,.21,.23,.33,.23,.57v.42c0,.24-.08,.44-.23,.58s-.36,.21-.63,.21-.48-.07-.63-.21c-.15-.14-.23-.33-.23-.58v-.42Zm.65,.67c.04,.06,.11,.09,.22,.09s.17-.03,.22-.09c.04-.06,.06-.14,.06-.24v-.43c0-.1-.02-.17-.06-.23-.04-.06-.11-.09-.22-.09s-.17,.03-.22,.09c-.04,.06-.06,.14-.06,.23v.43c0,.1,.02,.18,.06,.24Z"/></g><path class="c" d="M62.8,5.3H27.9c-.9,0-1.7-.7-1.7-1.7h0c.1-.8,.8-1.6,1.7-1.6H62.8c.9,0,1.7,.7,1.7,1.7h0c0,.9-.8,1.6-1.7,1.6Z"/><path class="e" d="M53.3,5.3H27.9c-.9,0-1.7-.7-1.7-1.7h0c.1-.8,.8-1.6,1.7-1.6h25.3c.9,0,1.7,.7,1.7,1.7h0c0,.9-.7,1.6-1.6,1.6Z"/><path class="c" d="M62.8,20.3H27.9c-.9,0-1.7-.7-1.7-1.7h0c0-.9,.7-1.7,1.7-1.7H62.8c.9,0,1.7,.7,1.7,1.7h0c0,1-.8,1.7-1.7,1.7Z"/><path class="e" d="M51.5,20.3H27.9c-.9,0-1.7-.7-1.7-1.7h0c0-.9,.7-1.7,1.7-1.7h23.6c.9,0,1.7,.7,1.7,1.7h0c0,1-.8,1.7-1.7,1.7Z"/><path class="c" d="M27.9,34.5H62.8c.9,0,1.7-.7,1.7-1.7h0c0-.9-.7-1.7-1.7-1.7H27.9c-.9,0-1.7,.7-1.7,1.7h0c.1,.9,.8,1.7,1.7,1.7Z"/><path class="e" d="M35.3,34.5h27.5c.9,0,1.7-.7,1.7-1.7h0c0-.9-.7-1.7-1.7-1.7h-27.5c-.9,0-1.7,.7-1.7,1.7h0c.1,.9,.8,1.7,1.7,1.7Z"/><path class="c" d="M62.8,48.6H27.9c-.9,0-1.7-.7-1.7-1.7h0c0-.9,.7-1.7,1.7-1.7H62.8c.9,0,1.7,.7,1.7,1.7h0c0,1-.8,1.7-1.7,1.7Z"/><path class="e" d="M49.1,48.6H27.9c-.9,0-1.7-.7-1.7-1.7h0c0-.9,.7-1.7,1.7-1.7h21.2c.9,0,1.7,.7,1.7,1.7h0c0,1-.8,1.7-1.7,1.7Z"/><path class="c" d="M62.8,63.2H27.9c-.9,0-1.7-.7-1.7-1.7h0c0-.9,.7-1.7,1.7-1.7H62.8c.9,0,1.7,.7,1.7,1.7h0c0,1-.8,1.7-1.7,1.7Z"/><path class="e" d="M47.1,63.2H27.9c-.9,0-1.7-.7-1.7-1.7h0c0-.9,.7-1.7,1.7-1.7h19.2c.9,0,1.7,.7,1.7,1.7h0c-.1,1-.8,1.7-1.7,1.7Z"/><rect class="b" x="14.7" y="1.8" width="9.2" height="4.7"/><g><path class="d" d="M15.94,2.58h-1.74v-.62h2.52v.49l-1.29,3.06h-.79l1.31-2.94Z"/><path class="d" d="M18.55,4.55v-1.59h-.02l-.82,1.21h1.96v.56h-2.7v-.48l1.6-2.29h.72v3.55h-.73v-.96Z"/><path class="d" d="M19.88,2.68c0-.24,.08-.43,.23-.57,.15-.14,.37-.21,.63-.21s.48,.07,.63,.21c.15,.14,.23,.33,.23,.57v.42c0,.24-.08,.44-.23,.58s-.36,.21-.63,.21-.48-.07-.63-.21c-.15-.14-.23-.33-.23-.58v-.42Zm.65,.67c.04,.06,.11,.09,.22,.09s.17-.03,.22-.09c.04-.06,.06-.14,.06-.24v-.43c0-.1-.02-.17-.06-.23-.04-.06-.11-.09-.22-.09s-.17,.03-.22,.09c-.04,.06-.06,.14-.06,.23v.43c0,.1,.02,.18,.06,.24Zm.71,2.27l-.41-.25,2.09-3.53,.42,.25-2.09,3.54Zm1.29-1.24c0-.24,.08-.43,.23-.57,.15-.14,.37-.21,.63-.21s.48,.07,.63,.21,.23,.33,.23,.57v.42c0,.24-.08,.44-.23,.58s-.36,.21-.63,.21-.48-.07-.63-.21c-.15-.14-.23-.33-.23-.58v-.42Zm.65,.67c.04,.06,.11,.09,.22,.09s.17-.03,.22-.09c.04-.06,.06-.14,.06-.24v-.43c0-.1-.02-.17-.06-.23-.04-.06-.11-.09-.22-.09s-.17,.03-.22,.09c-.04,.06-.06,.14-.06,.23v.43c0,.1,.02,.18,.06,.24Z"/></g><rect class="b" x="14.7" y="15.6" width="9.2" height="4.7"/><g><path class="d" d="M16.05,16.83h-1.74v-.62h2.52v.49l-1.29,3.06h-.79l1.31-2.94Z"/><path class="d" d="M17.19,17.45c0-.39,.11-.71,.32-.94s.52-.36,.92-.36,.71,.12,.92,.36c.21,.24,.32,.55,.32,.95v1.09c0,.39-.11,.71-.32,.94-.21,.24-.52,.36-.92,.36s-.71-.12-.92-.36c-.21-.24-.32-.55-.32-.94v-1.09Zm.88,1.64c.07,.12,.19,.18,.36,.18s.28-.06,.36-.18,.11-.28,.11-.48v-1.22c0-.2-.04-.36-.11-.48-.07-.12-.19-.18-.35-.18s-.29,.06-.36,.18c-.07,.12-.11,.28-.11,.48v1.22c0,.2,.04,.36,.11,.48Z"/><path class="d" d="M19.99,16.93c0-.24,.08-.43,.23-.57,.15-.14,.37-.21,.63-.21s.48,.07,.63,.21c.15,.14,.23,.33,.23,.57v.42c0,.24-.08,.44-.23,.58s-.36,.21-.63,.21-.48-.07-.63-.21c-.15-.14-.23-.33-.23-.58v-.42Zm.65,.67c.04,.06,.11,.09,.22,.09s.17-.03,.22-.09c.04-.06,.06-.14,.06-.24v-.43c0-.1-.02-.17-.06-.23-.04-.06-.11-.09-.22-.09s-.17,.03-.22,.09c-.04,.06-.06,.14-.06,.23v.43c0,.1,.02,.18,.06,.24Zm.71,2.27l-.41-.25,2.09-3.53,.42,.25-2.09,3.54Zm1.29-1.24c0-.24,.08-.43,.23-.57,.15-.14,.37-.21,.63-.21s.48,.07,.63,.21,.23,.33,.23,.57v.42c0,.24-.08,.44-.23,.58s-.36,.21-.63,.21-.48-.07-.63-.21c-.15-.14-.23-.33-.23-.58v-.42Zm.65,.67c.04,.06,.11,.09,.22,.09s.17-.03,.22-.09c.04-.06,.06-.14,.06-.24v-.43c0-.1-.02-.17-.06-.23-.04-.06-.11-.09-.22-.09s-.17,.03-.22,.09c-.04,.06-.06,.14-.06,.23v.43c0,.1,.02,.18,.06,.24Z"/></g><rect class="b" x="14.7" y="30.4" width="9.2" height="4.7"/><g><path d="M14.38,33.55l1.21-1.37c.14-.15,.25-.29,.32-.42,.08-.12,.12-.25,.12-.38,0-.12-.04-.23-.11-.31s-.18-.12-.32-.12-.26,.05-.34,.15-.13,.24-.13,.44v.07h-.76v-.08c0-.34,.11-.61,.33-.82s.52-.32,.9-.32c.4,0,.7,.09,.9,.27,.2,.18,.3,.42,.31,.7,0,.24-.06,.45-.19,.63-.12,.18-.27,.37-.45,.56l-.81,.87h1.52v.59h-2.5v-.45Z"/><path d="M18.24,31.17l-.84,.32v-.62l1.22-.46h.38v3.59h-.75v-2.83Z"/><path d="M19.99,31.17c0-.24,.08-.43,.23-.57,.15-.14,.37-.21,.63-.21s.48,.07,.63,.21c.15,.14,.23,.33,.23,.57v.42c0,.24-.08,.44-.23,.58s-.36,.21-.63,.21-.48-.07-.63-.21c-.15-.14-.23-.33-.23-.58v-.42Zm.65,.67c.04,.06,.11,.09,.22,.09s.17-.03,.22-.09c.04-.06,.06-.14,.06-.24v-.43c0-.1-.02-.17-.06-.23-.04-.06-.11-.09-.22-.09s-.17,.03-.22,.09c-.04,.06-.06,.14-.06,.23v.43c0,.1,.02,.18,.06,.24Zm.71,2.27l-.41-.25,2.09-3.53,.42,.25-2.09,3.54Zm1.29-1.24c0-.24,.08-.43,.23-.57,.15-.14,.37-.21,.63-.21s.48,.07,.63,.21,.23,.33,.23,.57v.42c0,.24-.08,.44-.23,.58s-.36,.21-.63,.21-.48-.07-.63-.21c-.15-.14-.23-.33-.23-.58v-.42Zm.65,.67c.04,.06,.11,.09,.22,.09s.17-.03,.22-.09c.04-.06,.06-.14,.06-.24v-.43c0-.1-.02-.17-.06-.23-.04-.06-.11-.09-.22-.09s-.17,.03-.22,.09c-.04,.06-.06,.14-.06,.23v.43c0,.1,.02,.18,.06,.24Z"/></g><rect class="b" x="14.7" y="59.1" width="9.2" height="4.7"/><g><path class="d" d="M14.34,61.85h.75v.05c0,.15,.04,.26,.13,.34s.21,.12,.38,.12,.29-.06,.38-.17,.13-.27,.13-.48-.04-.37-.13-.47c-.09-.11-.21-.16-.37-.16-.12,0-.22,.03-.31,.08-.08,.05-.16,.12-.23,.2l-.6-.28,.18-1.77h2.02v.6h-1.42l-.09,.78c.06-.04,.15-.08,.24-.12s.21-.05,.33-.05c.33,0,.6,.1,.81,.31s.31,.49,.31,.86-.11,.68-.33,.91-.53,.34-.93,.34-.73-.1-.94-.29-.32-.44-.32-.73v-.05Z"/><path class="d" d="M17.36,61.33c.14-.15,.3-.25,.48-.31h0c-.16-.08-.3-.18-.41-.32-.11-.14-.16-.31-.16-.52,0-.28,.1-.51,.31-.69,.21-.18,.49-.27,.85-.27s.64,.09,.85,.27c.21,.18,.31,.41,.31,.69,0,.2-.05,.37-.15,.51s-.23,.24-.39,.31h0c.18,.06,.34,.16,.46,.31,.13,.15,.19,.35,.19,.58,0,.32-.12,.57-.35,.75-.23,.18-.54,.27-.93,.27s-.7-.09-.93-.27c-.23-.18-.35-.43-.35-.75,0-.24,.07-.43,.21-.58Zm.69,.91c.09,.1,.22,.15,.38,.15s.29-.05,.38-.15c.09-.1,.13-.22,.13-.39s-.04-.3-.13-.4-.21-.15-.39-.15-.3,.05-.39,.15-.13,.23-.13,.4,.04,.29,.13,.39Zm.06-1.61c.07,.09,.18,.14,.32,.14s.26-.05,.32-.14,.1-.22,.1-.37-.04-.26-.11-.36-.18-.14-.32-.14-.25,.05-.32,.14-.11,.21-.11,.36,.03,.27,.1,.37Z"/><path class="d" d="M19.99,60.02c0-.24,.08-.43,.23-.57,.15-.14,.37-.21,.63-.21s.48,.07,.63,.21,.23,.33,.23,.57v.42c0,.24-.08,.44-.23,.58s-.36,.21-.63,.21-.48-.07-.63-.21c-.15-.14-.23-.33-.23-.58v-.42Zm.65,.66c.04,.06,.11,.09,.22,.09s.17-.03,.22-.09c.04-.06,.06-.14,.06-.23v-.43c0-.1-.02-.17-.06-.23-.04-.06-.11-.09-.22-.09s-.17,.03-.22,.09c-.04,.06-.06,.14-.06,.23v.43c0,.1,.02,.18,.06,.23Zm.71,2.27l-.41-.25,2.09-3.53,.42,.25-2.09,3.54Zm1.29-1.24c0-.24,.08-.43,.23-.57,.15-.14,.37-.21,.63-.21s.48,.07,.63,.21c.15,.14,.23,.33,.23,.57v.42c0,.24-.08,.44-.23,.58s-.36,.21-.63,.21-.48-.07-.63-.21c-.15-.14-.23-.33-.23-.58v-.42Zm.65,.67c.04,.06,.11,.09,.22,.09s.17-.03,.22-.09c.04-.06,.06-.14,.06-.24v-.43c0-.1-.02-.17-.06-.23-.04-.06-.11-.09-.22-.09s-.17,.03-.22,.09c-.04,.06-.06,.14-.06,.23v.43c0,.1,.02,.18,.06,.24Z"/></g><rect class="b" x="67.1" y=".7" width="9.2" height="4.7"/><g><path d="M67.23,3.86l1.21-1.37c.14-.15,.25-.29,.32-.42,.08-.12,.12-.25,.12-.38,0-.12-.04-.23-.11-.31-.07-.08-.18-.12-.32-.12s-.26,.05-.34,.15c-.09,.1-.13,.24-.13,.44v.07h-.76v-.08c0-.34,.11-.61,.33-.82,.22-.21,.52-.32,.9-.32,.4,0,.7,.09,.9,.27,.2,.18,.3,.42,.3,.7,0,.24-.06,.45-.19,.63-.12,.18-.27,.37-.45,.56l-.81,.87h1.52v.59h-2.5v-.45Z"/><path d="M70.01,2.74c0-.62,.18-1.11,.54-1.47s.89-.55,1.59-.55h.07v.58h-.06c-.45,0-.8,.11-1.05,.33s-.38,.59-.38,1.1l.05,.12c0,.38,.05,.63,.16,.77,.1,.14,.24,.21,.42,.21s.3-.06,.39-.17c.08-.12,.12-.28,.12-.5,0-.2-.04-.36-.13-.49-.08-.12-.22-.18-.4-.18-.16,0-.3,.06-.4,.18s-.16,.28-.16,.47h-.24c0-.34,.09-.62,.26-.85,.17-.23,.42-.34,.73-.34,.34,0,.61,.11,.81,.33,.19,.22,.29,.51,.29,.87s-.11,.66-.33,.89-.53,.34-.93,.34c-.38,0-.69-.12-.94-.36-.25-.24-.38-.64-.38-1.19v-.09Z"/><path d="M72.85,1.48c0-.24,.08-.43,.23-.57,.15-.14,.37-.21,.63-.21s.48,.07,.63,.21c.15,.14,.23,.33,.23,.57v.42c0,.24-.08,.44-.23,.58-.15,.14-.36,.21-.63,.21s-.48-.07-.63-.21c-.15-.14-.23-.33-.23-.58v-.42Zm.65,.67c.04,.06,.12,.09,.22,.09s.17-.03,.22-.09c.04-.06,.07-.14,.07-.24v-.43c0-.1-.02-.17-.07-.23-.04-.06-.11-.09-.22-.09s-.17,.03-.22,.09-.06,.14-.06,.23v.43c0,.1,.02,.18,.06,.24Zm.71,2.27l-.41-.25,2.09-3.53,.42,.25-2.09,3.54Zm1.29-1.24c0-.24,.08-.43,.23-.57,.15-.14,.37-.21,.63-.21s.48,.07,.63,.21c.15,.14,.23,.33,.23,.57v.42c0,.24-.08,.44-.23,.58-.15,.14-.36,.21-.63,.21s-.48-.07-.63-.21c-.15-.14-.23-.33-.23-.58v-.42Zm.65,.67c.04,.06,.12,.09,.22,.09s.17-.03,.22-.09c.04-.06,.07-.14,.07-.24v-.43c0-.1-.02-.17-.07-.23-.04-.06-.11-.09-.22-.09s-.17,.03-.22,.09c-.04,.06-.06,.14-.06,.23v.43c0,.1,.02,.18,.06,.24Z"/></g><rect class="b" x="67.1" y="15.6" width="9.2" height="4.7"/><g><path d="M67.17,18.15h.75v.05c0,.16,.04,.28,.13,.37,.09,.09,.21,.13,.38,.13s.29-.04,.38-.13c.09-.09,.13-.23,.13-.41s-.05-.31-.15-.4c-.1-.09-.25-.13-.44-.13h-.32v-.54h.3c.17,0,.29-.04,.38-.13,.08-.09,.13-.21,.13-.36s-.04-.26-.1-.34c-.07-.08-.17-.12-.31-.12s-.25,.04-.32,.12c-.07,.08-.11,.19-.11,.33v.04h-.75v-.04c0-.28,.1-.52,.31-.72,.21-.2,.5-.3,.88-.3s.68,.09,.87,.27c.19,.18,.29,.4,.29,.65,0,.19-.05,.36-.14,.51-.09,.15-.23,.26-.42,.33h0c.21,.06,.37,.16,.49,.31,.12,.15,.18,.33,.18,.56,0,.33-.11,.6-.34,.79-.23,.19-.54,.29-.95,.29s-.72-.1-.93-.29-.31-.45-.31-.76v-.05Z"/><path d="M70.05,16.86c0-.39,.11-.71,.32-.94,.21-.24,.52-.36,.92-.36s.71,.12,.92,.36c.21,.24,.32,.55,.32,.95v1.09c0,.39-.11,.71-.32,.94s-.52,.36-.92,.36-.71-.12-.92-.36c-.21-.24-.32-.55-.32-.94v-1.09Zm.88,1.64c.07,.12,.19,.18,.36,.18s.28-.06,.36-.18c.07-.12,.11-.28,.11-.48v-1.22c0-.2-.04-.36-.11-.48-.07-.12-.19-.18-.35-.18s-.29,.06-.36,.18c-.07,.12-.11,.28-.11,.48v1.22c0,.2,.04,.36,.11,.48Z"/><path d="M72.85,16.35c0-.24,.08-.43,.23-.57,.15-.14,.37-.21,.63-.21s.48,.07,.63,.21c.15,.14,.23,.33,.23,.57v.42c0,.24-.08,.44-.23,.58-.15,.14-.36,.21-.63,.21s-.48-.07-.63-.21c-.15-.14-.23-.33-.23-.58v-.42Zm.65,.67c.04,.06,.12,.09,.22,.09s.17-.03,.22-.09c.04-.06,.07-.14,.07-.24v-.43c0-.1-.02-.17-.07-.23-.04-.06-.11-.09-.22-.09s-.17,.03-.22,.09-.06,.14-.06,.23v.43c0,.1,.02,.18,.06,.24Zm.71,2.27l-.41-.25,2.09-3.53,.42,.25-2.09,3.54Zm1.29-1.24c0-.24,.08-.43,.23-.57,.15-.14,.37-.21,.63-.21s.48,.07,.63,.21c.15,.14,.23,.33,.23,.57v.42c0,.24-.08,.44-.23,.58-.15,.14-.36,.21-.63,.21s-.48-.07-.63-.21c-.15-.14-.23-.33-.23-.58v-.42Zm.65,.67c.04,.06,.12,.09,.22,.09s.17-.03,.22-.09c.04-.06,.07-.14,.07-.24v-.43c0-.1-.02-.17-.07-.23-.04-.06-.11-.09-.22-.09s-.17,.03-.22,.09c-.04,.06-.06,.14-.06,.23v.43c0,.1,.02,.18,.06,.24Z"/></g><rect class="b" x="66.8" y="29.7" width="9.2" height="4.7"/><g><path class="d" d="M68.69,30.36h-1.74v-.62h2.52v.49l-1.29,3.06h-.79l1.31-2.94Z"/><path class="d" d="M70.08,30.02c.22-.23,.53-.34,.93-.34,.38,0,.69,.12,.94,.36,.25,.24,.38,.64,.38,1.19v.09c0,.6-.18,1.07-.54,1.43-.36,.36-.89,.54-1.58,.55h-.07v-.58h.06c.45,0,.79-.11,1.04-.33,.25-.22,.37-.57,.37-1.06l-.04-.12c0-.36-.05-.61-.15-.76-.1-.15-.24-.22-.43-.22-.17,0-.3,.06-.38,.17-.08,.11-.12,.28-.12,.49s.04,.37,.12,.48c.08,.12,.21,.17,.39,.17s.31-.06,.41-.18,.16-.27,.16-.46h.21c0,.31-.08,.59-.24,.82s-.4,.36-.73,.36-.61-.11-.8-.33c-.19-.22-.29-.5-.29-.86s.11-.66,.33-.88Z"/><path class="d" d="M72.63,30.47c0-.24,.08-.43,.23-.57,.15-.14,.37-.21,.63-.21s.48,.07,.63,.21c.15,.14,.23,.33,.23,.57v.42c0,.24-.08,.44-.23,.58-.15,.14-.36,.21-.63,.21s-.48-.07-.63-.21c-.15-.14-.23-.33-.23-.58v-.42Zm.65,.67c.04,.06,.12,.09,.22,.09s.17-.03,.22-.09c.04-.06,.07-.14,.07-.24v-.43c0-.1-.02-.17-.07-.23-.04-.06-.11-.09-.22-.09s-.17,.03-.22,.09-.06,.14-.06,.23v.43c0,.1,.02,.18,.06,.24Zm.71,2.27l-.41-.25,2.09-3.53,.42,.25-2.09,3.54Zm1.29-1.24c0-.24,.08-.43,.23-.57,.15-.14,.37-.21,.63-.21s.48,.07,.63,.21c.15,.14,.23,.33,.23,.57v.42c0,.24-.08,.44-.23,.58-.15,.14-.36,.21-.63,.21s-.48-.07-.63-.21c-.15-.14-.23-.33-.23-.58v-.42Zm.65,.67c.04,.06,.12,.09,.22,.09s.17-.03,.22-.09c.04-.06,.07-.14,.07-.24v-.43c0-.1-.02-.17-.07-.23-.04-.06-.11-.09-.22-.09s-.17,.03-.22,.09c-.04,.06-.06,.14-.06,.23v.43c0,.1,.02,.18,.06,.24Z"/></g><rect class="b" x="66.8" y="44" width="9.2" height="4.7"/><g><path d="M68.48,46.63v-1.59h-.02l-.82,1.21h1.96v.56h-2.7v-.48l1.6-2.29h.72v3.55h-.74v-.96Z"/><path d="M69.83,45.27c0-.39,.11-.71,.32-.94,.21-.24,.52-.36,.92-.36s.71,.12,.92,.36c.21,.24,.32,.55,.32,.95v1.09c0,.39-.11,.71-.32,.94s-.52,.36-.92,.36-.71-.12-.92-.36c-.21-.24-.32-.55-.32-.94v-1.09Zm.88,1.64c.07,.12,.19,.18,.36,.18s.28-.06,.36-.18c.07-.12,.11-.28,.11-.48v-1.22c0-.2-.04-.36-.11-.48-.07-.12-.19-.18-.35-.18s-.29,.06-.36,.18c-.07,.12-.11,.28-.11,.48v1.22c0,.2,.04,.36,.11,.48Z"/><path d="M72.63,44.76c0-.24,.08-.43,.23-.57,.15-.14,.37-.21,.63-.21s.48,.07,.63,.21c.15,.14,.23,.33,.23,.57v.42c0,.24-.08,.44-.23,.58-.15,.14-.36,.21-.63,.21s-.48-.07-.63-.21c-.15-.14-.23-.33-.23-.58v-.42Zm.65,.67c.04,.06,.12,.09,.22,.09s.17-.03,.22-.09c.04-.06,.07-.14,.07-.24v-.43c0-.1-.02-.17-.07-.23-.04-.06-.11-.09-.22-.09s-.17,.03-.22,.09-.06,.14-.06,.23v.43c0,.1,.02,.18,.06,.24Zm.71,2.27l-.41-.25,2.09-3.53,.42,.25-2.09,3.54Zm1.29-1.24c0-.24,.08-.43,.23-.57,.15-.14,.37-.21,.63-.21s.48,.07,.63,.21c.15,.14,.23,.33,.23,.57v.42c0,.24-.08,.44-.23,.58-.15,.14-.36,.21-.63,.21s-.48-.07-.63-.21c-.15-.14-.23-.33-.23-.58v-.42Zm.65,.67c.04,.06,.12,.09,.22,.09s.17-.03,.22-.09c.04-.06,.07-.14,.07-.24v-.43c0-.1-.02-.17-.07-.23-.04-.06-.11-.09-.22-.09s-.17,.03-.22,.09c-.04,.06-.06,.14-.06,.23v.43c0,.1,.02,.18,.06,.24Z"/></g><rect class="b" x="67.2" y="58.5" width="9.2" height="4.7"/><g><path d="M68.82,61.17v-1.59h-.02l-.82,1.21h1.96v.56h-2.7v-.48l1.6-2.29h.72v3.55h-.74v-.96Z"/><path d="M70.17,61.68l1.21-1.37c.14-.15,.25-.29,.32-.42,.08-.12,.12-.25,.12-.38,0-.12-.04-.23-.11-.31-.07-.08-.18-.12-.32-.12s-.26,.05-.34,.15c-.09,.1-.13,.24-.13,.44v.07h-.76v-.08c0-.34,.11-.61,.33-.82,.22-.21,.52-.32,.9-.32,.4,0,.7,.09,.9,.27,.2,.18,.3,.42,.3,.7,0,.24-.06,.45-.19,.63-.12,.18-.27,.37-.45,.56l-.81,.87h1.52v.59h-2.5v-.45Z"/><path d="M72.96,59.3c0-.24,.08-.43,.23-.57,.15-.14,.37-.21,.63-.21s.48,.07,.63,.21c.15,.14,.23,.33,.23,.57v.42c0,.24-.08,.44-.23,.58-.15,.14-.36,.21-.63,.21s-.48-.07-.63-.21c-.15-.14-.23-.33-.23-.58v-.42Zm.65,.67c.04,.06,.12,.09,.22,.09s.17-.03,.22-.09c.04-.06,.07-.14,.07-.24v-.43c0-.1-.02-.17-.07-.23-.04-.06-.11-.09-.22-.09s-.17,.03-.22,.09-.06,.14-.06,.23v.43c0,.1,.02,.18,.06,.24Zm.71,2.27l-.41-.25,2.09-3.53,.42,.25-2.09,3.54Zm1.29-1.24c0-.24,.08-.43,.23-.57,.15-.14,.37-.21,.63-.21s.48,.07,.63,.21c.15,.14,.23,.33,.23,.57v.42c0,.24-.08,.44-.23,.58-.15,.14-.36,.21-.63,.21s-.48-.07-.63-.21c-.15-.14-.23-.33-.23-.58v-.42Zm.65,.67c.04,.06,.12,.09,.22,.09s.17-.03,.22-.09c.04-.06,.07-.14,.07-.24v-.43c0-.1-.02-.17-.07-.23-.04-.06-.11-.09-.22-.09s-.17,.03-.22,.09c-.04,.06-.06,.14-.06,.23v.43c0,.1,.02,.18,.06,.24Z"/></g><rect class="b" y="8.5" width="25" height="4.7"/><g><path class="d" d="M10.81,7.74h.96v.23h-.66v.35h.57v.22h-.57v.39h.67v.23h-.97v-1.42Z"/><path class="d" d="M12.35,8.36h.05l.37-.62h.3l-.48,.78h-.05l-.4,.65h-.31l.52-.8Zm-.15-.62l.38,.62h0l.53,.8h-.35l-.4-.64h0l-.5-.78h.35Z"/><path class="d" d="M13.13,7.74h1.15v.23h-.42v1.19h-.3v-1.19h-.42v-.23Z"/><path class="d" d="M14.45,7.74h.52c.17,0,.3,.04,.39,.12,.09,.08,.14,.19,.14,.33s-.05,.25-.14,.34-.22,.12-.39,.12h-.22v.52h-.3v-1.42Zm.51,.68c.09,0,.15-.02,.18-.06,.04-.04,.05-.1,.05-.17s-.02-.13-.05-.17-.1-.06-.18-.06h-.21v.46h.21Zm-.06,.08h.32l.35,.66h-.33l-.33-.66Z"/><path class="d" d="M16.09,7.73h.32l.55,1.43h-.32l-.37-1s-.01-.04-.02-.06,0-.04-.01-.06h0s0,.04-.01,.06c0,.02-.01,.04-.02,.06l-.37,1h-.28l.54-1.43Zm-.16,.89h.63l.07,.22h-.77l.07-.22Z"/><path class="d" d="M17.19,7.74l.35,.97s.01,.04,.02,.05v.05h.02s0-.04,.01-.05l.02-.05,.35-.97h.29l-.53,1.43h-.32l-.53-1.43h.33Z"/><path class="d" d="M18.36,7.74h.96v.23h-.66v.35h.57v.22h-.57v.39h.67v.23h-.97v-1.42Z"/><path class="d" d="M19.54,7.74h.52c.17,0,.3,.04,.39,.12,.09,.08,.14,.19,.14,.33s-.05,.25-.14,.34-.22,.12-.39,.12h-.22v.52h-.3v-1.42Zm.51,.68c.09,0,.15-.02,.18-.06,.04-.04,.05-.1,.05-.17s-.02-.13-.05-.17-.1-.06-.18-.06h-.21v.46h.21Zm-.06,.08h.32l.35,.66h-.33l-.33-.66Z"/><path class="d" d="M20.62,7.74h1.15v.23h-.42v1.19h-.3v-1.19h-.42v-.23Z"/><path class="d" d="M21.94,7.74h.96v.23h-.66v.35h.57v.22h-.57v.39h.67v.23h-.97v-1.42Z"/><path class="d" d="M23.12,7.74h.48c.19,0,.35,.06,.48,.18,.13,.12,.19,.28,.19,.49v.09c0,.21-.06,.37-.19,.49s-.29,.18-.48,.18h-.48v-1.42Zm.47,1.2c.11,0,.2-.04,.27-.11s.1-.18,.1-.33v-.1c0-.14-.03-.25-.1-.33-.07-.07-.16-.11-.27-.11h-.17v.97h.17Z"/></g><rect class="b" x="66.8" y="7.7" width="25" height="4.7"/><g><path d="M67.19,7.74h.3v1.42h-.3v-1.42Z"/><path d="M67.79,7.74h.32l.51,.88s.02,.04,.03,.06c0,.02,.02,.04,.02,.06h0s0-.04,0-.06v-.93h.26v1.42h-.33l-.5-.87s-.02-.04-.03-.06c0-.02-.02-.04-.02-.06h0s0,.04,0,.07c0,.02,0,.04,0,.07v.86h-.26v-1.42Z"/><path d="M69.1,7.74h1.15v.23h-.42v1.19h-.3v-1.19h-.42v-.23Z"/><path d="M70.42,7.74h.52c.17,0,.29,.04,.39,.12,.09,.08,.14,.19,.14,.33s-.05,.25-.14,.34c-.09,.08-.22,.12-.39,.12h-.22v.52h-.3v-1.42Zm.51,.68c.09,0,.15-.02,.18-.06,.04-.04,.05-.1,.05-.17s-.02-.13-.05-.17c-.04-.04-.1-.06-.18-.06h-.21v.46h.21Zm-.06,.08h.32l.35,.66h-.33l-.33-.66Z"/><path d="M71.64,8.4c0-.23,.06-.4,.18-.52,.12-.12,.27-.18,.46-.18s.34,.06,.46,.18c.12,.12,.18,.29,.18,.52v.09c0,.23-.06,.4-.18,.52-.12,.12-.27,.18-.46,.18s-.34-.06-.46-.18c-.12-.12-.18-.29-.18-.52v-.09Zm.4,.45c.06,.07,.14,.11,.24,.11s.18-.04,.24-.11,.09-.18,.09-.33v-.14c0-.15-.03-.26-.09-.33-.06-.07-.14-.11-.24-.11s-.18,.04-.24,.11c-.06,.07-.09,.18-.09,.33v.14c0,.15,.03,.26,.09,.33Z"/><path d="M73.31,7.74l.35,.97s.01,.04,.01,.05v.05h.02s0-.04,.01-.05l.02-.05,.35-.97h.29l-.53,1.43h-.32l-.53-1.43h.33Z"/><path d="M74.48,7.74h.96v.23h-.66v.35h.57v.22h-.57v.39h.67v.23h-.97v-1.42Z"/><path d="M75.66,7.74h.52c.17,0,.29,.04,.39,.12,.09,.08,.14,.19,.14,.33s-.05,.25-.14,.34c-.09,.08-.22,.12-.39,.12h-.22v.52h-.3v-1.42Zm.51,.68c.09,0,.15-.02,.18-.06,.04-.04,.05-.1,.05-.17s-.02-.13-.05-.17c-.04-.04-.1-.06-.18-.06h-.21v.46h.21Zm-.06,.08h.32l.35,.66h-.33l-.33-.66Z"/><path d="M76.74,7.74h1.15v.23h-.42v1.19h-.3v-1.19h-.42v-.23Z"/><path d="M78.06,7.74h.96v.23h-.66v.35h.57v.22h-.57v.39h.67v.23h-.97v-1.42Z"/><path d="M79.24,7.74h.48c.19,0,.35,.06,.48,.18,.13,.12,.19,.28,.19,.49v.09c0,.21-.06,.37-.19,.49-.13,.12-.29,.18-.48,.18h-.48v-1.42Zm.47,1.2c.11,0,.2-.04,.27-.11,.07-.07,.1-.18,.1-.33v-.1c0-.14-.03-.25-.1-.33-.07-.07-.16-.11-.27-.11h-.17v.97h.17Z"/></g><rect class="b" y="22" width="25" height="4.7"/><g><path class="d" d="M14.57,22.48h.3v1.42h-.3v-1.42Z"/><path class="d" d="M15.17,22.48h.32l.51,.88s.02,.04,.03,.06c0,.02,.02,.04,.02,.06h0v-.06s0-.04,0-.06v-.87h.26v1.42h-.33l-.5-.87s-.02-.04-.03-.06c0-.02-.02-.04-.02-.06h0v.07s0,.04,0,.07v.86h-.26v-1.42Z"/><path class="d" d="M16.48,22.48h1.15v.23h-.42v1.19h-.3v-1.19h-.42v-.23Z"/><path class="d" d="M17.78,22.48h.3v.92c0,.11,.02,.19,.07,.24,.05,.05,.11,.07,.19,.07s.14-.02,.19-.07c.05-.04,.07-.12,.07-.24v-.92h.29v.9c0,.19-.05,.33-.16,.42-.11,.09-.24,.13-.4,.13s-.29-.04-.4-.13c-.11-.09-.16-.23-.16-.42v-.9Z"/><path class="d" d="M19.17,22.48h.3v1.42h-.3v-1.42Z"/><path class="d" d="M19.63,22.48h1.15v.23h-.42v1.19h-.3v-1.19h-.42v-.23Z"/><path class="d" d="M20.95,22.48h.3v1.42h-.3v-1.42Z"/><path class="d" d="M21.69,22.48l.35,.97s.01,.04,.02,.05v.05h.02s0-.04,.01-.05l.02-.05,.35-.97h.29l-.53,1.43h-.32l-.53-1.43h.33Z"/><path class="d" d="M22.87,22.48h.96v.23h-.66v.35h.57v.22h-.57v.39h.67v.23h-.97v-1.42Z"/></g><rect class="b" x="66.8" y="22.7" width="25" height="4.7"/><g><path d="M67.2,23.15c0-.23,.06-.4,.18-.52,.12-.12,.27-.18,.46-.18s.34,.06,.46,.18c.12,.12,.18,.29,.18,.52v.09c0,.23-.06,.4-.18,.52-.12,.12-.27,.18-.46,.18s-.34-.06-.46-.18c-.12-.12-.18-.29-.18-.52v-.09Zm.4,.45c.06,.07,.14,.11,.24,.11s.18-.04,.24-.11,.09-.18,.09-.33v-.14c0-.15-.03-.26-.09-.33-.06-.07-.14-.11-.24-.11s-.18,.04-.24,.11c-.06,.07-.09,.18-.09,.33v.14c0,.15,.03,.26,.09,.33Z"/><path d="M68.72,22.48h.53c.16,0,.28,.03,.37,.09s.13,.16,.13,.28c0,.08-.02,.14-.05,.19-.04,.05-.08,.08-.13,.1h0c.06,.02,.12,.06,.16,.12,.04,.06,.06,.13,.06,.22,0,.13-.05,.23-.14,.3s-.22,.11-.37,.11h-.56v-1.42Zm.52,.58c.08,0,.13-.02,.16-.05,.03-.03,.05-.08,.05-.14s-.02-.1-.05-.14c-.03-.03-.09-.05-.16-.05h-.23v.37h.23Zm.03,.63c.08,0,.13-.02,.17-.06,.04-.04,.05-.09,.05-.16s-.02-.12-.05-.15c-.04-.04-.09-.06-.17-.06h-.25v.43h.25Z"/><path d="M69.96,23.47h.31v.02c0,.07,.02,.12,.07,.16,.04,.03,.11,.05,.19,.05s.14-.02,.18-.05,.06-.08,.06-.13-.02-.1-.06-.13c-.04-.03-.13-.06-.27-.1-.15-.04-.26-.09-.34-.16s-.12-.16-.12-.27c0-.13,.05-.23,.14-.3,.1-.08,.23-.11,.39-.11s.29,.04,.39,.12,.15,.18,.15,.31v.02h-.3v-.02c0-.06-.02-.11-.06-.15s-.1-.06-.17-.06-.13,.01-.17,.04c-.04,.03-.05,.07-.05,.12s.02,.09,.06,.11c.04,.03,.13,.06,.27,.09,.15,.04,.26,.09,.34,.16,.08,.07,.12,.17,.12,.3,0,.13-.05,.24-.15,.31-.1,.08-.24,.11-.4,.11s-.3-.04-.41-.11-.16-.18-.16-.32v-.03Z"/><path d="M71.29,22.48h.96v.23h-.66v.35h.57v.22h-.57v.39h.67v.23h-.97v-1.42Z"/><path d="M72.47,22.48h.52c.17,0,.29,.04,.39,.12,.09,.08,.14,.19,.14,.33s-.05,.25-.14,.34c-.09,.08-.22,.12-.39,.12h-.22v.52h-.3v-1.42Zm.51,.68c.09,0,.15-.02,.18-.06,.04-.04,.05-.1,.05-.17s-.02-.13-.05-.17c-.04-.04-.1-.06-.18-.06h-.21v.46h.21Zm-.06,.08h.32l.35,.66h-.33l-.33-.66Z"/><path d="M73.88,22.48l.35,.97s.01,.04,.01,.05v.05h.02s0-.04,.01-.05l.02-.05,.35-.97h.29l-.53,1.43h-.32l-.53-1.43h.33Z"/><path d="M75.38,22.48h.32l.55,1.43h-.32l-.37-1s-.01-.04-.02-.06c0-.02,0-.04-.01-.06h0s0,.04-.01,.06c0,.02-.01,.04-.02,.06l-.37,1h-.28l.54-1.43Zm-.16,.89h.63l.07,.22h-.77l.07-.22Z"/><path d="M76.37,22.48h.32l.51,.88s.02,.04,.03,.06c0,.02,.02,.04,.02,.06h0s0-.04,0-.06v-.93h.26v1.42h-.33l-.5-.87s-.02-.04-.03-.06c0-.02-.02-.04-.02-.06h0s0,.04,0,.07c0,.02,0,.04,0,.07v.86h-.26v-1.42Z"/><path d="M77.68,22.48h1.15v.23h-.42v1.19h-.3v-1.19h-.42v-.23Z"/></g><rect class="b" y="36.3" width="25" height="4.7"/><g><path d="M14.81,36h1.15v.23h-.42v1.19h-.3v-1.19h-.42v-.23Z"/><path d="M16.13,36h.3v.57h.57v-.57h.3v1.42h-.3v-.62h-.57v.62h-.3v-1.42Z"/><path d="M17.6,36h.3v1.42h-.3v-1.42Z"/><path d="M18.2,36h.32l.51,.88s.02,.04,.03,.06c0,.02,.02,.04,.02,.06h0v-.06s0-.04,0-.06v-.87h.26v1.42h-.33l-.5-.87s-.02-.04-.03-.06c0-.02-.02-.04-.02-.06h0v.07s0,.04,0,.07v.86h-.26v-1.42Z"/><path d="M19.65,36h.3v.59l.52-.59h.33l-.84,.93v.49h-.3v-1.42Zm.35,.74l.19-.21,.67,.9h-.36l-.5-.68Z"/><path d="M20.97,36h.3v1.42h-.3v-1.42Z"/><path d="M21.57,36h.32l.51,.88s.02,.04,.03,.06c0,.02,.02,.04,.02,.06h0v-.06s0-.04,0-.06v-.87h.26v1.42h-.33l-.5-.87s-.02-.04-.03-.06c0-.02-.02-.04-.02-.06h0v.07s0,.04,0,.07v.86h-.26v-1.42Z"/><path d="M22.97,36.66c0-.23,.06-.4,.18-.52s.27-.18,.47-.18c.18,0,.31,.04,.42,.13s.15,.19,.15,.32h-.3c0-.06-.02-.11-.07-.16-.05-.04-.12-.07-.21-.07-.1,0-.18,.04-.23,.11s-.09,.18-.09,.33v.15c0,.15,.03,.26,.1,.33,.06,.07,.15,.11,.26,.11,.05,0,.1,0,.14-.02,.04-.01,.08-.03,.11-.06v-.25h-.27v-.22h.57v.58s-.12,.1-.21,.14c-.09,.04-.21,.06-.34,.06-.21,0-.37-.06-.49-.18s-.18-.29-.18-.52v-.09Z"/></g><rect class="b" x="66.8" y="36.1" width="25" height="4.7"/><g><path class="d" d="M67.15,35.97h.94v.23h-.64v.4h.56v.22h-.56v.57h-.3v-1.42Z"/><path class="d" d="M68.3,35.97h.96v.23h-.66v.35h.57v.22h-.57v.39h.67v.23h-.97v-1.42Z"/><path class="d" d="M69.48,35.97h.96v.23h-.66v.35h.57v.22h-.57v.39h.67v.23h-.97v-1.42Z"/><path class="d" d="M70.66,35.97h.3v1.19h.62v.23h-.92v-1.42Z"/><path class="d" d="M71.77,35.97h.3v1.42h-.3v-1.42Z"/><path class="d" d="M72.37,35.97h.32l.51,.88s.02,.04,.03,.06c0,.02,.02,.04,.02,.06h0s0-.04,0-.06v-.93h.26v1.42h-.33l-.5-.87s-.02-.04-.03-.06c0-.02-.02-.04-.02-.06h0s0,.04,0,.07c0,.02,0,.04,0,.07v.86h-.26v-1.42Z"/><path class="d" d="M73.76,36.64c0-.23,.06-.4,.18-.52,.12-.12,.27-.18,.47-.18,.17,0,.31,.04,.42,.13,.1,.09,.15,.19,.15,.32h-.3c0-.06-.02-.11-.07-.16-.05-.04-.12-.07-.21-.07-.1,0-.18,.04-.24,.11-.06,.07-.09,.18-.09,.33v.15c0,.15,.03,.26,.09,.33,.06,.07,.15,.11,.26,.11,.05,0,.1,0,.14-.02,.04-.01,.08-.03,.11-.06v-.25h-.27v-.22h.57v.58s-.12,.1-.21,.14c-.09,.04-.21,.06-.34,.06-.21,0-.37-.06-.49-.18-.12-.12-.18-.29-.18-.52v-.09Z"/></g><rect class="b" y="51.7" width="25" height="4.7"/><g><path class="d" d="M15.49,51.25h.29v.02c0,.09,.02,.15,.05,.18,.03,.03,.08,.05,.14,.05s.11-.02,.14-.06,.05-.1,.05-.2v-.97h.3v.95c0,.16-.04,.29-.13,.37s-.21,.13-.36,.13-.27-.04-.36-.12-.13-.19-.13-.35v-.02Z"/><path class="d" d="M16.75,50.28h.3v.92c0,.11,.02,.19,.07,.24,.05,.05,.11,.07,.19,.07s.14-.02,.19-.07c.05-.04,.07-.12,.07-.24v-.92h.29v.9c0,.19-.05,.33-.16,.42-.11,.09-.24,.13-.4,.13s-.29-.04-.4-.13c-.11-.09-.16-.23-.16-.42v-.9Z"/><path class="d" d="M18.15,50.28h.48c.19,0,.35,.06,.48,.18,.13,.12,.19,.28,.19,.49v.09c0,.21-.06,.37-.19,.49s-.29,.18-.48,.18h-.48v-1.42Zm.47,1.2c.11,0,.2-.04,.27-.11s.1-.18,.1-.33v-.1c0-.14-.03-.25-.1-.33-.07-.07-.16-.11-.27-.11h-.17v.97h.17Z"/><path class="d" d="M19.5,50.95c0-.23,.06-.4,.18-.52s.27-.18,.47-.18c.18,0,.31,.04,.42,.13s.15,.19,.15,.32h-.3c0-.06-.02-.11-.07-.16-.05-.04-.12-.07-.21-.07-.1,0-.18,.04-.23,.11s-.09,.18-.09,.33v.15c0,.15,.03,.26,.1,.33,.06,.07,.15,.11,.26,.11,.05,0,.1,0,.14-.02,.04-.01,.08-.03,.11-.06v-.25h-.27v-.22h.57v.58s-.12,.1-.21,.14c-.09,.04-.21,.06-.34,.06-.21,0-.37-.06-.49-.18s-.18-.29-.18-.52v-.09Z"/><path class="d" d="M20.95,50.28h.3v1.42h-.3v-1.42Z"/><path class="d" d="M21.55,50.28h.32l.51,.88s.02,.04,.03,.06c0,.02,.02,.04,.02,.06h0v-.06s0-.04,0-.06v-.87h.26v1.42h-.33l-.5-.87s-.02-.04-.03-.06c0-.02-.02-.04-.02-.06h0v.07s0,.04,0,.07v.86h-.26v-1.42Z"/><path class="d" d="M22.94,50.95c0-.23,.06-.4,.18-.52s.27-.18,.47-.18c.18,0,.31,.04,.42,.13s.15,.19,.15,.32h-.3c0-.06-.02-.11-.07-.16-.05-.04-.12-.07-.21-.07-.1,0-.18,.04-.23,.11s-.09,.18-.09,.33v.15c0,.15,.03,.26,.1,.33,.06,.07,.15,.11,.26,.11,.05,0,.1,0,.14-.02,.04-.01,.08-.03,.11-.06v-.25h-.27v-.22h.57v.58s-.12,.1-.21,.14c-.09,.04-.21,.06-.34,.06-.21,0-.37-.06-.49-.18s-.18-.29-.18-.52v-.09Z"/></g><rect class="b" x="66.8" y="51.2" width="25" height="4.7"/><g><path d="M67.32,50.68h.54c.17,0,.29,.04,.38,.12,.09,.08,.13,.19,.13,.34s-.04,.26-.13,.34-.22,.12-.38,.12h-.24v.5h-.3v-1.42Zm.51,.7c.09,0,.16-.02,.19-.06s.05-.1,.05-.18-.02-.13-.05-.17c-.04-.04-.1-.06-.19-.06h-.21v.47h.21Z"/><path d="M68.57,50.68h.52c.17,0,.29,.04,.39,.12,.09,.08,.14,.19,.14,.33s-.05,.25-.14,.34c-.09,.08-.22,.12-.39,.12h-.22v.52h-.3v-1.42Zm.51,.68c.09,0,.15-.02,.18-.06,.04-.04,.05-.1,.05-.17s-.02-.13-.05-.17c-.04-.04-.1-.06-.18-.06h-.21v.46h.21Zm-.06,.08h.32l.35,.66h-.33l-.33-.66Z"/><path d="M69.8,51.35c0-.23,.06-.4,.18-.52,.12-.12,.27-.18,.46-.18s.34,.06,.46,.18c.12,.12,.18,.29,.18,.52v.09c0,.23-.06,.4-.18,.52-.12,.12-.27,.18-.46,.18s-.34-.06-.46-.18c-.12-.12-.18-.29-.18-.52v-.09Zm.4,.45c.06,.07,.14,.11,.24,.11s.18-.04,.24-.11,.09-.18,.09-.33v-.14c0-.15-.03-.26-.09-.33-.06-.07-.14-.11-.24-.11s-.18,.04-.24,.11c-.06,.07-.09,.18-.09,.33v.14c0,.15,.03,.26,.09,.33Z"/><path d="M71.25,51.67h.31v.02c0,.07,.02,.12,.07,.16,.04,.03,.11,.05,.19,.05s.14-.02,.18-.05,.06-.08,.06-.13-.02-.1-.06-.13c-.04-.03-.13-.06-.27-.1-.15-.04-.26-.09-.34-.16s-.12-.16-.12-.27c0-.13,.05-.23,.14-.3,.1-.08,.23-.11,.39-.11s.29,.04,.39,.12,.15,.18,.15,.31v.02h-.3v-.02c0-.06-.02-.11-.06-.15s-.1-.06-.17-.06-.13,.01-.17,.04c-.04,.03-.05,.07-.05,.12s.02,.09,.06,.11c.04,.03,.13,.06,.27,.09,.15,.04,.26,.09,.34,.16,.08,.07,.12,.17,.12,.3,0,.13-.05,.24-.15,.31-.1,.08-.24,.11-.4,.11s-.3-.04-.41-.11-.16-.18-.16-.32v-.03Z"/><path d="M72.58,50.68h.54c.17,0,.29,.04,.38,.12,.09,.08,.13,.19,.13,.34s-.04,.26-.13,.34-.22,.12-.38,.12h-.24v.5h-.3v-1.42Zm.51,.7c.09,0,.16-.02,.19-.06s.05-.1,.05-.18-.02-.13-.05-.17c-.04-.04-.1-.06-.19-.06h-.21v.47h.21Z"/><path d="M73.83,50.68h.96v.23h-.66v.35h.57v.22h-.57v.39h.67v.23h-.97v-1.42Z"/><path d="M74.96,51.35c0-.23,.06-.4,.18-.52,.12-.12,.27-.18,.46-.18,.18,0,.32,.05,.43,.14,.1,.09,.16,.21,.16,.36v.02h-.3v-.03c0-.08-.02-.15-.07-.2s-.12-.07-.21-.07-.18,.03-.24,.1c-.06,.07-.09,.18-.09,.33v.15c0,.14,.03,.25,.09,.32,.06,.07,.14,.11,.24,.11,.09,0,.16-.02,.2-.07,.04-.05,.07-.11,.08-.19v-.03h.3v.03c0,.14-.06,.26-.16,.36s-.24,.14-.42,.14c-.19,0-.34-.06-.46-.18-.12-.12-.17-.29-.17-.52v-.09Z"/><path d="M76.24,50.68h1.15v.23h-.42v1.19h-.3v-1.19h-.42v-.23Z"/><path d="M77.56,50.68h.3v1.42h-.3v-1.42Z"/><path d="M78.16,50.68h.32l.51,.88s.02,.04,.03,.06c0,.02,.02,.04,.02,.06h0s0-.04,0-.06v-.93h.26v1.42h-.33l-.5-.87s-.02-.04-.03-.06c0-.02-.02-.04-.02-.06h0s0,.04,0,.07c0,.02,0,.04,0,.07v.86h-.26v-1.42Z"/><path d="M79.55,51.35c0-.23,.06-.4,.18-.52,.12-.12,.27-.18,.47-.18,.17,0,.31,.04,.42,.13,.1,.09,.15,.19,.15,.32h-.3c0-.06-.02-.11-.07-.16-.05-.04-.12-.07-.21-.07-.1,0-.18,.04-.24,.11-.06,.07-.09,.18-.09,.33v.15c0,.15,.03,.26,.09,.33,.06,.07,.15,.11,.26,.11,.05,0,.1,0,.14-.02,.04-.01,.08-.03,.11-.06v-.25h-.27v-.22h.57v.58s-.12,.1-.21,.14c-.09,.04-.21,.06-.34,.06-.21,0-.37-.06-.49-.18-.12-.12-.18-.29-.18-.52v-.09Z"/></g><rect class="b" y="65.6" width="25" height="4.7"/><g><path class="d" d="M14.14,65.12h.32l.55,1.43h-.32l-.37-1s-.01-.04-.02-.06,0-.04-.01-.06h0s0,.04-.01,.06c0,.02-.01,.04-.02,.06l-.37,1h-.28l.54-1.43Zm-.16,.89h.63l.07,.22h-.77l.07-.22Z"/><path class="d" d="M15.05,66.12h.31v.02c0,.07,.02,.12,.07,.16,.04,.03,.11,.05,.19,.05s.14-.02,.18-.05,.06-.08,.06-.13-.02-.1-.06-.13c-.04-.03-.13-.06-.27-.1-.15-.04-.26-.09-.34-.16s-.12-.16-.12-.27c0-.13,.05-.23,.14-.3s.23-.11,.39-.11,.29,.04,.39,.12,.15,.18,.15,.31v.02h-.3v-.02c0-.06-.02-.11-.06-.15s-.1-.06-.17-.06-.13,.01-.17,.04-.05,.07-.05,.12,.02,.09,.06,.11c.04,.03,.13,.06,.27,.09,.15,.04,.26,.09,.34,.16s.12,.17,.12,.3c0,.13-.05,.24-.15,.31s-.24,.11-.4,.11-.3-.04-.41-.11-.16-.18-.16-.32v-.03Z"/><path class="d" d="M16.3,66.12h.31v.02c0,.07,.02,.12,.07,.16,.04,.03,.11,.05,.19,.05s.14-.02,.18-.05,.06-.08,.06-.13-.02-.1-.06-.13c-.04-.03-.13-.06-.27-.1-.15-.04-.26-.09-.34-.16s-.12-.16-.12-.27c0-.13,.05-.23,.14-.3s.23-.11,.39-.11,.29,.04,.39,.12,.15,.18,.15,.31v.02h-.3v-.02c0-.06-.02-.11-.06-.15s-.1-.06-.17-.06-.13,.01-.17,.04-.05,.07-.05,.12,.02,.09,.06,.11c.04,.03,.13,.06,.27,.09,.15,.04,.26,.09,.34,.16s.12,.17,.12,.3c0,.13-.05,.24-.15,.31s-.24,.11-.4,.11-.3-.04-.41-.11-.16-.18-.16-.32v-.03Z"/><path class="d" d="M17.63,65.13h.96v.23h-.66v.35h.57v.22h-.57v.39h.67v.23h-.97v-1.42Z"/><path class="d" d="M18.81,65.13h.52c.17,0,.3,.04,.39,.12,.09,.08,.14,.19,.14,.33s-.05,.25-.14,.34-.22,.12-.39,.12h-.22v.52h-.3v-1.42Zm.51,.68c.09,0,.15-.02,.18-.06,.04-.04,.05-.1,.05-.17s-.02-.13-.05-.17-.1-.06-.18-.06h-.21v.46h.21Zm-.06,.08h.32l.35,.66h-.33l-.33-.66Z"/><path class="d" d="M19.89,65.13h1.15v.23h-.42v1.19h-.3v-1.19h-.42v-.23Z"/><path class="d" d="M21.2,65.13h.3v1.42h-.3v-1.42Z"/><path class="d" d="M21.95,65.13l.35,.97s.01,.04,.02,.05v.05h.02s0-.04,.01-.05l.02-.05,.35-.97h.29l-.53,1.43h-.32l-.53-1.43h.33Z"/><path class="d" d="M23.13,65.13h.96v.23h-.66v.35h.57v.22h-.57v.39h.67v.23h-.97v-1.42Z"/></g><rect class="b" x="67.2" y="64.4" width="25" height="4.7"/><g><path d="M68.1,65.27h1.15v.23h-.42v1.19h-.3v-1.19h-.42v-.23Z"/><path d="M69.41,65.27h.3v.92c0,.11,.02,.19,.07,.24,.05,.05,.11,.07,.19,.07s.14-.02,.19-.07c.05-.04,.07-.12,.07-.24v-.92h.29v.9c0,.19-.05,.33-.16,.42-.11,.09-.24,.13-.4,.13s-.29-.04-.4-.13c-.11-.09-.16-.23-.16-.42v-.9Z"/><path d="M70.81,65.27h.52c.17,0,.29,.04,.39,.12,.09,.08,.14,.19,.14,.33s-.05,.25-.14,.34c-.09,.08-.22,.12-.39,.12h-.22v.52h-.3v-1.42Zm.51,.68c.09,0,.15-.02,.18-.06,.04-.04,.05-.1,.05-.17s-.02-.13-.05-.17c-.04-.04-.1-.06-.18-.06h-.21v.46h.21Zm-.06,.08h.32l.35,.66h-.33l-.33-.66Z"/><path d="M72.09,65.27h.53c.16,0,.28,.03,.37,.09s.13,.16,.13,.28c0,.08-.02,.14-.05,.19-.04,.05-.08,.08-.13,.1h0c.06,.02,.12,.06,.16,.12,.04,.06,.06,.13,.06,.22,0,.13-.05,.23-.14,.3s-.22,.11-.37,.11h-.56v-1.42Zm.52,.58c.08,0,.13-.02,.16-.05,.03-.03,.05-.08,.05-.14s-.02-.1-.05-.14c-.03-.03-.09-.05-.16-.05h-.23v.37h.23Zm.03,.63c.08,0,.13-.02,.17-.06,.04-.04,.05-.09,.05-.16s-.02-.12-.05-.15c-.04-.04-.09-.06-.17-.06h-.25v.43h.25Z"/><path d="M73.38,65.27h.3v.92c0,.11,.02,.19,.07,.24,.05,.05,.11,.07,.19,.07s.14-.02,.19-.07c.05-.04,.07-.12,.07-.24v-.92h.29v.9c0,.19-.05,.33-.16,.42-.11,.09-.24,.13-.4,.13s-.29-.04-.4-.13c-.11-.09-.16-.23-.16-.42v-.9Z"/><path d="M74.78,65.27h.3v1.19h.62v.23h-.92v-1.42Z"/><path d="M75.89,65.27h.96v.23h-.66v.35h.57v.22h-.57v.39h.67v.23h-.97v-1.42Z"/><path d="M77.08,65.27h.32l.51,.88s.02,.04,.03,.06c0,.02,.02,.04,.02,.06h0s0-.04,0-.06v-.93h.26v1.42h-.33l-.5-.87s-.02-.04-.03-.06c0-.02-.02-.04-.02-.06h0s0,.04,0,.07c0,.02,0,.04,0,.07v.86h-.26v-1.42Z"/><path d="M78.38,65.27h1.15v.23h-.42v1.19h-.3v-1.19h-.42v-.23Z"/></g></svg>